<svg width="160" height="101" viewBox="0 0 160 101" fill="none" xmlns="http://www.w3.org/2000/svg">
<path d="M7.072 27.112C6.752 26.984 6.37867 26.8027 5.952 26.568C5.52533 26.3547 5.12 26.0667 4.736 25.704C4.352 25.3413 4.05333 24.904 3.84 24.392C3.62667 23.7733 3.47733 23.1653 3.392 22.568C3.328 21.9707 3.30667 21.2773 3.328 20.488C3.328 19.3787 3.40267 18.4187 3.552 17.608C3.72267 16.776 3.97867 15.9333 4.32 15.08C4.36267 15.016 4.43733 14.8347 4.544 14.536C4.672 14.216 4.81067 13.8747 4.96 13.512C5.13067 13.1493 5.25867 12.872 5.344 12.68C5.51467 12.3173 5.77067 11.8373 6.112 11.24C6.47467 10.6213 6.85867 10.024 7.264 9.448C7.88267 8.53067 8.40533 7.784 8.832 7.208C9.25867 6.61067 9.664 6.10933 10.048 5.704C10.4533 5.29867 10.8907 4.904 11.36 4.52C11.8507 4.136 12.4587 3.69866 13.184 3.208C13.6533 2.86667 14.2507 2.65333 14.976 2.568C15.7227 2.48267 16.448 2.6 17.152 2.92C17.856 3.21866 18.3787 3.79467 18.72 4.648C18.9547 5.096 19.0613 5.66133 19.04 6.344C19.0187 7.00533 18.8907 7.72 18.656 8.488C18.4213 9.23467 18.1227 9.93867 17.76 10.6C17.3973 11.2613 16.992 11.7947 16.544 12.2C16.2667 12.456 15.8933 12.4987 15.424 12.328C14.976 12.1573 14.6027 11.9333 14.304 11.656C14.112 11.2933 14.0053 11.08 13.984 11.016C13.984 10.952 14.0267 10.9093 14.112 10.888C14.24 10.7387 14.4107 10.4827 14.624 10.12C14.8373 9.75733 15.0507 9.37333 15.264 8.968C15.4773 8.54133 15.6267 8.2 15.712 7.944C15.8827 7.048 16 6.46133 16.064 6.184C16.128 5.88533 16.064 5.64 15.872 5.448C15.7867 5.36267 15.6587 5.33067 15.488 5.352C15.3387 5.37333 15.0827 5.48 14.72 5.672C14.2293 5.88533 13.6427 6.32267 12.96 6.984C12.2987 7.624 11.6373 8.392 10.976 9.288C10.1227 10.4187 9.408 11.4213 8.832 12.296C8.256 13.1707 7.81867 14.0667 7.52 14.984C7.47733 15.0693 7.40267 15.2293 7.296 15.464C7.21067 15.6987 7.168 15.816 7.168 15.816C7.18933 15.9013 7.15733 16.1147 7.072 16.456C6.98667 16.776 6.89067 17.0533 6.784 17.288C6.54933 18.2693 6.41067 19.2187 6.368 20.136C6.32533 21.032 6.37867 21.8213 6.528 22.504C6.69867 23.1653 6.944 23.656 7.264 23.976C7.54133 24.168 7.89333 24.232 8.32 24.168C8.74667 24.104 9.23733 23.9547 9.792 23.72C10.3467 23.4853 10.944 23.2293 11.584 22.952C12.096 22.7387 12.5653 22.504 12.992 22.248C13.4187 21.992 13.7387 21.768 13.952 21.576C14.1227 21.448 14.336 21.32 14.592 21.192C14.8693 21.0427 15.104 20.968 15.296 20.968C15.5947 20.8613 15.8187 20.9467 15.968 21.224C16.1173 21.5013 16.192 21.8533 16.192 22.28C16.192 22.5787 15.9787 22.9413 15.552 23.368C15.1253 23.7947 14.656 24.1573 14.144 24.456C13.9733 24.6267 13.7387 24.7867 13.44 24.936C13.1627 25.064 12.8747 25.1813 12.576 25.288C12.128 25.6293 11.5733 25.96 10.912 26.28C10.2507 26.6 9.57867 26.8453 8.896 27.016C8.23467 27.1867 7.62667 27.2187 7.072 27.112ZM19.9503 25.352C19.5449 25.4587 19.1823 25.3413 18.8623 25C18.5423 24.68 18.3183 24.2 18.1903 23.56C18.0623 22.92 18.0836 22.2053 18.2543 21.416C18.3609 21.16 18.4463 20.9147 18.5103 20.68C18.5743 20.424 18.6063 20.2213 18.6063 20.072C18.6489 19.8587 18.7343 19.5493 18.8623 19.144C18.9903 18.7173 19.1289 18.28 19.2783 17.832C19.4276 17.384 19.5663 16.9893 19.6943 16.648C19.8436 16.2853 19.9396 16.0613 19.9823 15.976C20.0676 15.976 20.1423 15.9013 20.2063 15.752C20.2703 15.6027 20.3023 15.4533 20.3023 15.304C20.3023 15.1333 20.3343 14.9413 20.3983 14.728C20.4836 14.5147 20.5689 14.3653 20.6543 14.28C20.6543 14.1733 20.6756 14.056 20.7183 13.928C20.7823 13.7787 20.8143 13.6613 20.8143 13.576C20.8143 13.4907 20.8356 13.4053 20.8783 13.32C20.9423 13.2347 20.9743 13.1493 20.9743 13.064C21.1236 12.7867 21.3156 12.3493 21.5503 11.752C21.8063 11.1333 22.0729 10.4507 22.3503 9.704C22.6489 8.95733 22.9263 8.22133 23.1823 7.496C23.4383 6.77067 23.6409 6.16267 23.7903 5.672C23.9609 5.16 24.0463 4.85067 24.0463 4.744C24.0463 4.57333 24.1103 4.41333 24.2383 4.264C24.3663 4.11467 24.5156 4.04 24.6863 4.04C24.7503 3.976 24.8996 3.93333 25.1343 3.912C25.3689 3.86933 25.5289 3.848 25.6143 3.848C25.6143 3.848 25.6569 3.89067 25.7423 3.976C25.8276 4.06133 25.9556 4.18933 26.1263 4.36C26.2969 4.50933 26.4569 4.68 26.6063 4.872C26.7769 5.064 26.8623 5.288 26.8623 5.544C26.8623 5.82133 26.8196 6.088 26.7343 6.344C26.6703 6.6 26.5423 6.952 26.3503 7.4C26.1583 7.82667 25.8596 8.46667 25.4543 9.32C25.2836 9.74667 25.1023 10.152 24.9103 10.536C24.7183 10.8987 24.6223 11.1227 24.6223 11.208C24.6223 11.2933 24.5796 11.4213 24.4943 11.592C24.4303 11.7627 24.3556 11.976 24.2703 12.232C24.1849 12.4027 24.0676 12.6587 23.9183 13C23.7689 13.32 23.6089 13.672 23.4383 14.056C23.2889 14.4187 23.1609 14.7387 23.0543 15.016C22.9476 15.272 22.8943 15.4213 22.8943 15.464C22.8943 15.5493 22.8836 15.6347 22.8623 15.72C22.8623 15.8053 22.8196 15.8907 22.7343 15.976C22.6489 15.976 22.5956 16.04 22.5743 16.168C22.5743 16.2747 22.5743 16.328 22.5743 16.328C22.5743 16.5413 22.4036 17.1067 22.0623 18.024C21.7209 19.1973 21.4009 20.2747 21.1023 21.256C20.8249 22.2373 20.6863 23.0267 20.6863 23.624C20.6863 24.136 20.6009 24.5307 20.4303 24.808C20.2809 25.0853 20.1209 25.2667 19.9503 25.352ZM24.3898 24.456C24.2191 24.2853 24.0911 24.0293 24.0058 23.688C23.9418 23.3467 23.9204 23.016 23.9418 22.696C23.9631 22.3547 24.0164 22.0987 24.1018 21.928C24.1018 21.7573 24.1231 21.6293 24.1658 21.544C24.2298 21.4373 24.2511 21.3413 24.2298 21.256C24.2084 21.1707 24.2298 21.0213 24.2938 20.808C24.3578 20.5947 24.4218 20.392 24.4858 20.2C24.6351 19.8587 24.8058 19.4213 24.9978 18.888C25.1898 18.3333 25.3818 17.7787 25.5738 17.224C25.7658 16.648 25.9258 16.1573 26.0538 15.752C26.1818 15.3253 26.2564 15.0693 26.2778 14.984C26.2778 14.728 26.4484 14.5893 26.7898 14.568C27.0458 14.4827 27.3551 14.5893 27.7178 14.888C28.0804 15.1867 28.3684 15.5067 28.5818 15.848C28.7524 16.0187 28.8164 16.2427 28.7738 16.52C28.7311 16.7973 28.5924 17.192 28.3578 17.704C28.2724 17.8747 28.1658 18.1627 28.0378 18.568C27.9311 18.952 27.8564 19.272 27.8138 19.528C27.7284 19.6987 27.6218 19.944 27.4938 20.264C27.3871 20.5627 27.2911 20.8507 27.2058 21.128C27.1631 21.2347 27.1204 21.4373 27.0778 21.736C27.0351 22.0133 26.9818 22.3013 26.9178 22.6C26.8538 22.8987 26.7684 23.1333 26.6618 23.304C26.4698 24.1787 26.1284 24.6907 25.6378 24.84C25.1684 24.9893 24.7524 24.8613 24.3898 24.456ZM27.8458 11.624C27.6111 11.4533 27.4298 11.2507 27.3018 11.016C27.1951 10.76 27.1311 10.536 27.1098 10.344C27.1098 10.152 27.1311 10.0347 27.1738 9.992C27.3871 9.75733 27.5684 9.448 27.7178 9.064C27.8884 8.68 28.0698 8.328 28.2618 8.008C28.3044 7.944 28.3578 7.85867 28.4218 7.752C28.5071 7.624 28.5924 7.54933 28.6778 7.528C28.9338 7.35733 29.2858 7.368 29.7338 7.56C30.2031 7.752 30.5444 8.01867 30.7578 8.36C30.9498 8.76533 31.0031 9.18133 30.9178 9.608C30.8538 10.0347 30.6298 10.4827 30.2458 10.952C29.9258 11.3787 29.5204 11.656 29.0298 11.784C28.5391 11.8907 28.1444 11.8373 27.8458 11.624ZM33.391 24.744C32.9217 24.744 32.5697 24.7227 32.335 24.68C32.1217 24.6373 31.9617 24.5733 31.855 24.488C31.7483 24.4027 31.6097 24.2853 31.439 24.136C31.3537 23.9653 31.2043 23.752 30.991 23.496C30.7777 23.2187 30.6283 23.0373 30.543 22.952C30.4577 22.632 30.4257 22.1947 30.447 21.64C30.4897 21.0853 30.5857 20.488 30.735 19.848C30.8843 19.208 31.0657 18.632 31.279 18.12C31.3643 17.9493 31.439 17.7787 31.503 17.608C31.567 17.4373 31.599 17.352 31.599 17.352C31.599 17.2453 31.727 16.9893 31.983 16.584C32.2603 16.1787 32.559 15.752 32.879 15.304C33.2203 14.856 33.4977 14.536 33.711 14.344C33.8603 14.1733 34.0843 13.992 34.383 13.8C34.703 13.608 34.9803 13.4693 35.215 13.384C35.4497 13.2987 35.7697 13.192 36.175 13.064C36.5803 12.9147 36.943 12.84 37.263 12.84C37.5617 12.84 37.8817 12.904 38.223 13.032C38.5643 13.16 38.8523 13.384 39.087 13.704C39.471 14.088 39.7163 14.5467 39.823 15.08C39.9297 15.6133 39.9403 16.072 39.855 16.456C39.7483 16.8827 39.535 17.2347 39.215 17.512C38.895 17.768 38.5537 17.9067 38.191 17.928C37.8283 17.928 37.5083 17.7787 37.231 17.48C37.1457 17.3093 37.103 17.1707 37.103 17.064C37.103 16.936 37.1457 16.7547 37.231 16.52C37.3163 16.2213 37.359 15.9547 37.359 15.72C37.359 15.4853 37.263 15.368 37.071 15.368C36.7937 15.368 36.5697 15.4533 36.399 15.624C36.2283 15.7733 35.9723 16.0293 35.631 16.392C35.4817 16.5627 35.2897 16.808 35.055 17.128C34.8203 17.448 34.5857 17.8 34.351 18.184C34.1377 18.5467 33.9457 18.92 33.775 19.304C33.5403 20.008 33.391 20.4667 33.327 20.68C33.2843 20.872 33.263 20.968 33.263 20.968C33.263 21.0533 33.2523 21.1387 33.231 21.224C33.2097 21.288 33.199 21.3627 33.199 21.448C33.199 21.704 33.3483 21.9067 33.647 22.056C33.8817 22.2053 34.0737 22.28 34.223 22.28C34.3937 22.2587 34.7137 22.1413 35.183 21.928C35.5243 21.7573 35.8443 21.5333 36.143 21.256C36.463 20.9787 36.7937 20.7333 37.135 20.52C37.3697 20.3707 37.551 20.2427 37.679 20.136C37.8283 20.0293 37.903 20.0187 37.903 20.104C37.903 20.1893 37.935 20.232 37.999 20.232C38.063 20.232 38.1377 20.1893 38.223 20.104C38.351 19.9333 38.511 19.8693 38.703 19.912C38.895 19.9333 39.0657 19.9867 39.215 20.072C39.3857 20.1573 39.471 20.232 39.471 20.296C39.4283 20.488 39.471 20.648 39.599 20.776C39.599 20.8613 39.567 20.9787 39.503 21.128C39.4603 21.256 39.3963 21.3627 39.311 21.448C39.2043 21.5973 39.0443 21.8107 38.831 22.088C38.639 22.3653 38.4577 22.6107 38.287 22.824C38.1163 23.0373 38.031 23.144 38.031 23.144C37.9457 23.1227 37.8603 23.144 37.775 23.208C37.711 23.272 37.6363 23.3467 37.551 23.432C37.3803 23.5813 37.2203 23.6987 37.071 23.784C36.9217 23.848 36.8043 23.88 36.719 23.88C36.5697 23.9653 36.4523 24.0187 36.367 24.04C36.303 24.0613 36.271 24.1147 36.271 24.2C36.0577 24.4133 35.6737 24.5627 35.119 24.648C34.5643 24.712 33.9883 24.744 33.391 24.744ZM48.6663 25.256C48.5809 25.1707 48.4529 25.064 48.2823 24.936C48.1116 24.7867 47.9836 24.6373 47.8983 24.488C47.8556 24.424 47.7489 24.3067 47.5783 24.136C47.4076 23.944 47.2369 23.7627 47.0663 23.592C46.8956 23.4 46.7783 23.2827 46.7143 23.24C46.6716 23.1333 46.5969 23.016 46.4903 22.888C46.3836 22.7387 46.2663 22.5893 46.1383 22.44C46.0103 22.2693 45.8609 22.1093 45.6903 21.96C45.4556 21.64 45.2636 21.3947 45.1143 21.224C44.9863 21.0533 44.8796 20.968 44.7943 20.968C44.7943 20.968 44.7303 21.1707 44.6023 21.576C44.4743 21.96 44.3356 22.408 44.1863 22.92C44.0369 23.4107 43.9089 23.816 43.8023 24.136C43.7169 24.2853 43.6316 24.4027 43.5463 24.488C43.4609 24.5733 43.3756 24.6373 43.2903 24.68C43.2263 24.7227 43.1516 24.7547 43.0663 24.776C42.9809 24.776 42.8956 24.776 42.8103 24.776C42.5756 24.776 42.2769 24.6693 41.9143 24.456C41.5516 24.2427 41.3703 23.9333 41.3703 23.528C41.2849 23.2293 41.3916 22.5787 41.6903 21.576C41.9889 20.5733 42.4476 19.2933 43.0663 17.736C43.1516 17.416 43.2583 17.0853 43.3863 16.744C43.5143 16.3813 43.6209 16.0827 43.7063 15.848C44.0263 14.8027 44.3783 13.8427 44.7623 12.968C45.1463 12.072 45.5729 11.08 46.0423 9.992C46.2343 9.608 46.3729 9.33067 46.4583 9.16C46.5436 8.968 46.6396 8.776 46.7463 8.584C46.8529 8.37067 47.0129 8.06133 47.2263 7.656C47.6956 6.78133 48.0689 6.09867 48.3463 5.608C48.6236 5.11733 48.8369 4.75467 48.9863 4.52C49.1356 4.28533 49.2636 4.11467 49.3703 4.008C49.4769 3.90133 49.6476 3.82667 49.8823 3.784C50.1169 3.74133 50.3516 3.74133 50.5863 3.784C50.8423 3.80533 51.0236 3.88 51.1303 4.008C51.3009 4.17867 51.4289 4.34933 51.5143 4.52C51.5996 4.66933 51.5996 4.88267 51.5143 5.16C51.4503 5.416 51.2583 5.81067 50.9383 6.344C50.7676 6.728 50.6289 7.00533 50.5223 7.176C50.4156 7.34667 50.3089 7.51733 50.2023 7.688C50.0956 7.85867 49.9249 8.15733 49.6903 8.584C49.6689 8.66933 49.6263 8.76533 49.5623 8.872C49.5196 8.95733 49.4663 9.04267 49.4023 9.128C49.3383 9.192 49.2743 9.224 49.2103 9.224C49.2103 9.288 49.1783 9.416 49.1143 9.608C49.0503 9.8 48.9756 9.98133 48.8903 10.152C48.8263 10.3867 48.7196 10.6427 48.5703 10.92C48.4423 11.176 48.3463 11.3893 48.2823 11.56C48.1116 11.9653 47.8769 12.456 47.5783 13.032C47.3009 13.5867 47.1303 14.0347 47.0663 14.376C47.0663 14.4187 47.0983 14.4293 47.1623 14.408C47.2263 14.3653 47.3009 14.312 47.3863 14.248C47.4929 14.1627 47.5889 14.0987 47.6743 14.056C48.1649 13.672 48.6876 13.3093 49.2423 12.968C49.8183 12.6267 50.2983 12.424 50.6823 12.36C50.8956 12.296 51.0876 12.264 51.2583 12.264C51.4289 12.2427 51.5889 12.2427 51.7383 12.264C51.8876 12.2853 52.0369 12.328 52.1863 12.392C52.4209 12.5413 52.6343 12.8187 52.8263 13.224C53.0183 13.6293 53.1569 14.0347 53.2423 14.44C53.2423 14.632 53.1463 14.984 52.9543 15.496C52.7836 15.9867 52.5703 16.4773 52.3143 16.968C52.0796 17.4373 51.8556 17.7573 51.6423 17.928C51.5356 17.9707 51.4396 18.0133 51.3543 18.056C51.2903 18.0987 51.2369 18.1413 51.1943 18.184C51.1729 18.2053 51.1623 18.216 51.1623 18.216C51.1623 18.3013 51.1196 18.408 51.0343 18.536C50.9703 18.664 50.8529 18.7707 50.6823 18.856C50.5969 18.9413 50.5009 19.048 50.3943 19.176C50.2876 19.304 50.2343 19.4 50.2343 19.464C50.2343 19.464 50.2343 19.496 50.2343 19.56C50.2343 19.6027 50.2343 19.624 50.2343 19.624C50.1489 19.624 50.0743 19.6347 50.0103 19.656C49.9676 19.656 49.8289 19.7413 49.5943 19.912C49.3596 20.1467 49.1889 20.2747 49.0823 20.296C48.9969 20.3173 48.8689 20.36 48.6983 20.424C48.6129 20.5093 48.5063 20.5627 48.3783 20.584C48.2716 20.6053 48.2183 20.6587 48.2183 20.744C48.2183 20.8293 48.3036 20.9893 48.4743 21.224C48.6449 21.4587 48.8476 21.7147 49.0823 21.992C49.3383 22.2693 49.5836 22.5253 49.8183 22.76C50.0529 22.9947 50.2343 23.1547 50.3623 23.24C50.5116 23.304 50.6183 23.4213 50.6823 23.592C50.7463 23.7627 50.7783 23.944 50.7783 24.136C50.7996 24.328 50.7889 24.5093 50.7463 24.68C50.7249 24.8507 50.6929 24.9787 50.6503 25.064C50.6076 25.1067 50.4583 25.16 50.2023 25.224C49.9676 25.3093 49.7009 25.3627 49.4023 25.384C49.1249 25.4053 48.8796 25.3627 48.6663 25.256ZM46.8103 19.144C46.9169 19.0587 47.1089 18.8987 47.3863 18.664C47.6849 18.4293 48.0049 18.1733 48.3463 17.896C48.6876 17.5973 48.9969 17.3093 49.2743 17.032C49.5729 16.7547 49.7863 16.5413 49.9143 16.392C50.0636 16.2427 50.2236 15.9973 50.3943 15.656C50.5649 15.3147 50.5969 15.0373 50.4903 14.824C50.4689 14.7387 50.3089 14.792 50.0103 14.984C49.7116 15.176 49.3276 15.3893 48.8583 15.624C48.4956 15.8373 48.0903 16.0827 47.6423 16.36C47.2156 16.616 46.8103 16.904 46.4263 17.224C46.0423 17.5227 45.7436 17.8533 45.5303 18.216C45.4876 18.3653 45.5303 18.536 45.6583 18.728C45.7863 18.92 45.9569 19.0693 46.1703 19.176C46.3836 19.2613 46.5969 19.2507 46.8103 19.144ZM64.609 26.12C63.8197 25.544 63.1903 25.0107 62.721 24.52C62.273 24.008 62.0277 23.5173 61.985 23.048C61.9423 22.664 61.9423 22.1413 61.985 21.48C62.049 20.8187 62.1237 20.168 62.209 19.528C62.2943 18.888 62.369 18.408 62.433 18.088C62.5397 17.9813 62.5823 17.8427 62.561 17.672C62.561 17.48 62.561 17.384 62.561 17.384C62.5397 17.2773 62.6143 17 62.785 16.552C62.9557 16.0827 63.1157 15.4853 63.265 14.76C63.6917 13.48 64.097 12.4133 64.481 11.56C64.8863 10.6853 65.281 9.93867 65.665 9.32C66.049 8.70133 66.433 8.136 66.817 7.624C67.6917 6.728 68.513 6.01333 69.281 5.48C70.0703 4.94667 70.7957 4.53067 71.457 4.232C71.8837 3.976 72.2783 3.77333 72.641 3.624C73.0037 3.47467 73.3023 3.45333 73.537 3.56C74.7317 3.816 75.745 4.33867 76.577 5.128C77.409 5.91733 77.9637 7.05867 78.241 8.552C78.3903 9.49067 78.4757 10.344 78.497 11.112C78.5397 11.8587 78.4863 12.6053 78.337 13.352C78.1877 14.0773 77.9103 14.8773 77.505 15.752C77.121 16.6267 76.577 17.6507 75.873 18.824C74.9983 20.552 74.0383 22.0027 72.993 23.176C71.969 24.328 70.9343 25.2027 69.889 25.8C68.865 26.3973 67.8837 26.7173 66.945 26.76C66.0277 26.824 65.249 26.6107 64.609 26.12ZM67.169 24.008C67.6597 23.944 68.0543 23.848 68.353 23.72C68.673 23.592 69.0037 23.3467 69.345 22.984C69.6863 22.6213 70.1663 22.088 70.785 21.384C71.3397 20.744 71.7983 20.2 72.161 19.752C72.545 19.304 72.865 18.8453 73.121 18.376C73.3983 17.9067 73.6543 17.352 73.889 16.712C74.145 16.0507 74.4223 15.208 74.721 14.184C74.8917 13.544 75.009 13.0747 75.073 12.776C75.1583 12.456 75.2117 12.1893 75.233 11.976C75.2543 11.7627 75.2543 11.4747 75.233 11.112C75.233 10.728 75.233 10.152 75.233 9.384C75.2117 9.02133 75.137 8.616 75.009 8.168C74.881 7.69867 74.7317 7.368 74.561 7.176C74.3477 6.94133 74.0277 6.73867 73.601 6.568C73.1743 6.39733 72.7263 6.41867 72.257 6.632C72.001 6.73867 71.681 6.96267 71.297 7.304C70.913 7.624 70.5183 8.008 70.113 8.456C69.7077 8.904 69.3237 9.352 68.961 9.8C68.5983 10.248 68.3103 10.6533 68.097 11.016C67.8837 11.3787 67.777 11.6347 67.777 11.784C67.777 11.784 67.7663 11.8373 67.745 11.944C67.745 12.0507 67.7023 12.1573 67.617 12.264C67.3397 12.5627 67.0517 13.0533 66.753 13.736C66.4543 14.4187 66.177 15.1973 65.921 16.072C65.665 16.9467 65.4517 17.8213 65.281 18.696C65.1103 19.5707 65.0037 20.36 64.961 21.064C64.961 21.4053 64.961 21.6933 64.961 21.928C64.961 22.1627 64.9823 22.376 65.025 22.568C65.089 22.7387 65.185 22.9307 65.313 23.144C65.441 23.3573 65.697 23.5707 66.081 23.784C66.4863 23.9973 66.849 24.072 67.169 24.008ZM88.9573 24.232C88.4879 24.1893 88.0933 24.0933 87.7733 23.944C87.4746 23.7733 87.2293 23.4427 87.0373 22.952C86.9519 22.6107 86.9093 22.2587 86.9093 21.896C86.9306 21.512 86.9626 21.1493 87.0053 20.808C87.0479 20.4453 87.0693 20.136 87.0693 19.88C87.0693 19.8373 87.0693 19.752 87.0693 19.624C87.0693 19.496 87.0693 19.3787 87.0693 19.272C87.0266 18.952 86.9413 18.76 86.8133 18.696C86.7066 18.6107 86.5146 18.6213 86.2373 18.728C85.7893 18.9413 85.2986 19.2293 84.7653 19.592C84.2533 19.9333 83.7093 20.3387 83.1333 20.808C82.5786 21.256 82.0026 21.736 81.4053 22.248C80.9359 22.76 80.5839 23.176 80.3493 23.496C80.1359 23.816 79.9119 23.976 79.6773 23.976C79.5066 24.0613 79.3253 24.04 79.1333 23.912C78.9413 23.784 78.7386 23.6347 78.5253 23.464C78.3759 23.2933 78.1946 23.08 77.9813 22.824C77.7893 22.5467 77.6719 22.3653 77.6293 22.28C77.6293 21.9387 77.6506 21.6293 77.6933 21.352C77.7573 21.0747 77.8426 20.7867 77.9493 20.488C78.0773 20.1893 78.2266 19.848 78.3973 19.464C78.4826 19.3147 78.5573 19.1653 78.6213 19.016C78.7066 18.8453 78.8026 18.664 78.9093 18.472C78.9946 18.1733 79.1119 17.832 79.2613 17.448C79.4319 17.064 79.5919 16.7013 79.7413 16.36C79.9759 15.8053 80.1573 15.3253 80.2853 14.92C80.4133 14.5147 80.5199 14.0773 80.6053 13.608C80.5839 13.5653 80.5946 13.5013 80.6373 13.416C80.6799 13.3307 80.7439 13.2773 80.8293 13.256H80.8613H80.8933C81.0426 13.1493 81.3199 13.1387 81.7253 13.224C82.1519 13.288 82.4719 13.4053 82.6853 13.576C83.1333 13.96 83.3466 14.4613 83.3253 15.08C83.3039 15.6987 82.9839 16.5093 82.3653 17.512C82.2159 17.8533 82.0559 18.1733 81.8853 18.472C81.7359 18.7493 81.6613 18.9413 81.6613 19.048C81.6613 19.048 81.7466 18.984 81.9173 18.856C82.0879 18.728 82.2906 18.5787 82.5253 18.408C82.7599 18.216 82.9626 18.0667 83.1333 17.96C83.2399 17.8533 83.4746 17.6613 83.8373 17.384C84.1999 17.0853 84.5946 16.776 85.0213 16.456C85.4479 16.136 85.7893 15.8907 86.0453 15.72C86.2799 15.5493 86.5786 15.3787 86.9413 15.208C87.3039 15.016 87.5279 14.92 87.6133 14.92C87.8266 14.92 88.0826 14.9947 88.3813 15.144C88.7013 15.2933 88.9893 15.4747 89.2453 15.688C89.5226 15.88 89.6826 16.0613 89.7253 16.232C89.7253 16.3173 89.7146 16.4347 89.6933 16.584C89.6719 16.712 89.6613 16.8293 89.6613 16.936C89.6399 17.2773 89.6293 17.6933 89.6293 18.184C89.6506 18.6533 89.6613 19.1333 89.6613 19.624C89.6613 20.0933 89.6186 20.52 89.5333 20.904C89.5333 20.904 89.5439 20.9253 89.5653 20.968C89.5866 20.9893 89.6079 21.032 89.6293 21.096C89.6079 21.1173 89.5973 21.16 89.5973 21.224C89.6186 21.2667 89.6293 21.288 89.6293 21.288C89.6719 21.4373 89.7146 21.5867 89.7573 21.736C89.8213 21.8853 89.8959 22.056 89.9813 22.248C90.0666 22.4187 90.1626 22.6427 90.2693 22.92C90.2479 23.1973 90.0879 23.4747 89.7893 23.752C89.5119 24.008 89.2346 24.168 88.9573 24.232ZM104.387 26.696C104.003 26.7173 103.683 26.536 103.427 26.152C103.171 25.768 103.053 25.448 103.075 25.192C103.096 24.8507 103.192 24.36 103.363 23.72C103.533 23.08 103.725 22.4293 103.939 21.768C104.152 21.1067 104.344 20.584 104.515 20.2C104.6 19.8587 104.675 19.56 104.739 19.304C104.824 19.0267 104.877 18.8453 104.899 18.76C104.963 18.6747 105.059 18.4507 105.187 18.088C105.336 17.7253 105.453 17.3733 105.539 17.032C105.581 16.8613 105.667 16.5413 105.795 16.072C105.944 15.5813 106.115 15.016 106.307 14.376C106.52 13.736 106.723 13.1067 106.915 12.488C107.128 11.8693 107.309 11.3253 107.459 10.856C107.608 10.3867 107.704 10.0773 107.747 9.928C107.917 9.672 108.045 9.42667 108.131 9.192C108.216 8.95733 108.269 8.79733 108.291 8.712C108.419 8.62667 108.493 8.52 108.515 8.392C108.536 8.24267 108.547 8.12533 108.547 8.04C108.547 7.93333 108.579 7.848 108.643 7.784C108.728 7.72 108.771 7.64533 108.771 7.56C108.856 7.496 108.909 7.48533 108.931 7.528C108.952 7.57067 109.016 7.53867 109.123 7.432L109.283 6.344L112.131 6.312C112.088 6.568 112.024 6.888 111.939 7.272C111.853 7.63467 111.651 8.12533 111.331 8.744C111.224 9.17067 111.096 9.55467 110.947 9.896C110.819 10.2373 110.765 10.4613 110.787 10.568C110.744 10.6107 110.648 10.824 110.499 11.208C110.371 11.592 110.211 12.0613 110.019 12.616C109.848 13.1707 109.667 13.7253 109.475 14.28C109.304 14.8347 109.144 15.3253 108.995 15.752C108.867 16.1573 108.781 16.4133 108.739 16.52C108.568 16.8613 108.376 17.3627 108.163 18.024C107.949 18.6853 107.629 19.5813 107.203 20.712C107.032 21.0533 106.819 21.5653 106.563 22.248C106.328 22.9307 106.136 23.5493 105.987 24.104C105.752 24.936 105.539 25.5333 105.347 25.896C105.176 26.2587 105.016 26.472 104.867 26.536C104.717 26.6213 104.557 26.6747 104.387 26.696ZM104.675 7.88C103.8 7.96533 103.203 7.85867 102.883 7.56C102.584 7.26133 102.477 6.94133 102.563 6.6C102.627 6.344 102.776 6.13067 103.011 5.96C103.267 5.768 103.725 5.608 104.387 5.48C104.621 5.43733 104.92 5.384 105.283 5.32C105.667 5.256 106.029 5.192 106.371 5.128C107.075 5.04267 107.651 4.968 108.099 4.904C108.568 4.84 109.048 4.78667 109.539 4.744C110.029 4.70133 110.648 4.65867 111.395 4.616C112.013 4.57333 112.536 4.54133 112.963 4.52C113.411 4.47733 113.635 4.456 113.635 4.456C113.699 4.456 113.923 4.47733 114.307 4.52C114.691 4.56267 115.107 4.616 115.555 4.68C116.003 4.744 116.333 4.81867 116.547 4.904C117.037 5.01067 117.432 5.20267 117.731 5.48C118.029 5.75733 118.221 6.07733 118.307 6.44C118.371 6.696 118.371 6.89867 118.307 7.048C118.243 7.176 118.125 7.28267 117.955 7.368C117.464 7.51733 117.059 7.64533 116.739 7.752C116.44 7.83733 116.141 7.82667 115.843 7.72C115.736 7.61333 115.608 7.51733 115.459 7.432C115.331 7.34667 115.096 7.28267 114.755 7.24C114.435 7.176 113.923 7.12267 113.219 7.08C112.621 7.144 112.099 7.176 111.651 7.176C111.203 7.176 110.979 7.22933 110.979 7.336L109.091 7.432L107.523 7.592C107.309 7.61333 107.011 7.64533 106.627 7.688C106.243 7.70933 105.869 7.74133 105.507 7.784C105.144 7.80533 104.867 7.83733 104.675 7.88ZM112.968 24.328C112.883 24.1573 112.691 23.9867 112.392 23.816C112.115 23.6453 111.976 23.5173 111.976 23.432C111.976 23.3467 111.923 23.2187 111.816 23.048C111.731 22.856 111.645 22.7173 111.56 22.632C111.453 22.504 111.485 22.1947 111.656 21.704C111.827 21.192 112.083 20.5733 112.424 19.848C112.765 19.1227 113.139 18.3867 113.544 17.64C113.715 17.4693 113.885 17.2453 114.056 16.968C114.227 16.6907 114.355 16.5093 114.44 16.424C114.44 16.3387 114.472 16.264 114.536 16.2C114.6 16.1147 114.675 16.072 114.76 16.072L115.016 15.56C115.059 15.4747 115.187 15.304 115.4 15.048C115.635 14.792 115.912 14.5147 116.232 14.216C116.552 13.896 116.872 13.5973 117.192 13.32C117.533 13.0427 117.811 12.84 118.024 12.712C118.472 12.4133 118.931 12.2747 119.4 12.296C119.891 12.3173 120.307 12.4667 120.648 12.744C120.712 12.808 120.851 12.936 121.064 13.128C121.299 13.32 121.555 13.5333 121.832 13.768C122.131 14.0027 122.387 14.216 122.6 14.408L123.784 15.464L123.24 17.064C122.963 17.9173 122.888 18.664 123.016 19.304C123.144 19.944 123.347 20.4987 123.624 20.968C123.731 21.2027 123.869 21.384 124.04 21.512C124.232 21.64 124.477 21.7253 124.776 21.768C124.947 21.7893 125.107 21.8533 125.256 21.96C125.405 22.0667 125.48 22.2373 125.48 22.472C125.48 22.984 125.384 23.3573 125.192 23.592C125.021 23.8053 124.829 23.9333 124.616 23.976C123.912 24.0613 123.24 23.9867 122.6 23.752C121.96 23.5173 121.384 22.9093 120.872 21.928C120.787 21.8 120.669 21.5653 120.52 21.224C120.392 20.8613 120.317 20.6267 120.296 20.52C120.211 20.6267 120.093 20.7653 119.944 20.936C119.816 21.0853 119.688 21.224 119.56 21.352C118.045 22.888 116.744 23.8907 115.656 24.36C114.589 24.808 113.693 24.7973 112.968 24.328ZM114.728 21.672C114.877 21.6933 115.112 21.6187 115.432 21.448C115.752 21.256 116.179 20.9467 116.712 20.52C117.437 19.9013 118.035 19.3893 118.504 18.984C118.973 18.5787 119.432 18.056 119.88 17.416L120.584 16.264C120.371 15.7733 120.179 15.4533 120.008 15.304C119.837 15.1547 119.667 15.08 119.496 15.08C119.219 15.08 118.888 15.2613 118.504 15.624C118.12 15.9653 117.683 16.4773 117.192 17.16C116.723 17.8213 116.189 18.6533 115.592 19.656C115.315 20.1253 115.101 20.584 114.952 21.032C114.803 21.4587 114.728 21.672 114.728 21.672ZM129.521 24.552C129.244 24.616 128.881 24.5733 128.433 24.424C127.985 24.2533 127.548 24.0507 127.121 23.816C126.716 23.56 126.439 23.3573 126.289 23.208C126.14 23.0373 126.097 22.888 126.161 22.76C126.225 22.6107 126.332 22.536 126.481 22.536C126.567 22.536 126.705 22.4507 126.897 22.28C127.089 22.088 127.207 21.7467 127.249 21.256C127.292 20.9573 127.345 20.7013 127.409 20.488C127.495 20.2533 127.537 20.0933 127.537 20.008C127.559 19.944 127.58 19.7733 127.601 19.496C127.644 19.1973 127.708 18.9413 127.793 18.728C127.879 18.344 128.007 17.8533 128.177 17.256C128.348 16.6373 128.519 16.04 128.689 15.464C128.881 14.8667 129.031 14.408 129.137 14.088C129.18 13.8533 129.276 13.5547 129.425 13.192C129.575 12.8293 129.703 12.5413 129.809 12.328C130.023 11.7307 130.311 11.0053 130.673 10.152C131.057 9.29867 131.452 8.44533 131.857 7.592C132.263 6.71733 132.615 5.98133 132.913 5.384C133.233 4.76533 133.436 4.392 133.521 4.264C133.692 4.09333 133.969 4.02933 134.353 4.072C134.737 4.11467 135.047 4.25333 135.281 4.488C135.473 4.72267 135.655 4.968 135.825 5.224C135.996 5.48 135.953 5.75733 135.697 6.056C135.612 6.20533 135.473 6.44 135.281 6.76C135.089 7.05866 134.94 7.28267 134.833 7.432C134.663 7.944 134.449 8.44533 134.193 8.936C133.959 9.42667 133.703 9.98133 133.425 10.6C133.148 11.1973 132.849 11.944 132.529 12.84C132.337 13.2453 132.177 13.6507 132.049 14.056C131.921 14.44 131.815 14.6853 131.729 14.792C131.601 15.2613 131.463 15.6133 131.313 15.848C131.185 16.0827 131.079 16.456 130.993 16.968C130.993 16.968 131.1 16.8613 131.313 16.648C131.548 16.4347 131.825 16.168 132.145 15.848C132.977 14.952 133.724 14.2693 134.385 13.8C135.047 13.3307 135.655 13.0853 136.209 13.064C136.508 13.0427 136.828 13.1173 137.169 13.288C137.532 13.4587 137.863 13.672 138.161 13.928C138.46 14.1627 138.663 14.4187 138.769 14.696C138.94 15.08 139.025 15.5813 139.025 16.2C139.025 16.7973 138.929 17.416 138.737 18.056C138.567 18.696 138.289 19.2613 137.905 19.752C137.671 20.1573 137.383 20.552 137.041 20.936C136.721 21.2987 136.444 21.5653 136.209 21.736C135.996 21.928 135.783 22.12 135.569 22.312C135.377 22.4827 135.217 22.6213 135.089 22.728C134.812 22.92 134.588 23.0693 134.417 23.176C134.247 23.2613 134.012 23.3573 133.713 23.464C133.265 23.784 132.647 24.0187 131.857 24.168C131.068 24.3173 130.289 24.4453 129.521 24.552ZM130.321 22.12C130.471 22.12 130.737 22.088 131.121 22.024C131.527 21.96 131.9 21.8 132.241 21.544C133.244 21.032 134.044 20.4667 134.641 19.848C135.26 19.2293 135.697 18.6107 135.953 17.992C136.209 17.3733 136.316 16.8187 136.273 16.328C136.231 15.8373 135.964 15.688 135.473 15.88C135.004 16.0507 134.268 16.6373 133.265 17.64C132.796 18.0667 132.391 18.472 132.049 18.856C131.708 19.24 131.356 19.6453 130.993 20.072C130.844 20.3067 130.695 20.4987 130.545 20.648C130.417 20.776 130.343 20.9253 130.321 21.096C130.172 21.7787 130.172 22.12 130.321 22.12ZM143.868 25.224C142.737 25.224 141.905 24.8613 141.372 24.136C141.223 23.7947 141.148 23.4533 141.148 23.112C141.169 22.7493 141.255 22.4933 141.404 22.344C141.553 22.1733 141.735 22.2053 141.948 22.44C142.225 22.6107 142.62 22.696 143.132 22.696C143.388 22.696 143.612 22.696 143.804 22.696C144.017 22.6747 144.263 22.6533 144.54 22.632C145.031 22.5893 145.34 22.44 145.468 22.184C145.617 21.928 145.585 21.7147 145.372 21.544H145.404C144.828 21.3947 144.263 21.1813 143.708 20.904C143.153 20.6267 142.684 20.3173 142.3 19.976C141.916 19.6133 141.692 19.272 141.628 18.952C141.457 18.248 141.5 17.5227 141.756 16.776C142.012 16.0293 142.385 15.3787 142.876 14.824C143.068 14.696 143.335 14.5147 143.676 14.28C144.017 14.024 144.263 13.8853 144.412 13.864V13.896C144.817 13.4693 145.276 13.128 145.788 12.872C146.3 12.5947 146.897 12.3387 147.58 12.104L148.092 12.04C148.348 11.9973 148.572 11.976 148.764 11.976C148.743 11.976 148.796 11.9973 148.924 12.04C149.052 12.0827 149.159 12.1147 149.244 12.136C149.372 12.2 149.5 12.232 149.628 12.232C149.927 12.2747 150.215 12.4347 150.492 12.712C150.791 12.968 151.025 13.2773 151.196 13.64C151.388 13.9813 151.463 14.3013 151.42 14.6C151.356 15.0907 151.175 15.5813 150.876 16.072C150.577 16.5413 150.257 16.808 149.916 16.872C149.959 16.8507 149.916 16.808 149.788 16.744C149.66 16.68 149.543 16.616 149.436 16.552L149.308 16.616C149.308 16.616 149.297 16.584 149.276 16.52C149.276 16.456 149.255 16.3813 149.212 16.296C149.127 16.1467 149.063 15.9867 149.02 15.816C148.999 15.6453 148.999 15.4533 149.02 15.24C149.063 15.0053 149.073 14.8667 149.052 14.824C149.031 14.7813 148.903 14.7493 148.668 14.728C148.391 14.664 148.039 14.696 147.612 14.824C147.185 14.9307 146.791 15.1227 146.428 15.4C146.001 15.6773 145.681 15.9013 145.468 16.072C145.276 16.2427 145.127 16.4133 145.02 16.584C144.913 16.7333 144.796 16.9573 144.668 17.256C144.583 17.4053 144.508 17.544 144.444 17.672C144.38 17.7787 144.348 17.8853 144.348 17.992C144.348 18.2053 144.529 18.4293 144.892 18.664C145.255 18.8773 145.799 19.1333 146.524 19.432C147.1 19.6667 147.473 19.9867 147.644 20.392C147.836 20.7973 148.007 21.1813 148.156 21.544C148.199 21.6293 148.241 21.7893 148.284 22.024C148.348 22.2373 148.359 22.3653 148.316 22.408C148.359 22.4507 148.38 22.4933 148.38 22.536V22.504C148.551 22.824 148.519 23.1653 148.284 23.528C148.071 23.8693 147.729 24.1893 147.26 24.488C146.791 24.7653 146.257 24.968 145.66 25.096H145.692C145.372 25.1387 145.052 25.1707 144.732 25.192C144.433 25.2133 144.145 25.224 143.868 25.224Z" fill="#3B3D40"/>
<path d="M126.905 74.7207L126.209 99.0742L102.351 83.123" stroke="#3B3D40" stroke-width="2.7411" stroke-miterlimit="10" stroke-linecap="round" stroke-linejoin="round"/>
<path d="M125.282 98.4863C118.58 84.285 98.4388 49.3997 70.7446 45.233" stroke="#3B3D40" stroke-width="2.7411" stroke-miterlimit="10" stroke-linecap="round" stroke-linejoin="round"/>
</svg>
