<svg width="160" height="101" viewBox="0 0 160 101" fill="none" xmlns="http://www.w3.org/2000/svg">
<path d="M7.07207 27.112C6.75207 26.984 6.37874 26.8027 5.95207 26.568C5.5254 26.3547 5.12007 26.0667 4.73607 25.704C4.35207 25.3413 4.0534 24.904 3.84007 24.392C3.62674 23.7733 3.4774 23.1653 3.39207 22.568C3.32807 21.9707 3.30674 21.2773 3.32807 20.488C3.32807 19.3787 3.40274 18.4187 3.55207 17.608C3.72274 16.776 3.97874 15.9333 4.32007 15.08C4.36274 15.016 4.4374 14.8347 4.54407 14.536C4.67207 14.216 4.81074 13.8747 4.96007 13.512C5.13074 13.1493 5.25874 12.872 5.34407 12.68C5.51474 12.3173 5.77074 11.8373 6.11207 11.24C6.47474 10.6213 6.85874 10.024 7.26407 9.44796C7.88274 8.53063 8.4054 7.78396 8.83207 7.20796C9.25874 6.61063 9.66407 6.10929 10.0481 5.70396C10.4534 5.29863 10.8908 4.90396 11.3601 4.51996C11.8508 4.13596 12.4588 3.69862 13.1841 3.20796C13.6534 2.86663 14.2508 2.65329 14.9761 2.56796C15.7228 2.48263 16.4481 2.59996 17.1521 2.91996C17.8561 3.21862 18.3788 3.79463 18.7201 4.64796C18.9548 5.09596 19.0614 5.66129 19.0401 6.34396C19.0188 7.00529 18.8908 7.71996 18.6561 8.48796C18.4214 9.23463 18.1228 9.93863 17.7601 10.6C17.3974 11.2613 16.9921 11.7947 16.5441 12.2C16.2668 12.456 15.8934 12.4987 15.4241 12.328C14.9761 12.1573 14.6028 11.9333 14.3041 11.656C14.1121 11.2933 14.0054 11.08 13.9841 11.016C13.9841 10.952 14.0268 10.9093 14.1121 10.888C14.2401 10.7387 14.4108 10.4827 14.6241 10.12C14.8374 9.75729 15.0508 9.37329 15.2641 8.96796C15.4774 8.54129 15.6268 8.19996 15.7121 7.94396C15.8828 7.04796 16.0001 6.46129 16.0641 6.18396C16.1281 5.88529 16.0641 5.63996 15.8721 5.44796C15.7868 5.36263 15.6588 5.33063 15.4881 5.35196C15.3388 5.37329 15.0828 5.47996 14.7201 5.67196C14.2294 5.88529 13.6428 6.32263 12.9601 6.98396C12.2988 7.62396 11.6374 8.39196 10.9761 9.28796C10.1228 10.4187 9.40807 11.4213 8.83207 12.296C8.25607 13.1707 7.81874 14.0667 7.52007 14.984C7.4774 15.0693 7.40274 15.2293 7.29607 15.464C7.21074 15.6987 7.16807 15.816 7.16807 15.816C7.1894 15.9013 7.1574 16.1147 7.07207 16.456C6.98674 16.776 6.89074 17.0533 6.78407 17.288C6.5494 18.2693 6.41074 19.2187 6.36807 20.136C6.3254 21.032 6.37874 21.8213 6.52807 22.504C6.69874 23.1653 6.94407 23.656 7.26407 23.976C7.5414 24.168 7.8934 24.232 8.32007 24.168C8.74674 24.104 9.2374 23.9547 9.79207 23.72C10.3468 23.4853 10.9441 23.2293 11.5841 22.952C12.0961 22.7387 12.5654 22.504 12.9921 22.248C13.4188 21.992 13.7388 21.768 13.9521 21.576C14.1228 21.448 14.3361 21.32 14.5921 21.192C14.8694 21.0427 15.1041 20.968 15.2961 20.968C15.5948 20.8613 15.8188 20.9467 15.9681 21.224C16.1174 21.5013 16.1921 21.8533 16.1921 22.28C16.1921 22.5787 15.9788 22.9413 15.5521 23.368C15.1254 23.7947 14.6561 24.1573 14.1441 24.456C13.9734 24.6267 13.7388 24.7867 13.4401 24.936C13.1628 25.064 12.8748 25.1813 12.5761 25.288C12.1281 25.6293 11.5734 25.96 10.9121 26.28C10.2508 26.6 9.57874 26.8453 8.89607 27.016C8.23474 27.1867 7.62674 27.2187 7.07207 27.112ZM19.9504 25.352C19.545 25.4587 19.1824 25.3413 18.8624 25C18.5424 24.68 18.3184 24.2 18.1904 23.56C18.0624 22.92 18.0837 22.2053 18.2544 21.416C18.361 21.16 18.4464 20.9147 18.5104 20.68C18.5744 20.424 18.6064 20.2213 18.6064 20.072C18.649 19.8587 18.7344 19.5493 18.8624 19.144C18.9904 18.7173 19.129 18.28 19.2784 17.832C19.4277 17.384 19.5664 16.9893 19.6944 16.648C19.8437 16.2853 19.9397 16.0613 19.9824 15.976C20.0677 15.976 20.1424 15.9013 20.2064 15.752C20.2704 15.6027 20.3024 15.4533 20.3024 15.304C20.3024 15.1333 20.3344 14.9413 20.3984 14.728C20.4837 14.5147 20.569 14.3653 20.6544 14.28C20.6544 14.1733 20.6757 14.056 20.7184 13.928C20.7824 13.7787 20.8144 13.6613 20.8144 13.576C20.8144 13.4907 20.8357 13.4053 20.8784 13.32C20.9424 13.2347 20.9744 13.1493 20.9744 13.064C21.1237 12.7867 21.3157 12.3493 21.5504 11.752C21.8064 11.1333 22.073 10.4507 22.3504 9.70396C22.649 8.95729 22.9264 8.22129 23.1824 7.49596C23.4384 6.77063 23.641 6.16263 23.7904 5.67196C23.961 5.15996 24.0464 4.85063 24.0464 4.74396C24.0464 4.57329 24.1104 4.41329 24.2384 4.26396C24.3664 4.11463 24.5157 4.03996 24.6864 4.03996C24.7504 3.97596 24.8997 3.93329 25.1344 3.91196C25.369 3.86929 25.529 3.84796 25.6144 3.84796C25.6144 3.84796 25.657 3.89063 25.7424 3.97596C25.8277 4.06129 25.9557 4.18929 26.1264 4.35996C26.297 4.50929 26.457 4.67996 26.6064 4.87196C26.777 5.06396 26.8624 5.28796 26.8624 5.54396C26.8624 5.82129 26.8197 6.08796 26.7344 6.34396C26.6704 6.59996 26.5424 6.95196 26.3504 7.39996C26.1584 7.82663 25.8597 8.46663 25.4544 9.31996C25.2837 9.74663 25.1024 10.152 24.9104 10.536C24.7184 10.8987 24.6224 11.1227 24.6224 11.208C24.6224 11.2933 24.5797 11.4213 24.4944 11.592C24.4304 11.7627 24.3557 11.976 24.2704 12.232C24.185 12.4027 24.0677 12.6587 23.9184 13C23.769 13.32 23.609 13.672 23.4384 14.056C23.289 14.4187 23.161 14.7387 23.0544 15.016C22.9477 15.272 22.8944 15.4213 22.8944 15.464C22.8944 15.5493 22.8837 15.6347 22.8624 15.72C22.8624 15.8053 22.8197 15.8907 22.7344 15.976C22.649 15.976 22.5957 16.04 22.5744 16.168C22.5744 16.2747 22.5744 16.328 22.5744 16.328C22.5744 16.5413 22.4037 17.1067 22.0624 18.024C21.721 19.1973 21.401 20.2747 21.1024 21.256C20.825 22.2373 20.6864 23.0267 20.6864 23.624C20.6864 24.136 20.601 24.5307 20.4304 24.808C20.281 25.0853 20.121 25.2667 19.9504 25.352ZM24.3899 24.456C24.2192 24.2853 24.0912 24.0293 24.0059 23.688C23.9419 23.3467 23.9205 23.016 23.9419 22.696C23.9632 22.3547 24.0165 22.0987 24.1019 21.928C24.1019 21.7573 24.1232 21.6293 24.1659 21.544C24.2299 21.4373 24.2512 21.3413 24.2299 21.256C24.2085 21.1707 24.2299 21.0213 24.2939 20.808C24.3579 20.5947 24.4219 20.392 24.4859 20.2C24.6352 19.8587 24.8059 19.4213 24.9979 18.888C25.1899 18.3333 25.3819 17.7787 25.5739 17.224C25.7659 16.648 25.9259 16.1573 26.0539 15.752C26.1819 15.3253 26.2565 15.0693 26.2779 14.984C26.2779 14.728 26.4485 14.5893 26.7899 14.568C27.0459 14.4827 27.3552 14.5893 27.7179 14.888C28.0805 15.1867 28.3685 15.5067 28.5819 15.848C28.7525 16.0187 28.8165 16.2427 28.7739 16.52C28.7312 16.7973 28.5925 17.192 28.3579 17.704C28.2725 17.8747 28.1659 18.1627 28.0379 18.568C27.9312 18.952 27.8565 19.272 27.8139 19.528C27.7285 19.6987 27.6219 19.944 27.4939 20.264C27.3872 20.5627 27.2912 20.8507 27.2059 21.128C27.1632 21.2347 27.1205 21.4373 27.0779 21.736C27.0352 22.0133 26.9819 22.3013 26.9179 22.6C26.8539 22.8987 26.7685 23.1333 26.6619 23.304C26.4699 24.1787 26.1285 24.6907 25.6379 24.84C25.1685 24.9893 24.7525 24.8613 24.3899 24.456ZM27.8459 11.624C27.6112 11.4533 27.4299 11.2507 27.3019 11.016C27.1952 10.76 27.1312 10.536 27.1099 10.344C27.1099 10.152 27.1312 10.0347 27.1739 9.99196C27.3872 9.75729 27.5685 9.44796 27.7179 9.06396C27.8885 8.67996 28.0699 8.32796 28.2619 8.00796C28.3045 7.94396 28.3579 7.85863 28.4219 7.75196C28.5072 7.62396 28.5925 7.54929 28.6779 7.52796C28.9339 7.35729 29.2859 7.36796 29.7339 7.55996C30.2032 7.75196 30.5445 8.01863 30.7579 8.35996C30.9499 8.76529 31.0032 9.18129 30.9179 9.60796C30.8539 10.0347 30.6299 10.4827 30.2459 10.952C29.9259 11.3787 29.5205 11.656 29.0299 11.784C28.5392 11.8907 28.1445 11.8373 27.8459 11.624ZM33.3911 24.744C32.9218 24.744 32.5698 24.7227 32.3351 24.68C32.1218 24.6373 31.9618 24.5733 31.8551 24.488C31.7484 24.4027 31.6098 24.2853 31.4391 24.136C31.3538 23.9653 31.2044 23.752 30.9911 23.496C30.7778 23.2187 30.6284 23.0373 30.5431 22.952C30.4578 22.632 30.4258 22.1947 30.4471 21.64C30.4898 21.0853 30.5858 20.488 30.7351 19.848C30.8844 19.208 31.0658 18.632 31.2791 18.12C31.3644 17.9493 31.4391 17.7787 31.5031 17.608C31.5671 17.4373 31.5991 17.352 31.5991 17.352C31.5991 17.2453 31.7271 16.9893 31.9831 16.584C32.2604 16.1787 32.5591 15.752 32.8791 15.304C33.2204 14.856 33.4978 14.536 33.7111 14.344C33.8604 14.1733 34.0844 13.992 34.3831 13.8C34.7031 13.608 34.9804 13.4693 35.2151 13.384C35.4498 13.2987 35.7698 13.192 36.1751 13.064C36.5804 12.9147 36.9431 12.84 37.2631 12.84C37.5618 12.84 37.8818 12.904 38.2231 13.032C38.5644 13.16 38.8524 13.384 39.0871 13.704C39.4711 14.088 39.7164 14.5467 39.8231 15.08C39.9298 15.6133 39.9404 16.072 39.8551 16.456C39.7484 16.8827 39.5351 17.2347 39.2151 17.512C38.8951 17.768 38.5538 17.9067 38.1911 17.928C37.8284 17.928 37.5084 17.7787 37.2311 17.48C37.1458 17.3093 37.1031 17.1707 37.1031 17.064C37.1031 16.936 37.1458 16.7547 37.2311 16.52C37.3164 16.2213 37.3591 15.9547 37.3591 15.72C37.3591 15.4853 37.2631 15.368 37.0711 15.368C36.7938 15.368 36.5698 15.4533 36.3991 15.624C36.2284 15.7733 35.9724 16.0293 35.6311 16.392C35.4818 16.5627 35.2898 16.808 35.0551 17.128C34.8204 17.448 34.5858 17.8 34.3511 18.184C34.1378 18.5467 33.9458 18.92 33.7751 19.304C33.5404 20.008 33.3911 20.4667 33.3271 20.68C33.2844 20.872 33.2631 20.968 33.2631 20.968C33.2631 21.0533 33.2524 21.1387 33.2311 21.224C33.2098 21.288 33.1991 21.3627 33.1991 21.448C33.1991 21.704 33.3484 21.9067 33.6471 22.056C33.8818 22.2053 34.0738 22.28 34.2231 22.28C34.3938 22.2587 34.7138 22.1413 35.1831 21.928C35.5244 21.7573 35.8444 21.5333 36.1431 21.256C36.4631 20.9787 36.7938 20.7333 37.1351 20.52C37.3698 20.3707 37.5511 20.2427 37.6791 20.136C37.8284 20.0293 37.9031 20.0187 37.9031 20.104C37.9031 20.1893 37.9351 20.232 37.9991 20.232C38.0631 20.232 38.1378 20.1893 38.2231 20.104C38.3511 19.9333 38.5111 19.8693 38.7031 19.912C38.8951 19.9333 39.0658 19.9867 39.2151 20.072C39.3858 20.1573 39.4711 20.232 39.4711 20.296C39.4284 20.488 39.4711 20.648 39.5991 20.776C39.5991 20.8613 39.5671 20.9787 39.5031 21.128C39.4604 21.256 39.3964 21.3627 39.3111 21.448C39.2044 21.5973 39.0444 21.8107 38.8311 22.088C38.6391 22.3653 38.4578 22.6107 38.2871 22.824C38.1164 23.0373 38.0311 23.144 38.0311 23.144C37.9458 23.1227 37.8604 23.144 37.7751 23.208C37.7111 23.272 37.6364 23.3467 37.5511 23.432C37.3804 23.5813 37.2204 23.6987 37.0711 23.784C36.9218 23.848 36.8044 23.88 36.7191 23.88C36.5698 23.9653 36.4524 24.0187 36.3671 24.04C36.3031 24.0613 36.2711 24.1147 36.2711 24.2C36.0578 24.4133 35.6738 24.5627 35.1191 24.648C34.5644 24.712 33.9884 24.744 33.3911 24.744ZM48.6664 25.256C48.581 25.1707 48.453 25.064 48.2824 24.936C48.1117 24.7867 47.9837 24.6373 47.8984 24.488C47.8557 24.424 47.749 24.3067 47.5784 24.136C47.4077 23.944 47.237 23.7627 47.0664 23.592C46.8957 23.4 46.7784 23.2827 46.7144 23.24C46.6717 23.1333 46.597 23.016 46.4904 22.888C46.3837 22.7387 46.2664 22.5893 46.1384 22.44C46.0104 22.2693 45.861 22.1093 45.6904 21.96C45.4557 21.64 45.2637 21.3947 45.1144 21.224C44.9864 21.0533 44.8797 20.968 44.7944 20.968C44.7944 20.968 44.7304 21.1707 44.6024 21.576C44.4744 21.96 44.3357 22.408 44.1864 22.92C44.037 23.4107 43.909 23.816 43.8024 24.136C43.717 24.2853 43.6317 24.4027 43.5464 24.488C43.461 24.5733 43.3757 24.6373 43.2904 24.68C43.2264 24.7227 43.1517 24.7547 43.0664 24.776C42.981 24.776 42.8957 24.776 42.8104 24.776C42.5757 24.776 42.277 24.6693 41.9144 24.456C41.5517 24.2427 41.3704 23.9333 41.3704 23.528C41.285 23.2293 41.3917 22.5787 41.6904 21.576C41.989 20.5733 42.4477 19.2933 43.0664 17.736C43.1517 17.416 43.2584 17.0853 43.3864 16.744C43.5144 16.3813 43.621 16.0827 43.7064 15.848C44.0264 14.8027 44.3784 13.8427 44.7624 12.968C45.1464 12.072 45.573 11.08 46.0424 9.99196C46.2344 9.60796 46.373 9.33063 46.4584 9.15996C46.5437 8.96796 46.6397 8.77596 46.7464 8.58396C46.853 8.37063 47.013 8.06129 47.2264 7.65596C47.6957 6.78129 48.069 6.09863 48.3464 5.60796C48.6237 5.11729 48.837 4.75463 48.9864 4.51996C49.1357 4.28529 49.2637 4.11463 49.3704 4.00796C49.477 3.90129 49.6477 3.82663 49.8824 3.78396C50.117 3.74129 50.3517 3.74129 50.5864 3.78396C50.8424 3.80529 51.0237 3.87996 51.1304 4.00796C51.301 4.17863 51.429 4.34929 51.5144 4.51996C51.5997 4.66929 51.5997 4.88263 51.5144 5.15996C51.4504 5.41596 51.2584 5.81063 50.9384 6.34396C50.7677 6.72796 50.629 7.00529 50.5224 7.17596C50.4157 7.34663 50.309 7.51729 50.2024 7.68796C50.0957 7.85863 49.925 8.15729 49.6904 8.58396C49.669 8.66929 49.6264 8.76529 49.5624 8.87196C49.5197 8.95729 49.4664 9.04263 49.4024 9.12796C49.3384 9.19196 49.2744 9.22396 49.2104 9.22396C49.2104 9.28796 49.1784 9.41596 49.1144 9.60796C49.0504 9.79996 48.9757 9.98129 48.8904 10.152C48.8264 10.3867 48.7197 10.6427 48.5704 10.92C48.4424 11.176 48.3464 11.3893 48.2824 11.56C48.1117 11.9653 47.877 12.456 47.5784 13.032C47.301 13.5867 47.1304 14.0347 47.0664 14.376C47.0664 14.4187 47.0984 14.4293 47.1624 14.408C47.2264 14.3653 47.301 14.312 47.3864 14.248C47.493 14.1627 47.589 14.0987 47.6744 14.056C48.165 13.672 48.6877 13.3093 49.2424 12.968C49.8184 12.6267 50.2984 12.424 50.6824 12.36C50.8957 12.296 51.0877 12.264 51.2584 12.264C51.429 12.2427 51.589 12.2427 51.7384 12.264C51.8877 12.2853 52.037 12.328 52.1864 12.392C52.421 12.5413 52.6344 12.8187 52.8264 13.224C53.0184 13.6293 53.157 14.0347 53.2424 14.44C53.2424 14.632 53.1464 14.984 52.9544 15.496C52.7837 15.9867 52.5704 16.4773 52.3144 16.968C52.0797 17.4373 51.8557 17.7573 51.6424 17.928C51.5357 17.9707 51.4397 18.0133 51.3544 18.056C51.2904 18.0987 51.237 18.1413 51.1944 18.184C51.173 18.2053 51.1624 18.216 51.1624 18.216C51.1624 18.3013 51.1197 18.408 51.0344 18.536C50.9704 18.664 50.853 18.7707 50.6824 18.856C50.597 18.9413 50.501 19.048 50.3944 19.176C50.2877 19.304 50.2344 19.4 50.2344 19.464C50.2344 19.464 50.2344 19.496 50.2344 19.56C50.2344 19.6027 50.2344 19.624 50.2344 19.624C50.149 19.624 50.0744 19.6347 50.0104 19.656C49.9677 19.656 49.829 19.7413 49.5944 19.912C49.3597 20.1467 49.189 20.2747 49.0824 20.296C48.997 20.3173 48.869 20.36 48.6984 20.424C48.613 20.5093 48.5064 20.5627 48.3784 20.584C48.2717 20.6053 48.2184 20.6587 48.2184 20.744C48.2184 20.8293 48.3037 20.9893 48.4744 21.224C48.645 21.4587 48.8477 21.7147 49.0824 21.992C49.3384 22.2693 49.5837 22.5253 49.8184 22.76C50.053 22.9947 50.2344 23.1547 50.3624 23.24C50.5117 23.304 50.6184 23.4213 50.6824 23.592C50.7464 23.7627 50.7784 23.944 50.7784 24.136C50.7997 24.328 50.789 24.5093 50.7464 24.68C50.725 24.8507 50.693 24.9787 50.6504 25.064C50.6077 25.1067 50.4584 25.16 50.2024 25.224C49.9677 25.3093 49.701 25.3627 49.4024 25.384C49.125 25.4053 48.8797 25.3627 48.6664 25.256ZM46.8104 19.144C46.917 19.0587 47.109 18.8987 47.3864 18.664C47.685 18.4293 48.005 18.1733 48.3464 17.896C48.6877 17.5973 48.997 17.3093 49.2744 17.032C49.573 16.7547 49.7864 16.5413 49.9144 16.392C50.0637 16.2427 50.2237 15.9973 50.3944 15.656C50.565 15.3147 50.597 15.0373 50.4904 14.824C50.469 14.7387 50.309 14.792 50.0104 14.984C49.7117 15.176 49.3277 15.3893 48.8584 15.624C48.4957 15.8373 48.0904 16.0827 47.6424 16.36C47.2157 16.616 46.8104 16.904 46.4264 17.224C46.0424 17.5227 45.7437 17.8533 45.5304 18.216C45.4877 18.3653 45.5304 18.536 45.6584 18.728C45.7864 18.92 45.957 19.0693 46.1704 19.176C46.3837 19.2613 46.597 19.2507 46.8104 19.144ZM64.6091 26.12C63.8198 25.544 63.1904 25.0107 62.7211 24.52C62.2731 24.008 62.0278 23.5173 61.9851 23.048C61.9424 22.664 61.9424 22.1413 61.9851 21.48C62.0491 20.8187 62.1238 20.168 62.2091 19.528C62.2944 18.888 62.3691 18.408 62.4331 18.088C62.5398 17.9813 62.5824 17.8427 62.5611 17.672C62.5611 17.48 62.5611 17.384 62.5611 17.384C62.5398 17.2773 62.6144 17 62.7851 16.552C62.9558 16.0827 63.1158 15.4853 63.2651 14.76C63.6918 13.48 64.0971 12.4133 64.4811 11.56C64.8864 10.6853 65.2811 9.93863 65.6651 9.31996C66.0491 8.70129 66.4331 8.13596 66.8171 7.62396C67.6918 6.72796 68.5131 6.01329 69.2811 5.47996C70.0704 4.94663 70.7958 4.53063 71.4571 4.23196C71.8838 3.97596 72.2784 3.77329 72.6411 3.62396C73.0038 3.47463 73.3024 3.45329 73.5371 3.55996C74.7318 3.81596 75.7451 4.33863 76.5771 5.12796C77.4091 5.91729 77.9638 7.05863 78.2411 8.55196C78.3904 9.49063 78.4758 10.344 78.4971 11.112C78.5398 11.8587 78.4864 12.6053 78.3371 13.352C78.1878 14.0773 77.9104 14.8773 77.5051 15.752C77.1211 16.6267 76.5771 17.6507 75.8731 18.824C74.9984 20.552 74.0384 22.0027 72.9931 23.176C71.9691 24.328 70.9344 25.2027 69.8891 25.8C68.8651 26.3973 67.8838 26.7173 66.9451 26.76C66.0278 26.824 65.2491 26.6107 64.6091 26.12ZM67.1691 24.008C67.6598 23.944 68.0544 23.848 68.3531 23.72C68.6731 23.592 69.0038 23.3467 69.3451 22.984C69.6864 22.6213 70.1664 22.088 70.7851 21.384C71.3398 20.744 71.7984 20.2 72.1611 19.752C72.5451 19.304 72.8651 18.8453 73.1211 18.376C73.3984 17.9067 73.6544 17.352 73.8891 16.712C74.1451 16.0507 74.4224 15.208 74.7211 14.184C74.8918 13.544 75.0091 13.0747 75.0731 12.776C75.1584 12.456 75.2118 12.1893 75.2331 11.976C75.2544 11.7627 75.2544 11.4747 75.2331 11.112C75.2331 10.728 75.2331 10.152 75.2331 9.38396C75.2118 9.02129 75.1371 8.61596 75.0091 8.16796C74.8811 7.69863 74.7318 7.36796 74.5611 7.17596C74.3478 6.94129 74.0278 6.73863 73.6011 6.56796C73.1744 6.39729 72.7264 6.41863 72.2571 6.63196C72.0011 6.73863 71.6811 6.96263 71.2971 7.30396C70.9131 7.62396 70.5184 8.00796 70.1131 8.45596C69.7078 8.90396 69.3238 9.35196 68.9611 9.79996C68.5984 10.248 68.3104 10.6533 68.0971 11.016C67.8838 11.3787 67.7771 11.6347 67.7771 11.784C67.7771 11.784 67.7664 11.8373 67.7451 11.944C67.7451 12.0507 67.7024 12.1573 67.6171 12.264C67.3398 12.5627 67.0518 13.0533 66.7531 13.736C66.4544 14.4187 66.1771 15.1973 65.9211 16.072C65.6651 16.9467 65.4518 17.8213 65.2811 18.696C65.1104 19.5707 65.0038 20.36 64.9611 21.064C64.9611 21.4053 64.9611 21.6933 64.9611 21.928C64.9611 22.1627 64.9824 22.376 65.0251 22.568C65.0891 22.7387 65.1851 22.9307 65.3131 23.144C65.4411 23.3573 65.6971 23.5707 66.0811 23.784C66.4864 23.9973 66.8491 24.072 67.1691 24.008ZM88.9574 24.232C88.488 24.1893 88.0934 24.0933 87.7734 23.944C87.4747 23.7733 87.2294 23.4427 87.0374 22.952C86.952 22.6107 86.9094 22.2587 86.9094 21.896C86.9307 21.512 86.9627 21.1493 87.0054 20.808C87.048 20.4453 87.0694 20.136 87.0694 19.88C87.0694 19.8373 87.0694 19.752 87.0694 19.624C87.0694 19.496 87.0694 19.3787 87.0694 19.272C87.0267 18.952 86.9414 18.76 86.8134 18.696C86.7067 18.6107 86.5147 18.6213 86.2374 18.728C85.7894 18.9413 85.2987 19.2293 84.7654 19.592C84.2534 19.9333 83.7094 20.3387 83.1334 20.808C82.5787 21.256 82.0027 21.736 81.4054 22.248C80.936 22.76 80.584 23.176 80.3494 23.496C80.136 23.816 79.912 23.976 79.6774 23.976C79.5067 24.0613 79.3254 24.04 79.1334 23.912C78.9414 23.784 78.7387 23.6347 78.5254 23.464C78.376 23.2933 78.1947 23.08 77.9814 22.824C77.7894 22.5467 77.672 22.3653 77.6294 22.28C77.6294 21.9387 77.6507 21.6293 77.6934 21.352C77.7574 21.0747 77.8427 20.7867 77.9494 20.488C78.0774 20.1893 78.2267 19.848 78.3974 19.464C78.4827 19.3147 78.5574 19.1653 78.6214 19.016C78.7067 18.8453 78.8027 18.664 78.9094 18.472C78.9947 18.1733 79.112 17.832 79.2614 17.448C79.432 17.064 79.592 16.7013 79.7414 16.36C79.976 15.8053 80.1574 15.3253 80.2854 14.92C80.4134 14.5147 80.52 14.0773 80.6054 13.608C80.584 13.5653 80.5947 13.5013 80.6374 13.416C80.68 13.3307 80.744 13.2773 80.8294 13.256H80.8614H80.8934C81.0427 13.1493 81.32 13.1387 81.7254 13.224C82.152 13.288 82.472 13.4053 82.6854 13.576C83.1334 13.96 83.3467 14.4613 83.3254 15.08C83.304 15.6987 82.984 16.5093 82.3654 17.512C82.216 17.8533 82.056 18.1733 81.8854 18.472C81.736 18.7493 81.6614 18.9413 81.6614 19.048C81.6614 19.048 81.7467 18.984 81.9174 18.856C82.088 18.728 82.2907 18.5787 82.5254 18.408C82.76 18.216 82.9627 18.0667 83.1334 17.96C83.24 17.8533 83.4747 17.6613 83.8374 17.384C84.2 17.0853 84.5947 16.776 85.0214 16.456C85.448 16.136 85.7894 15.8907 86.0454 15.72C86.28 15.5493 86.5787 15.3787 86.9414 15.208C87.304 15.016 87.528 14.92 87.6134 14.92C87.8267 14.92 88.0827 14.9947 88.3814 15.144C88.7014 15.2933 88.9894 15.4747 89.2454 15.688C89.5227 15.88 89.6827 16.0613 89.7254 16.232C89.7254 16.3173 89.7147 16.4347 89.6934 16.584C89.672 16.712 89.6614 16.8293 89.6614 16.936C89.64 17.2773 89.6294 17.6933 89.6294 18.184C89.6507 18.6533 89.6614 19.1333 89.6614 19.624C89.6614 20.0933 89.6187 20.52 89.5334 20.904C89.5334 20.904 89.544 20.9253 89.5654 20.968C89.5867 20.9893 89.608 21.032 89.6294 21.096C89.608 21.1173 89.5974 21.16 89.5974 21.224C89.6187 21.2667 89.6294 21.288 89.6294 21.288C89.672 21.4373 89.7147 21.5867 89.7574 21.736C89.8214 21.8853 89.896 22.056 89.9814 22.248C90.0667 22.4187 90.1627 22.6427 90.2694 22.92C90.248 23.1973 90.088 23.4747 89.7894 23.752C89.512 24.008 89.2347 24.168 88.9574 24.232ZM104.387 26.696C104.003 26.7173 103.683 26.536 103.427 26.152C103.171 25.768 103.053 25.448 103.075 25.192C103.096 24.8507 103.192 24.36 103.363 23.72C103.533 23.08 103.725 22.4293 103.939 21.768C104.152 21.1067 104.344 20.584 104.515 20.2C104.6 19.8587 104.675 19.56 104.739 19.304C104.824 19.0267 104.877 18.8453 104.899 18.76C104.963 18.6747 105.059 18.4507 105.187 18.088C105.336 17.7253 105.453 17.3733 105.539 17.032C105.581 16.8613 105.667 16.5413 105.795 16.072C105.944 15.5813 106.115 15.016 106.307 14.376C106.52 13.736 106.723 13.1067 106.915 12.488C107.128 11.8693 107.309 11.3253 107.459 10.856C107.608 10.3867 107.704 10.0773 107.747 9.92796C107.917 9.67196 108.045 9.42663 108.131 9.19196C108.216 8.95729 108.269 8.79729 108.291 8.71196C108.419 8.62663 108.493 8.51996 108.515 8.39196C108.536 8.24263 108.547 8.12529 108.547 8.03996C108.547 7.93329 108.579 7.84796 108.643 7.78396C108.728 7.71996 108.771 7.64529 108.771 7.55996C108.856 7.49596 108.909 7.48529 108.931 7.52796C108.952 7.57063 109.016 7.53863 109.123 7.43196L109.283 6.34396L112.131 6.31196C112.088 6.56796 112.024 6.88796 111.939 7.27196C111.853 7.63463 111.651 8.12529 111.331 8.74396C111.224 9.17063 111.096 9.55463 110.947 9.89596C110.819 10.2373 110.765 10.4613 110.787 10.568C110.744 10.6107 110.648 10.824 110.499 11.208C110.371 11.592 110.211 12.0613 110.019 12.616C109.848 13.1707 109.667 13.7253 109.475 14.28C109.304 14.8347 109.144 15.3253 108.995 15.752C108.867 16.1573 108.781 16.4133 108.739 16.52C108.568 16.8613 108.376 17.3627 108.163 18.024C107.949 18.6853 107.629 19.5813 107.203 20.712C107.032 21.0533 106.819 21.5653 106.563 22.248C106.328 22.9307 106.136 23.5493 105.987 24.104C105.752 24.936 105.539 25.5333 105.347 25.896C105.176 26.2587 105.016 26.472 104.867 26.536C104.717 26.6213 104.557 26.6747 104.387 26.696ZM104.675 7.87996C103.8 7.96529 103.203 7.85863 102.883 7.55996C102.584 7.26129 102.477 6.94129 102.563 6.59996C102.627 6.34396 102.776 6.13063 103.011 5.95996C103.267 5.76796 103.725 5.60796 104.387 5.47996C104.621 5.43729 104.92 5.38396 105.283 5.31996C105.667 5.25596 106.029 5.19196 106.371 5.12796C107.075 5.04263 107.651 4.96796 108.099 4.90396C108.568 4.83996 109.048 4.78663 109.539 4.74396C110.029 4.70129 110.648 4.65863 111.395 4.61596C112.013 4.57329 112.536 4.54129 112.963 4.51996C113.411 4.47729 113.635 4.45596 113.635 4.45596C113.699 4.45596 113.923 4.47729 114.307 4.51996C114.691 4.56263 115.107 4.61596 115.555 4.67996C116.003 4.74396 116.333 4.81863 116.547 4.90396C117.037 5.01063 117.432 5.20263 117.731 5.47996C118.029 5.75729 118.221 6.07729 118.307 6.43996C118.371 6.69596 118.371 6.89863 118.307 7.04796C118.243 7.17596 118.125 7.28263 117.955 7.36796C117.464 7.51729 117.059 7.64529 116.739 7.75196C116.44 7.83729 116.141 7.82663 115.843 7.71996C115.736 7.61329 115.608 7.51729 115.459 7.43196C115.331 7.34663 115.096 7.28263 114.755 7.23996C114.435 7.17596 113.923 7.12263 113.219 7.07996C112.621 7.14396 112.099 7.17596 111.651 7.17596C111.203 7.17596 110.979 7.22929 110.979 7.33596L109.091 7.43196L107.523 7.59196C107.309 7.61329 107.011 7.64529 106.627 7.68796C106.243 7.70929 105.869 7.74129 105.507 7.78396C105.144 7.80529 104.867 7.83729 104.675 7.87996ZM112.968 24.328C112.883 24.1573 112.691 23.9867 112.392 23.816C112.115 23.6453 111.976 23.5173 111.976 23.432C111.976 23.3467 111.923 23.2187 111.816 23.048C111.731 22.856 111.645 22.7173 111.56 22.632C111.453 22.504 111.485 22.1947 111.656 21.704C111.827 21.192 112.083 20.5733 112.424 19.848C112.765 19.1227 113.139 18.3867 113.544 17.64C113.715 17.4693 113.885 17.2453 114.056 16.968C114.227 16.6907 114.355 16.5093 114.44 16.424C114.44 16.3387 114.472 16.264 114.536 16.2C114.6 16.1147 114.675 16.072 114.76 16.072L115.016 15.56C115.059 15.4747 115.187 15.304 115.4 15.048C115.635 14.792 115.912 14.5147 116.232 14.216C116.552 13.896 116.872 13.5973 117.192 13.32C117.533 13.0427 117.811 12.84 118.024 12.712C118.472 12.4133 118.931 12.2747 119.4 12.296C119.891 12.3173 120.307 12.4667 120.648 12.744C120.712 12.808 120.851 12.936 121.064 13.128C121.299 13.32 121.555 13.5333 121.832 13.768C122.131 14.0027 122.387 14.216 122.6 14.408L123.784 15.464L123.24 17.064C122.963 17.9173 122.888 18.664 123.016 19.304C123.144 19.944 123.347 20.4987 123.624 20.968C123.731 21.2027 123.869 21.384 124.04 21.512C124.232 21.64 124.477 21.7253 124.776 21.768C124.947 21.7893 125.107 21.8533 125.256 21.96C125.405 22.0667 125.48 22.2373 125.48 22.472C125.48 22.984 125.384 23.3573 125.192 23.592C125.021 23.8053 124.829 23.9333 124.616 23.976C123.912 24.0613 123.24 23.9867 122.6 23.752C121.96 23.5173 121.384 22.9093 120.872 21.928C120.787 21.8 120.669 21.5653 120.52 21.224C120.392 20.8613 120.317 20.6267 120.296 20.52C120.211 20.6267 120.093 20.7653 119.944 20.936C119.816 21.0853 119.688 21.224 119.56 21.352C118.045 22.888 116.744 23.8907 115.656 24.36C114.589 24.808 113.693 24.7973 112.968 24.328ZM114.728 21.672C114.877 21.6933 115.112 21.6187 115.432 21.448C115.752 21.256 116.179 20.9467 116.712 20.52C117.437 19.9013 118.035 19.3893 118.504 18.984C118.973 18.5787 119.432 18.056 119.88 17.416L120.584 16.264C120.371 15.7733 120.179 15.4533 120.008 15.304C119.837 15.1547 119.667 15.08 119.496 15.08C119.219 15.08 118.888 15.2613 118.504 15.624C118.12 15.9653 117.683 16.4773 117.192 17.16C116.723 17.8213 116.189 18.6533 115.592 19.656C115.315 20.1253 115.101 20.584 114.952 21.032C114.803 21.4587 114.728 21.672 114.728 21.672ZM129.521 24.552C129.244 24.616 128.881 24.5733 128.433 24.424C127.985 24.2533 127.548 24.0507 127.121 23.816C126.716 23.56 126.439 23.3573 126.289 23.208C126.14 23.0373 126.097 22.888 126.161 22.76C126.225 22.6107 126.332 22.536 126.481 22.536C126.567 22.536 126.705 22.4507 126.897 22.28C127.089 22.088 127.207 21.7467 127.249 21.256C127.292 20.9573 127.345 20.7013 127.409 20.488C127.495 20.2533 127.537 20.0933 127.537 20.008C127.559 19.944 127.58 19.7733 127.601 19.496C127.644 19.1973 127.708 18.9413 127.793 18.728C127.879 18.344 128.007 17.8533 128.177 17.256C128.348 16.6373 128.519 16.04 128.689 15.464C128.881 14.8667 129.031 14.408 129.137 14.088C129.18 13.8533 129.276 13.5547 129.425 13.192C129.575 12.8293 129.703 12.5413 129.809 12.328C130.023 11.7307 130.311 11.0053 130.673 10.152C131.057 9.29863 131.452 8.44529 131.857 7.59196C132.263 6.71729 132.615 5.98129 132.913 5.38396C133.233 4.76529 133.436 4.39196 133.521 4.26396C133.692 4.09329 133.969 4.02929 134.353 4.07196C134.737 4.11463 135.047 4.25329 135.281 4.48796C135.473 4.72263 135.655 4.96796 135.825 5.22396C135.996 5.47996 135.953 5.75729 135.697 6.05596C135.612 6.20529 135.473 6.43996 135.281 6.75996C135.089 7.05862 134.94 7.28263 134.833 7.43196C134.663 7.94396 134.449 8.44529 134.193 8.93596C133.959 9.42663 133.703 9.98129 133.425 10.6C133.148 11.1973 132.849 11.944 132.529 12.84C132.337 13.2453 132.177 13.6507 132.049 14.056C131.921 14.44 131.815 14.6853 131.729 14.792C131.601 15.2613 131.463 15.6133 131.313 15.848C131.185 16.0827 131.079 16.456 130.993 16.968C130.993 16.968 131.1 16.8613 131.313 16.648C131.548 16.4347 131.825 16.168 132.145 15.848C132.977 14.952 133.724 14.2693 134.385 13.8C135.047 13.3307 135.655 13.0853 136.209 13.064C136.508 13.0427 136.828 13.1173 137.169 13.288C137.532 13.4587 137.863 13.672 138.161 13.928C138.46 14.1627 138.663 14.4187 138.769 14.696C138.94 15.08 139.025 15.5813 139.025 16.2C139.025 16.7973 138.929 17.416 138.737 18.056C138.567 18.696 138.289 19.2613 137.905 19.752C137.671 20.1573 137.383 20.552 137.041 20.936C136.721 21.2987 136.444 21.5653 136.209 21.736C135.996 21.928 135.783 22.12 135.569 22.312C135.377 22.4827 135.217 22.6213 135.089 22.728C134.812 22.92 134.588 23.0693 134.417 23.176C134.247 23.2613 134.012 23.3573 133.713 23.464C133.265 23.784 132.647 24.0187 131.857 24.168C131.068 24.3173 130.289 24.4453 129.521 24.552ZM130.321 22.12C130.471 22.12 130.737 22.088 131.121 22.024C131.527 21.96 131.9 21.8 132.241 21.544C133.244 21.032 134.044 20.4667 134.641 19.848C135.26 19.2293 135.697 18.6107 135.953 17.992C136.209 17.3733 136.316 16.8187 136.273 16.328C136.231 15.8373 135.964 15.688 135.473 15.88C135.004 16.0507 134.268 16.6373 133.265 17.64C132.796 18.0667 132.391 18.472 132.049 18.856C131.708 19.24 131.356 19.6453 130.993 20.072C130.844 20.3067 130.695 20.4987 130.545 20.648C130.417 20.776 130.343 20.9253 130.321 21.096C130.172 21.7787 130.172 22.12 130.321 22.12ZM143.868 25.224C142.737 25.224 141.905 24.8613 141.372 24.136C141.223 23.7947 141.148 23.4533 141.148 23.112C141.169 22.7493 141.255 22.4933 141.404 22.344C141.553 22.1733 141.735 22.2053 141.948 22.44C142.225 22.6107 142.62 22.696 143.132 22.696C143.388 22.696 143.612 22.696 143.804 22.696C144.017 22.6747 144.263 22.6533 144.54 22.632C145.031 22.5893 145.34 22.44 145.468 22.184C145.617 21.928 145.585 21.7147 145.372 21.544H145.404C144.828 21.3947 144.263 21.1813 143.708 20.904C143.153 20.6267 142.684 20.3173 142.3 19.976C141.916 19.6133 141.692 19.272 141.628 18.952C141.457 18.248 141.5 17.5227 141.756 16.776C142.012 16.0293 142.385 15.3787 142.876 14.824C143.068 14.696 143.335 14.5147 143.676 14.28C144.017 14.024 144.263 13.8853 144.412 13.864V13.896C144.817 13.4693 145.276 13.128 145.788 12.872C146.3 12.5947 146.897 12.3387 147.58 12.104L148.092 12.04C148.348 11.9973 148.572 11.976 148.764 11.976C148.743 11.976 148.796 11.9973 148.924 12.04C149.052 12.0827 149.159 12.1147 149.244 12.136C149.372 12.2 149.5 12.232 149.628 12.232C149.927 12.2747 150.215 12.4347 150.492 12.712C150.791 12.968 151.025 13.2773 151.196 13.64C151.388 13.9813 151.463 14.3013 151.42 14.6C151.356 15.0907 151.175 15.5813 150.876 16.072C150.577 16.5413 150.257 16.808 149.916 16.872C149.959 16.8507 149.916 16.808 149.788 16.744C149.66 16.68 149.543 16.616 149.436 16.552L149.308 16.616C149.308 16.616 149.297 16.584 149.276 16.52C149.276 16.456 149.255 16.3813 149.212 16.296C149.127 16.1467 149.063 15.9867 149.02 15.816C148.999 15.6453 148.999 15.4533 149.02 15.24C149.063 15.0053 149.073 14.8667 149.052 14.824C149.031 14.7813 148.903 14.7493 148.668 14.728C148.391 14.664 148.039 14.696 147.612 14.824C147.185 14.9307 146.791 15.1227 146.428 15.4C146.001 15.6773 145.681 15.9013 145.468 16.072C145.276 16.2427 145.127 16.4133 145.02 16.584C144.913 16.7333 144.796 16.9573 144.668 17.256C144.583 17.4053 144.508 17.544 144.444 17.672C144.38 17.7787 144.348 17.8853 144.348 17.992C144.348 18.2053 144.529 18.4293 144.892 18.664C145.255 18.8773 145.799 19.1333 146.524 19.432C147.1 19.6667 147.473 19.9867 147.644 20.392C147.836 20.7973 148.007 21.1813 148.156 21.544C148.199 21.6293 148.241 21.7893 148.284 22.024C148.348 22.2373 148.359 22.3653 148.316 22.408C148.359 22.4507 148.38 22.4933 148.38 22.536V22.504C148.551 22.824 148.519 23.1653 148.284 23.528C148.071 23.8693 147.729 24.1893 147.26 24.488C146.791 24.7653 146.257 24.968 145.66 25.096H145.692C145.372 25.1387 145.052 25.1707 144.732 25.192C144.433 25.2133 144.145 25.224 143.868 25.224Z" fill="#3B3D40"/>
<path d="M125.688 58.6097L125 79L105.503 65.7618" stroke="#8B93FE" stroke-width="2.7411" stroke-miterlimit="10" stroke-linecap="round" stroke-linejoin="round"/>
<path d="M124.242 78.5117C118.812 66.6557 102.456 37.5494 79.7548 34.1949" stroke="#8B93FE" stroke-width="2.7411" stroke-miterlimit="10" stroke-linecap="round" stroke-linejoin="round"/>
</svg>
