<svg width="143" height="37" viewBox="0 0 143 37" fill="none" xmlns="http://www.w3.org/2000/svg">
<path d="M10.62 22.6083C10.2467 23.4083 9.73333 24.0549 9.08 24.5483C8.42667 25.0416 7.56667 25.2883 6.5 25.2883C5.96667 25.2883 5.4 25.1883 4.8 24.9883C4.21333 24.7749 3.66667 24.3883 3.16 23.8283C2.65333 23.2683 2.23333 22.5016 1.9 21.5283C1.56667 20.5549 1.4 19.3083 1.4 17.7883C1.4 16.2949 1.56 15.0616 1.88 14.0883C2.2 13.1149 2.60667 12.3483 3.1 11.7883C3.60667 11.2283 4.16 10.8416 4.76 10.6283C5.36 10.4016 5.94667 10.2883 6.52 10.2883C7.04 10.2883 7.50667 10.3549 7.92 10.4883C8.34667 10.6216 8.72 10.8016 9.04 11.0283C9.36 11.2416 9.63333 11.4949 9.86 11.7883C10.1 12.0816 10.2933 12.3883 10.44 12.7083L8.94 13.2883C8.72667 12.7416 8.42667 12.3283 8.04 12.0483C7.66667 11.7683 7.16 11.6283 6.52 11.6283C6.06667 11.6283 5.63333 11.7283 5.22 11.9283C4.82 12.1149 4.46667 12.4483 4.16 12.9283C3.85333 13.3949 3.60667 14.0216 3.42 14.8083C3.24667 15.5949 3.16 16.5883 3.16 17.7883C3.16 18.9749 3.25333 19.9616 3.44 20.7483C3.62667 21.5349 3.87333 22.1616 4.18 22.6283C4.5 23.0949 4.86 23.4283 5.26 23.6283C5.67333 23.8283 6.1 23.9283 6.54 23.9283C7.27333 23.9283 7.83333 23.7483 8.22 23.3883C8.60667 23.0149 8.92 22.5483 9.16 21.9883L10.62 22.6083ZM15.0806 13.7883V23.5683H20.4606V24.9883H13.4406V13.7883H15.0806ZM24.2994 13.7883V24.9883H22.6594V13.7883H24.2994ZM36.2338 23.0683C35.9004 23.7083 35.4004 24.2416 34.7338 24.6683C34.0804 25.0816 33.2538 25.2883 32.2538 25.2883C31.7338 25.2883 31.1938 25.1949 30.6338 25.0083C30.0738 24.8216 29.5604 24.5083 29.0938 24.0683C28.6271 23.6149 28.2404 23.0083 27.9338 22.2483C27.6404 21.4883 27.4938 20.5349 27.4938 19.3883C27.4938 18.2683 27.6471 17.3283 27.9538 16.5683C28.2604 15.8083 28.6471 15.2016 29.1138 14.7483C29.5938 14.2949 30.1204 13.9749 30.6938 13.7883C31.2671 13.5883 31.8138 13.4883 32.3338 13.4883C33.2671 13.4883 34.0338 13.6883 34.6338 14.0883C35.2338 14.4749 35.7071 14.9483 36.0538 15.5083L34.6738 16.1883C34.4604 15.7749 34.1538 15.4416 33.7538 15.1883C33.3671 14.9349 32.8938 14.8083 32.3338 14.8083C31.9738 14.8083 31.6071 14.8816 31.2337 15.0283C30.8604 15.1616 30.5204 15.4083 30.2138 15.7683C29.9204 16.1149 29.6738 16.5816 29.4738 17.1683C29.2871 17.7549 29.1938 18.4949 29.1938 19.3883C29.1938 20.2683 29.2871 21.0016 29.4738 21.5883C29.6738 22.1749 29.9204 22.6483 30.2138 23.0083C30.5204 23.3549 30.8538 23.6016 31.2138 23.7483C31.5871 23.8816 31.9538 23.9483 32.3138 23.9483C32.9271 23.9483 33.4471 23.8083 33.8738 23.5283C34.3138 23.2349 34.6471 22.8349 34.8738 22.3283L36.2338 23.0683ZM45.4033 24.9883L40.7833 19.8483V24.9883H39.1633V13.7883H40.7833V18.6283L44.9233 13.7883H46.8833L42.2433 19.1283L47.4833 24.9883H45.4033ZM55.1891 17.7883C55.1891 16.3883 55.3357 15.2149 55.6291 14.2683C55.9224 13.3083 56.3091 12.5349 56.7891 11.9483C57.2691 11.3616 57.8157 10.9416 58.4291 10.6883C59.0557 10.4216 59.7024 10.2883 60.3691 10.2883C61.0357 10.2883 61.6757 10.4216 62.2891 10.6883C62.9157 10.9416 63.4691 11.3616 63.9491 11.9483C64.4291 12.5349 64.8157 13.3083 65.1091 14.2683C65.4024 15.2149 65.5491 16.3883 65.5491 17.7883C65.5491 19.1883 65.4024 20.3683 65.1091 21.3283C64.8157 22.2749 64.4291 23.0416 63.9491 23.6283C63.4691 24.2149 62.9157 24.6416 62.2891 24.9083C61.6624 25.1616 61.0224 25.2883 60.3691 25.2883C59.7024 25.2883 59.0557 25.1616 58.4291 24.9083C57.8157 24.6416 57.2691 24.2149 56.7891 23.6283C56.3091 23.0416 55.9224 22.2749 55.6291 21.3283C55.3357 20.3683 55.1891 19.1883 55.1891 17.7883ZM56.9291 17.7883C56.9291 19.8149 57.2157 21.3549 57.7891 22.4083C58.3624 23.4616 59.2224 23.9883 60.3691 23.9883C61.5157 23.9883 62.3757 23.4616 62.9491 22.4083C63.5224 21.3549 63.8091 19.8149 63.8091 17.7883C63.8091 15.7616 63.5224 14.2216 62.9491 13.1683C62.3757 12.1149 61.5157 11.5883 60.3691 11.5883C59.2224 11.5883 58.3624 12.1149 57.7891 13.1683C57.2157 14.2216 56.9291 15.7616 56.9291 17.7883ZM76.7531 13.7883V24.9883H74.4331L70.2931 15.6283V24.9883H68.7531V13.7883H71.1131L75.2531 23.0483V13.7883H76.7531Z" fill="#3B3D40"/>
<path d="M130.503 9.2975L141.121 17.5L125.654 22.1616" stroke="#3B3D40" stroke-width="2.7411" stroke-miterlimit="10" stroke-linecap="round" stroke-linejoin="round"/>
<path d="M136.213 16.4023C127.583 14.361 105.057 10.8349 93.2458 20.6507" stroke="#3B3D40" stroke-width="2.7411" stroke-miterlimit="10" stroke-linecap="round" stroke-linejoin="round"/>
</svg>
