<svg xmlns="http://www.w3.org/2000/svg" width="383" height="322" viewBox="0 0 383 322" fill="none"><g clip-path="url(#clip0_6047_27960)"><path d="M191.499 241.031C235.613 241.031 271.375 205.345 271.375 161.324C271.375 117.303 235.613 81.6172 191.499 81.6172C147.385 81.6172 111.623 117.303 111.623 161.324C111.623 205.345 147.385 241.031 191.499 241.031Z" stroke="#6F927E" stroke-width="2" stroke-miterlimit="10"></path><path d="M191.499 280.884C257.671 280.884 311.313 227.355 311.313 161.324C311.313 95.2925 257.671 41.7637 191.499 41.7637C125.328 41.7637 71.6855 95.2925 71.6855 161.324C71.6855 227.355 125.328 280.884 191.499 280.884Z" stroke="#BED1C5" stroke-width="2" stroke-miterlimit="10"></path><path d="M191.499 320.734C279.726 320.734 351.248 249.363 351.248 161.323C351.248 73.2828 279.726 1.91211 191.499 1.91211C103.272 1.91211 31.75 73.2828 31.75 161.323C31.75 249.363 103.272 320.734 191.499 320.734Z" stroke="#DFE8E2" stroke-width="2" stroke-miterlimit="10"></path><path d="M110.438 38.9267C110.438 49.3776 101.947 57.8533 91.469 57.8533C80.9907 57.8533 72.5 49.3776 72.5 38.9267C72.5 28.4758 80.9907 20 91.469 20C101.947 20 110.438 28.4758 110.438 38.9267Z" fill="white" stroke="#96B2A2" stroke-width="2"></path><path d="M304.438 86.913C304.438 97.3639 295.947 105.84 285.469 105.84C274.991 105.84 266.5 97.3639 266.5 86.913C266.5 76.4621 274.991 67.9863 285.469 67.9863C295.947 67.9863 304.438 76.4621 304.438 86.913Z" fill="white" stroke="#96B2A2" stroke-width="2"></path><path d="M150.438 260.927C150.438 271.378 141.947 279.853 131.469 279.853C120.991 279.853 112.5 271.378 112.5 260.927C112.5 250.476 120.991 242 131.469 242C141.947 242 150.438 250.476 150.438 260.927Z" fill="white" stroke="#96B2A2" stroke-width="2"></path><path d="M191.498 201.177C213.556 201.177 231.436 183.334 231.436 161.324C231.436 139.314 213.556 121.471 191.498 121.471C169.441 121.471 151.561 139.314 151.561 161.324C151.561 183.334 169.441 201.177 191.498 201.177Z" fill="#4E6D5C"></path></g><defs><clipPath id="clip0_6047_27960"><rect width="323" height="322" fill="white" transform="translate(30)"></rect></clipPath></defs></svg>