<svg viewBox="52.59999999999991 184.21052631578937 1998.7999999999995 1736.8421052631577" xmlns="http://www.w3.org/2000/svg" xmlns:xlink="http://www.w3.org/1999/xlink" xmlns:blush="http://design.blush" overflow="visible" width="1998.7999999999995px" height="1736.8421052631577px"><defs><path d="M125.448823,0.763031571 C125.448823,22.8544216 143.357433,40.7630316 165.448823,40.7630316 L165.448823,40.7630316 L285.448823,40.7630316 C307.540213,40.7630316 325.448823,22.8544216 325.448823,0.763031571 L325.448823,0.763031571 L420.448823,0.763031571 C437.017366,0.763031571 450.448823,14.1944891 450.448823,30.7630316 L450.448823,920.763032 C450.448823,937.331574 437.017366,950.763032 420.448823,950.763032 L30.4488232,950.763032 C13.8802807,950.763032 0.448823213,937.331574 0.448823213,920.763032 L0.448823213,30.7630316 C0.448823213,14.1944891 13.8802807,0.763031571 30.4488232,0.763031571 Z" id="masterspot-illustrationvideocall-path-1"/><path d="M692,2 L806,88 C910.661673,121.185409 996.986659,196.095865 1044.58606,295.038445 L1148,510 L1148,510 L1234,318 L1384,386 L1216.02543,780.887591 C1198.7309,821.544906 1151.75165,840.484186 1111.09433,823.189656 C1096.03103,816.782133 1083.29588,805.907933 1074.60749,792.034533 L908,526 L908,526 L947.927964,1010.83956 C949.287986,1027.35412 946.522835,1043.9478 939.881083,1059.12895 L936,1068 L936,1068 L122.243501,1068 C67.0150256,1068 22.2435006,1023.22847 22.2435006,968 C22.2435006,961.344215 22.9079885,954.705057 24.2270788,948.181295 L158.688266,283.183034 C174.339653,205.776718 230.279412,142.697936 305.259839,117.906021 L432,76 L432,76 L542,0 L648.914299,101.274 L692,2 Z" id="masterspot-illustrationvideocall-path-3"/><path d="M125.448823,0.763031571 C125.448823,22.8544216 143.357433,40.7630316 165.448823,40.7630316 L165.448823,40.7630316 L285.448823,40.7630316 C307.540213,40.7630316 325.448823,22.8544216 325.448823,0.763031571 L325.448823,0.763031571 L420.448823,0.763031571 C437.017366,0.763031571 450.448823,14.1944891 450.448823,30.7630316 L450.448823,920.763032 C450.448823,937.331574 437.017366,950.763032 420.448823,950.763032 L30.4488232,950.763032 C13.8802807,950.763032 0.448823213,937.331574 0.448823213,920.763032 L0.448823213,30.7630316 C0.448823213,14.1944891 13.8802807,0.763031571 30.4488232,0.763031571 Z" id="masterspot-illustrationvideocall-path-5"/><path d="M692,2 L806,88 C910.661673,121.185409 996.986659,196.095865 1044.58606,295.038445 L1148,510 L1148,510 L1234,318 L1384,386 L1215.2104,782.803615 C1197.91587,823.46093 1150.93662,842.40021 1110.2793,825.10568 C1095.4986,818.818366 1082.95278,808.227337 1074.2747,794.711035 L930,570 L930,570 C968.666667,776.666667 989.333333,909.333333 992,968 C994.666667,1026.66667 975.333333,1060 934,1068 L122.243501,1068 C67.0150256,1068 22.2435006,1023.22847 22.2435006,968 C22.2435006,961.344215 22.9079885,954.705057 24.2270788,948.181295 L158.688266,283.183034 C174.339653,205.776718 230.279412,142.697936 305.259839,117.906021 L432,76 L432,76 L542,0 L648.914299,101.274 L692,2 Z" id="masterspot-illustrationvideocall-path-7"/></defs><g id="Master/Spot Illustration/Videocall" stroke="none" stroke-width="1" fill="none" fill-rule="evenodd" blush:viewBox="63.11999999999989 184.21052631578937 1977.7599999999993 1726.3157894736846" blush:i="0"><g id="Smartphone-Left" transform="translate(472.856382, 1358.856382) rotate(-20.000000) translate(-472.856382, -1358.856382) translate(-27.143618, 858.856382)" blush:i="0.0"><g id="Smartphone" transform="translate(250.000000, 0.000000)" blush:i="0.0.0"><rect id="Rectangle" fill="#1B3968" x="0" y="0" width="500" height="1000" rx="20" blush:i="0.0.0.0"/><g id="Character" transform="translate(24.551177, 24.236968)" blush:i="0.0.0.1"><mask id="masterspot-illustrationvideocall-mask-2" fill="#ffffff" blush:i="0.0.0.1.0"><use xlink:href="#masterspot-illustrationvideocall-path-1" fill="#ffffff" blush:i="0.0.0.1.0.0"/></mask><use id="Mask" fill="#5C9970" xlink:href="#masterspot-illustrationvideocall-path-1" blush:i="0.0.0.1.1"/><g mask="url(#masterspot-illustrationvideocall-mask-2)" blush:has-customizable-colors="true" blush:i="0.0.0.1.2"><g transform="translate(-1174.551177, -2042.236968) scale(2 2)" blush:width="2800" blush:height="3600" blush:component="Master/Character/Bust" id="Master/Character/Bust" blush:i="0.0.0.1.2.0" blush:value="Bust" blush:viewBox="371.5938303341902 909 701.7994858611825 890.9999999999998"><defs blush:i="0.0.0.1.2.0.0"><path d="M346,1 L403,44 C455.330837,60.5927043 498.49333,98.0479325 522.293031,147.519222 L574,255 L574,255 L617,159 L692,193 L638.025428,319.887591 C620.730898,360.544906 573.751646,379.484186 533.09433,362.189656 C518.03103,355.782133 505.295877,344.907933 496.607485,331.034533 L454,263 L454,263 L473.56662,500.594673 C474.507448,512.019006 472.594589,523.498081 468,534 L468,534 L468,534 L122.243501,534 C67.0150256,534 22.2435006,489.228475 22.2435006,434 C22.2435006,427.344215 22.9079885,420.705057 24.2270788,414.181295 L66.6882657,204.183034 C82.3396526,126.776718 138.279412,63.6979364 213.259839,38.9060209 L216,38 L216,38 L271,0 L324.45715,50.637 L346,1 Z" id="mastercharacterbust-path-1" blush:i="0.0.0.1.2.0.0.0"/></defs><g id="Master/Character/Bust" stroke="none" stroke-width="1" fill="none" fill-rule="evenodd" blush:has-customizable-colors="true" blush:viewBox="371.5938303341902 909 701.7994858611825 890.9999999999998" blush:i="0.0.0.1.2.0.1"><g id="Head" transform="translate(560.999650, 1072.000000)" fill="#ccb2ff" blush:color="Skin-500" blush:i="0.0.0.1.2.0.1.0"><path d="M173.4931,66.499221 C182.1061,110.758221 197.9031,184.720221 112.0001,190.645221 C47.3491,195.103221 34.1221,133.336221 28.0001,98.645221 C19.0001,47.645221 36.0001,13.645221 84.0001,2.64522101 C149.3581,-12.333779 168.3391,40.016221 173.4931,66.499221" blush:i="0.0.0.1.2.0.1.0.0"/><path d="M140,217 L140,172 L66,172 L64,214 L-6.39488462e-13,246.644721 L37.2,279.966721 C78.318,316.799721 141.503,313.346721 178.363,272.252721 L201.333,246.644721 L140,217 Z" id="Neck" blush:i="0.0.0.1.2.0.1.0.1"/></g><g id="Hair" transform="translate(403.999650, 878.000000) scale(1 1)" blush:width="500" blush:height="500" blush:component="Hair" blush:i="0.0.0.1.2.0.1.1" blush:value="Curly Short" blush:viewBox="110 70 300 367.50000000000006"><g id="Hair/Curly Short" stroke="none" stroke-width="1" fill="none" fill-rule="evenodd" blush:viewBox="110 70 300 367.50000000000006" blush:i="0.0.0.1.2.0.1.1.0"><path d="M329.244224,231.007335 C373.292831,231.007335 409.0003,195.322115 409.0003,151.30228 C409.0003,107.283521 373.292831,71.5983 329.244224,71.5983 C295.311694,71.5983 266.347917,92.7847536 254.825874,122.634777 C247.165668,119.283946 238.709428,117.411265 229.812143,117.411265 C195.326692,117.411265 167.370866,145.348831 167.370866,179.811756 C167.370866,183.301264 167.670992,186.717671 168.221761,190.051302 C136.775221,192.445367 112.0003,218.68333 112.0003,250.722089 C112.0003,270.497045 121.4419,288.061763 136.059867,299.180673 C128.670742,308.511829 124.247379,320.296176 124.247379,333.11899 C124.247379,363.356019 148.774884,387.868578 179.031677,387.868578 C183.563688,387.868578 187.963385,387.308494 192.174831,386.271102 C192.337265,413.541082 214.501412,435.5983 241.826866,435.5983 C269.253438,435.5983 291.486432,413.379829 291.486432,385.971172 L291.486432,228.314416 L329.244224,231.007335 Z" id="Hair" fill="#ccb2ff" blush:color="Skin-500" blush:i="0.0.0.1.2.0.1.1.0.0"/></g></g><g id="Face" transform="translate(592.999650, 1122.000000) scale(1 1)" fill="#000" blush:width="180" blush:height="150" blush:component="Face" blush:i="0.0.0.1.2.0.1.2" blush:value="Glasses" blush:viewBox="12.599999999999994 12.5 145.80000000000004 128.5971223021583"><g id="Face/Glasses" stroke="none" stroke-width="1" fill="none" fill-rule="evenodd" blush:viewBox="12.599999999999994 12.5 145.80000000000004 128.5971223021583" blush:i="0.0.0.1.2.0.1.2.0"><path d="M139.505488,21.7624637 L147.358805,20.2375363 L147.914623,23.1292784 C150.492,36.6861902 151.956285,46.6187181 152.640849,56.8252335 C153.601715,71.1512888 152.68093,83.6925106 149.422756,94.7127057 C141.400988,121.844902 119.647922,138.009871 81.4351761,140.907001 L80.2721732,140.990729 L79.7278268,133.009271 C115.453825,130.572709 134.63761,116.504402 141.751032,92.4445228 C144.707273,82.445563 145.561191,70.815079 144.658782,57.3606006 C143.998859,47.5214545 142.57044,37.8441959 140.038812,24.5363568 L139.505488,21.7624637 Z" id="Stroke-9" fill="#000" fill-rule="nonzero" blush:i="0.0.0.1.2.0.1.2.0.0"/><path d="M134,17 C147.254834,17 158,27.745166 158,41 C158,54.254834 147.254834,65 134,65 C122.108321,65 112.236654,56.3512987 110.331981,45.0008768 L108.668019,45.0008768 C106.763346,56.3512987 96.891679,65 85,65 C73.108321,65 63.2366545,56.3512987 61.3319809,45.0008768 L27,45 C23.2145483,45 20.1309013,48.0047834 20.004059,51.7593502 L20,52 C20,54.209139 18.209139,56 16,56 C13.790861,56 12,54.209139 12,52 C12,43.8205929 18.5467864,37.1702698 26.6861718,37.0032178 L27,37 L61.3318133,37.000122 C63.2360754,25.6492086 73.1079722,17 85,17 C96.8920278,17 106.763925,25.6492086 108.668187,37.000122 L110.331813,37.000122 C112.236075,25.6492086 122.107972,17 134,17 Z M85,25 C76.163444,25 69,32.163444 69,41 C69,49.836556 76.163444,57 85,57 C93.836556,57 101,49.836556 101,41 C101,32.163444 93.836556,25 85,25 Z M134,25 C125.163444,25 118,32.163444 118,41 C118,49.836556 125.163444,57 134,57 C142.836556,57 150,49.836556 150,41 C150,32.163444 142.836556,25 134,25 Z" id="Glasses" fill="#73C8FF" transform="translate(85.000000, 41.000000) rotate(-5.000000) translate(-85.000000, -41.000000)" blush:i="0.0.0.1.2.0.1.2.0.1"/></g></g><g id="Upper Body Bust" transform="translate(100.000000, 1160.000000) scale(1 1)" blush:width="1200" blush:height="1180" blush:component="Upper Body Bust" blush:i="0.0.0.1.2.0.1.3" blush:value="Bio Suit" blush:viewBox="288 98.33333333333326 786 545.6300813008132"><g id="Upper Body Bust/Bio Suit" stroke="none" stroke-width="1" fill="none" fill-rule="evenodd" blush:viewBox="288 98.33333333333326 786 545.6300813008132" blush:i="0.0.0.1.2.0.1.3.0"><g id="Group" transform="translate(266.000000, 100.000000)" blush:i="0.0.0.1.2.0.1.3.0.0"><path d="M468,319 L491.543822,470.353142 C494.344417,488.356969 488.383732,506.616268 475.5,519.5 L457.928932,537.071068 C456.053568,538.946432 453.510029,540 450.857864,540 L124.632467,540 C69.4039917,540 24.6324667,495.228475 24.6324667,440 C24.6324667,432.711395 25.4293161,425.444634 27.0088127,418.329232 L78.1147908,188.104243 C93.4934941,118.825425 144.95152,63.1757797 212.81662,42.43 L212.81662,42.43 L212.81662,42.43 L212.81662,20 C212.81662,8.954305 221.770925,2.02906125e-15 232.81662,0 L374.29362,0 C385.339315,2.74025825e-14 394.29362,8.954305 394.29362,20 L394.29362,45.948 L394.29362,45.948 C449.398667,50.9499608 497.935223,84.2537836 522.428482,133.868963 L578.79562,248.05 L578.79562,248.05 L596.408922,239.526126 C620.702694,227.769269 649.94259,237.414164 662.473601,261.31782 L676.357292,287.801794 C689.178558,312.259129 679.745661,342.479407 655.288326,355.300673 C654.034463,355.957985 652.75325,356.561748 651.448149,357.110328 L604.140198,376.995552 C559.942952,395.573235 508.779577,380.169365 482.18561,340.278415 L468,319 L468,319 Z" id="Fill-6" fill="#FFC950" blush:i="0.0.0.1.2.0.1.3.0.0.0"/><path d="M407.228443,461.985977 C396.351808,446.725057 374.93768,443.743448 360.329327,455.456092 L342,473 L254,452 L242,540 L393,540 C399.101136,540 405.013702,537.887126 409.113207,533.353793 L427.540356,512.974483 C432.770719,507.190575 433.272559,498.530805 428.744542,492.177931 L407.228443,461.985977 Z" id="Hand" fill="#73C8FF" blush:i="0.0.0.1.2.0.1.3.0.0.1"/><path d="M182.552245,243.462198 L190.377996,245.122802 L157.715589,399.047198 L216.760886,411.31113 C244.862271,417.147572 263.436928,443.920831 259.181079,472.202901 L259.045112,473.060375 L253.945576,503.657596 L246.054424,502.342404 L251.153961,471.745184 C255.173363,447.628773 239.630083,424.630476 215.856969,419.300077 L215.134064,419.143975 L132.186589,401.916422 L133.813411,394.083578 L149.881589,397.420198 L182.552245,243.462198 Z" id="Combined-Shape" fill="#000" fill-rule="nonzero" blush:i="0.0.0.1.2.0.1.3.0.0.2"/><path d="M386.532312,513.830701 L419.999077,526.702534 L417.127244,534.169299 L383.66048,521.297466 L386.532312,513.830701 Z M399.339727,488.364412 L430.465366,514.509949 L425.319829,520.635588 L394.19419,494.490051 L399.339727,488.364412 Z" id="Combined-Shape" fill="#000" fill-rule="nonzero" blush:i="0.0.0.1.2.0.1.3.0.0.3"/><polygon id="Stroke-19" fill="#000" fill-rule="nonzero" points="460.937333 214.166331 483.846333 389.041331 475.914108 390.080469 453.005108 215.205469" blush:i="0.0.0.1.2.0.1.3.0.0.4"/><g id="Hand" transform="translate(714.500000, 232.500000) rotate(5.000000) translate(-714.500000, -232.500000) translate(624.000000, 138.000000)" blush:i="0.0.0.1.2.0.1.3.0.0.5"><path d="M33.3740333,103.432828 C30.7850333,96.1808283 30.0530333,88.2948283 31.4050333,80.5138283 L40.4980333,28.1748283 C41.1860333,24.2138283 44.6500333,21.2798283 48.7660333,21.3438283 C52.5250333,21.4028283 55.7450333,24.1378283 56.6660333,27.7828283 C59.8400333,40.3478283 61.8360333,53.1178283 63.0320333,65.3268283 L75.0390333,50.0808283 L112.528033,2.47782827 C115.027033,-0.695171727 119.288033,-0.840171727 121.998033,2.15482827 C125.360033,5.87282827 126.203033,12.5448283 123.871033,16.9818283 L99.1190333,64.0828283 L143.166033,19.3958283 C146.833033,15.6768283 152.873033,15.5758283 156.665033,19.3518283 C160.076033,22.7488283 160.233033,28.2408283 157.315033,32.0688283 L119.486033,81.7058283 L162.888033,48.3748283 C166.424033,45.6598283 171.525033,46.2708283 174.307033,49.8558283 C176.987033,53.3078283 176.273033,58.3168283 172.981033,61.1918283 L131.373033,97.5398283 L169.427033,80.8168283 C172.504033,79.4648283 176.102033,80.2338283 178.357033,82.7278283 C181.641033,86.3588283 180.811033,92.0828283 176.630033,94.6298283 L139.323033,117.364828 L43.1940333,188.682828 L42.7524859,188.482476 C16.8100472,176.711063 0.129001853,150.876957 0.0759127841,122.388828 L0.0759127841,122.388828 L0.0759127841,122.388828 L33.3740333,103.432828 Z" fill="#73C8FF" blush:i="0.0.0.1.2.0.1.3.0.0.5.0"/><path d="M62.6735815,59.6814613 L65.6756909,62.3248189 C66.418043,62.97846 67.1413432,63.6369267 67.8457512,64.3001168 C77.877343,73.7447176 83.8979502,83.932493 86.5601897,94.3882973 C88.4806628,101.930853 88.4978091,108.851429 87.3593623,114.732997 L87.2335898,115.355325 C87.0235,116.351173 86.8131845,117.139087 86.6344331,117.702316 L86.5312243,118.013158 L85.2139946,121.790049 L77.6602125,119.15559 L78.9970669,115.318065 C79.0199649,115.244681 79.0587208,115.114467 79.1095652,114.929716 C79.2415522,114.450124 79.3768159,113.875699 79.5051431,113.212721 C80.4313902,108.427442 80.4171601,102.683931 78.8075474,96.3622622 C76.5212852,87.3830887 71.2894028,78.5299547 62.3618783,70.1248175 C61.9355359,69.7234222 61.5011692,69.3235674 61.0587196,68.9252829 L60.3889758,68.3290377 L57.3868664,65.6856801 L62.6735815,59.6814613 Z M89.087992,52.7956171 L92.8095424,54.8925095 C93.2443532,55.1431246 93.8852351,55.5252998 94.7092067,56.0359921 L94.9618679,56.1930522 C96.8008722,57.3395239 98.8434867,58.6888935 101.039293,60.2347331 C107.303151,64.6444673 113.564904,69.7590923 119.421098,75.5333878 C127.301451,83.3035341 133.82799,91.6687858 138.538963,100.595327 L138.975283,101.433833 L140.800978,104.992883 L133.682878,108.644273 L131.857183,105.085223 C127.540068,96.6693438 121.364179,88.6841713 113.804217,81.2299347 C108.284788,75.7876944 102.358374,70.9469761 96.4340644,66.7762829 C94.5710168,65.4647039 92.8306946,64.306948 91.2503857,63.3086924 L90.7295936,62.9818558 C90.3328682,62.7345293 89.9670912,62.51039 89.634155,62.3097185 L88.6954412,61.7555158 L85.1633222,59.7667696 L89.087992,52.7956171 Z" id="Combined-Shape" fill="#000" fill-rule="nonzero" blush:i="0.0.0.1.2.0.1.3.0.0.5.1"/></g><path d="M125.940858,138.95632 C128.174122,140.580511 128.667872,143.707595 127.04368,145.940858 C122.108701,152.726456 119.082886,159.080665 117.902903,164.980581 C117.361344,167.688379 114.727218,169.444463 112.019419,168.902903 C109.311621,168.361344 107.555537,165.727218 108.097097,163.019419 C109.58378,155.586001 113.224633,147.940211 118.95632,140.059142 C120.580511,137.825878 123.707595,137.332128 125.940858,138.95632 Z M212.62339,67.096251 C213.674802,69.649679 212.457177,72.5719789 209.903749,73.6233905 C176.825738,87.2437481 153.335104,105.58575 139.266409,128.60725 C137.826465,130.963523 134.749023,131.706354 132.39275,130.266409 C130.036477,128.826465 129.293646,125.749023 130.733591,123.39275 C145.99823,98.41425 171.174262,78.7562519 206.096251,64.3766095 C208.649679,63.325198 211.571979,64.5428229 212.62339,67.096251 Z" id="Combined-Shape" fill="#FFE19C" fill-rule="nonzero" blush:i="0.0.0.1.2.0.1.3.0.0.6"/><path d="M600.019419,252.097097 C602.727218,251.555537 605.361344,253.311621 605.902903,256.019419 C606.444463,258.727218 604.688379,261.361344 601.980581,261.902903 C592.636152,263.771789 577.355104,270.599492 556.451306,282.357878 C554.044517,283.711697 550.995941,282.858096 549.642122,280.451306 C548.288303,278.044517 549.141904,274.995941 551.548694,273.642122 L553.858592,272.349917 C574.451271,260.894632 589.744404,254.1521 600.019419,252.097097 Z" id="Path-15" fill="#FFE19C" fill-rule="nonzero" blush:i="0.0.0.1.2.0.1.3.0.0.7"/><path d="M85.773501,498.839749 C93.3421118,503.885489 101.536378,507.667458 110.373606,510.19238 C113.028781,510.951002 114.566241,513.718431 113.80762,516.373606 C113.048998,519.028781 110.281569,520.566241 107.626394,519.80762 C97.7969554,516.999209 88.6578882,512.781178 80.226499,507.160251 C77.9288556,505.628489 77.3079862,502.524142 78.8397485,500.226499 C80.3715108,497.928856 83.4758575,497.307986 85.773501,498.839749 Z M54.2452052,393.157535 C56.9196246,393.845243 58.5301725,396.570786 57.8424647,399.245205 C46.3063055,444.108046 50.6566959,472.696326 69.8326441,485.87979 C72.1081731,487.444217 72.6846358,490.557115 71.1202096,492.832644 C69.5557835,495.108173 66.4428848,495.684636 64.1673559,494.12021 C40.6766374,477.970341 35.6936945,445.225287 48.1575353,396.754795 C48.8452432,394.080375 51.5707858,392.469827 54.2452052,393.157535 Z" id="Combined-Shape" fill="#FFE19C" fill-rule="nonzero" blush:i="0.0.0.1.2.0.1.3.0.0.8"/></g></g></g></g></g></g></g></g></g><g id="Smartphone-Right" transform="translate(1633.000000, 1359.000000) scale(-1, 1) rotate(-20.000000) translate(-1633.000000, -1359.000000) translate(1133.000000, 859.000000)" blush:i="0.1"><g id="Smartphone" transform="translate(250.000000, 0.000000)" blush:i="0.1.0"><rect id="Rectangle" fill="#1B3968" x="0" y="0" width="500" height="1000" rx="20" blush:i="0.1.0.0"/><g id="Character" transform="translate(24.551177, 24.236968)" blush:i="0.1.0.1"><mask id="masterspot-illustrationvideocall-mask-6" fill="#ffffff" blush:i="0.1.0.1.0"><use xlink:href="#masterspot-illustrationvideocall-path-5" fill="#ffffff" blush:i="0.1.0.1.0.0"/></mask><use id="Mask" fill="#A04687" xlink:href="#masterspot-illustrationvideocall-path-5" blush:i="0.1.0.1.1"/><g mask="url(#masterspot-illustrationvideocall-mask-6)" blush:has-customizable-colors="true" blush:i="0.1.0.1.2"><g transform="translate(-1174.551177, -2042.236968) scale(2 2)" blush:width="2800" blush:height="3600" blush:component="Master/Character/Bust" id="Master/Character/Bust" blush:i="0.1.0.1.2.0" blush:value="Bust" blush:viewBox="371.5938303341902 909 701.7994858611825 890.9999999999998"><defs blush:i="0.1.0.1.2.0.0"><path d="M346,1 L403,44 C455.330837,60.5927043 498.49333,98.0479325 522.293031,147.519222 L574,255 L574,255 L617,159 L692,193 L638.025428,319.887591 C620.730898,360.544906 573.751646,379.484186 533.09433,362.189656 C518.03103,355.782133 505.295877,344.907933 496.607485,331.034533 L454,263 L454,263 L473.56662,500.594673 C474.507448,512.019006 472.594589,523.498081 468,534 L468,534 L468,534 L122.243501,534 C67.0150256,534 22.2435006,489.228475 22.2435006,434 C22.2435006,427.344215 22.9079885,420.705057 24.2270788,414.181295 L66.6882657,204.183034 C82.3396526,126.776718 138.279412,63.6979364 213.259839,38.9060209 L216,38 L216,38 L271,0 L324.45715,50.637 L346,1 Z" id="mastercharacterbust-path-1" blush:i="0.1.0.1.2.0.0.0"/></defs><g id="Master/Character/Bust" stroke="none" stroke-width="1" fill="none" fill-rule="evenodd" blush:has-customizable-colors="true" blush:viewBox="371.5938303341902 909 701.7994858611825 890.9999999999998" blush:i="0.1.0.1.2.0.1"><g id="Head" transform="translate(560.999650, 1072.000000)" fill="#ccb2ff" blush:color="Skin-500" blush:i="0.1.0.1.2.0.1.0"><path d="M173.4931,66.499221 C182.1061,110.758221 197.9031,184.720221 112.0001,190.645221 C47.3491,195.103221 34.1221,133.336221 28.0001,98.645221 C19.0001,47.645221 36.0001,13.645221 84.0001,2.64522101 C149.3581,-12.333779 168.3391,40.016221 173.4931,66.499221" blush:i="0.1.0.1.2.0.1.0.0"/><path d="M140,217 L140,172 L66,172 L64,214 L-6.39488462e-13,246.644721 L37.2,279.966721 C78.318,316.799721 141.503,313.346721 178.363,272.252721 L201.333,246.644721 L140,217 Z" id="Neck" blush:i="0.1.0.1.2.0.1.0.1"/></g><g id="Hair" transform="translate(403.999650, 878.000000) scale(1 1)" blush:width="500" blush:height="500" blush:component="Hair" blush:i="0.1.0.1.2.0.1.1" blush:value="Afro Bun" blush:viewBox="0 172.5 317.5 249.99999999999994"><g id="Hair/Afro Bun" stroke="none" stroke-width="1" fill="none" fill-rule="evenodd" blush:viewBox="0 172.5 317.5 249.99999999999994" blush:i="0.1.0.1.2.0.1.1.0"><path d="M156.413451,243.033158 C154.378451,249.690158 152.758451,256.050158 151.515451,262.130158 C113.651451,246.106158 86.4224511,214.982158 86.1464511,214.664158 C75.3874511,202.064158 56.4524511,200.572158 43.8514511,211.331158 C34.4654511,219.338158 31.2464511,231.910158 34.6724511,243.012158 C18.5444511,240.467158 3.29245108,251.305158 0.456451082,267.451158 C-1.74154892,279.973158 4.17445108,292.036158 14.4164511,298.269158 C4.54445108,304.635158 -1.06854892,316.511158 1.13645108,328.795158 C3.61245108,342.587158 15.1494511,352.471158 28.5154511,353.421158 C23.6044511,362.081158 23.1014511,372.992158 28.1524511,382.414158 C35.7714511,396.630158 53.2054511,402.208158 67.5964511,395.272158 C68.7574511,403.536158 73.3334511,411.277158 80.8624511,416.208158 C92.5644511,423.871158 107.638451,422.301158 117.513451,413.287158 C119.335451,411.624158 120.981451,409.706158 122.395451,407.547158 C133.107451,391.192158 150.134451,366.729158 165.238451,347.390158 C197.045451,390.510158 262.501451,392.829158 262.501451,392.829158 C317.591451,392.829158 297.994451,237.733158 314.163451,210.996158 C332.782451,180.211158 190.097451,132.853158 156.413451,243.033158" id="Hair" fill="#ccb2ff" blush:color="Skin-500" blush:i="0.1.0.1.2.0.1.1.0.0"/></g></g><g id="Face" transform="translate(592.999650, 1122.000000) scale(1 1)" fill="#000" blush:width="180" blush:height="150" blush:component="Face" blush:i="0.1.0.1.2.0.1.2" blush:value="Joy" blush:viewBox="67.5 11.600719424460436 85.49999999999997 129.49640287769788"><g id="Face/Joy" stroke="none" stroke-width="1" fill="none" fill-rule="evenodd" blush:viewBox="67.5 11.600719424460436 85.49999999999997 129.49640287769788" blush:i="0.1.0.1.2.0.1.2.0"><path d="M138.007134,13.7702134 L145.857426,12.2297866 L147.549095,20.8795674 L148.018253,23.3396028 C150.609344,37.0644778 152.103078,47.4422921 152.719024,57.8208348 L152.76153,58.5622057 C153.98411,80.6614745 150.609705,98.5962452 141.031202,112.508343 C129.646431,129.04392 110.03365,138.785988 81.1510446,140.92809 L80.2729757,140.990675 L79.7270243,133.009325 C106.810648,131.156714 124.44055,122.497958 134.441949,107.971632 C142.846582,95.7644971 145.907418,79.4963265 144.773744,59.0041074 L144.689081,57.5786659 C144.070509,47.8319356 142.627723,37.9089558 140.153411,24.804129 L139.313239,20.428357 L138.007134,13.7702134 Z" id="Stroke" fill="#000" fill-rule="nonzero" blush:i="0.1.0.1.2.0.1.2.0.0"/><path d="M69.2960622,41.3611777 C73.6428499,31.9223266 84.1941459,28.5822275 93.4636887,33.0439982 C94.4902431,33.5381165 95.718734,34.6252244 97.1491612,36.3053218 C98.0063928,37.312193 98.1679403,38.738128 97.5576764,39.9112493 C96.9815028,41.0188383 95.7339867,41.6022219 94.5145797,41.3343114 L90.0931795,40.3629051 L90.0931795,40.3629051 C84.2789536,39.3841272 79.6261768,40.6177516 76.1348493,44.0637782 C75.701543,44.4914622 74.9916259,45.055657 74.0050979,45.7563628 C72.8378417,46.585428 71.3098349,46.7072721 70.0259468,46.0736574 C68.8492633,45.4929496 68.2893558,44.1267425 68.7200906,42.8872777 C68.9800934,42.1390909 69.1720839,41.6303909 69.2960622,41.3611777 Z" id="Eye-L" fill="#000" fill-rule="nonzero" transform="translate(84.570459, 40.088476) rotate(13.000000) translate(-84.570459, -40.088476)" blush:i="0.1.0.1.2.0.1.2.0.1"/><path d="M107.725603,39.3611777 C112.072391,29.9223266 122.623687,26.5822275 131.893229,31.0439982 C132.919784,31.5381165 134.148275,32.6252244 135.578702,34.3053218 C136.435933,35.312193 136.597481,36.738128 135.987217,37.9112493 C135.411043,39.0188383 134.163527,39.6022219 132.94412,39.3343114 L128.52272,38.3629051 L128.52272,38.3629051 C122.708494,37.3841272 118.055718,38.6177516 114.56439,42.0637782 C114.131084,42.4914622 113.421167,43.055657 112.434639,43.7563628 C111.267382,44.585428 109.739376,44.7072721 108.455487,44.0736574 C107.278804,43.4929496 106.718897,42.1267425 107.149631,40.8872777 C107.409634,40.1390909 107.601625,39.6303909 107.725603,39.3611777 Z" id="Eye-R" fill="#000" fill-rule="nonzero" transform="translate(123.000000, 38.088476) scale(-1, 1) rotate(16.000000) translate(-123.000000, -38.088476)" blush:i="0.1.0.1.2.0.1.2.0.2"/></g></g><g id="Upper Body Bust" transform="translate(100.000000, 1160.000000) scale(1 1)" blush:width="1200" blush:height="1180" blush:component="Upper Body Bust" blush:i="0.1.0.1.2.0.1.3" blush:value="Holding Baby" blush:viewBox="282 128.31300813008136 533.9999999999998 545.630081300813"><g id="Upper Body Bust/Holding Baby" stroke="none" stroke-width="1" fill="none" fill-rule="evenodd" blush:viewBox="282 128.31300813008136 533.9999999999998 545.630081300813" blush:i="0.1.0.1.2.0.1.3.0"><g id="Group-30" transform="translate(259.000000, 132.000000)" blush:i="0.1.0.1.2.0.1.3.0.0"><path d="M355,0.9995 C346.264236,27.2069819 317.937138,41.3706078 291.729656,32.6348438 C285.925372,30.7000964 280.52529,27.7168964 275.797573,23.8333863 L248,0.9995 L248,0.9995 L248.0882,0.9995 L220.001781,7.57651227 C129.75153,28.7104631 58.9088045,98.5578122 36.5,188.5 L30.7736647,211.483784 C11.7118503,287.992163 34.6354705,368.871646 91.007,424 L91.007,424 L91.007,424 C91.0023333,480.666667 91,509 91,509 C224,578 382,493 483,509 C483,509 483,480.666667 483,424 C541.796724,368.916754 566.784793,286.675653 548.570491,208.193439 L544,188.5 C523.083551,98.3747132 454.051259,27.200475 364.606966,3.54072837 L355,0.9995 L355,0.9995 Z" id="Shirt" fill="#EFEED8" blush:i="0.1.0.1.2.0.1.3.0.0.0"/><g id="Baby" transform="translate(151.474643, 69.215800)" blush:i="0.1.0.1.2.0.1.3.0.0.1"><path d="M250,182.046694 C176.441038,262.980333 86.4721026,273.588975 32.9068391,252.735403 C-35.9951215,225.911067 8.75541309,100.799435 116.472939,131.944762 C188.704114,152.831003 242.85421,83.7419757 250,182.046694" id="Baby-Body" fill="#FFD2A5" blush:i="0.1.0.1.2.0.1.3.0.0.1.0"/><path d="M194.882108,76.6068603 C182.251809,110.548949 160.032261,167.085383 227.262391,183.073805 C277.858554,195.105633 296.442749,147.895144 305.845123,121.20826 C319.668374,81.9751243 310.674515,52.7955207 274.118899,37.7685142 C224.343027,17.3069017 202.44073,56.2964206 194.882108,76.6068603" id="Baby-Color" fill="#ccb2ff" blush:color="Skin-500" blush:i="0.1.0.1.2.0.1.3.0.0.1.1"/><path d="M191.049675,74.618056 L198.557067,77.381944 L196.679342,82.4829993 C195.951892,84.4682158 195.334753,86.1726693 194.74552,87.8297558 L194.069314,89.7471164 C190.091474,101.123304 187.537471,110.232798 186.12077,119.067162 C183.807862,133.490163 184.991557,145.452491 190.350633,155.07246 C196.550636,166.201962 208.438312,174.297549 227.243711,178.942373 L227.934803,179.110766 L226.065197,186.889234 C204.820239,181.782872 190.814309,172.343408 183.361897,158.965733 C177.005515,147.555518 175.6488,133.844674 178.221692,117.800446 C179.767738,108.159503 182.540992,98.378738 186.854726,86.1466944 L187.61194,84.0177855 C187.953486,83.064999 188.308993,82.0825595 188.692761,81.029937 L191.049675,74.618056 Z" id="Stroke-8" fill="#000" fill-rule="nonzero" blush:i="0.1.0.1.2.0.1.3.0.0.1.2"/><path d="M241.262743,123 C240.455953,123 239.612878,122.889329 238.732452,122.64972 C238.288503,122.529378 237.836018,122.370355 237.395271,122.176948 C226.517472,117.396587 232.389114,103.84632 234.318582,99.3926001 C235.192605,97.3758011 237.526535,96.4528228 239.52857,97.3338964 C241.530606,98.2138955 242.446249,100.561634 241.572226,102.579508 C238.699369,109.211198 238.777273,112.193955 239.079286,113.38233 C239.269245,114.124795 239.585131,114.44499 240.550932,114.86941 C240.624568,114.901644 240.706741,114.93173 240.788914,114.954294 C242.545497,115.445331 245.114208,111.812514 248.415005,104.194451 C249.289028,102.177652 251.619757,101.254674 253.624994,102.135747 C255.628097,103.014672 256.542673,105.363485 255.66865,107.381359 C253.234405,113.000889 248.901641,122.998926 241.262743,123" id="Fill-10" fill="#000" blush:i="0.1.0.1.2.0.1.3.0.0.1.3"/><path d="M238.199935,0.214979064 L246.044358,1.78502094 L246.047684,1.77321902 L246.037076,1.86758648 C245.968633,2.4895989 245.981735,3.29719023 246.144467,4.20549331 C246.37864,5.51254053 246.887164,6.79191311 247.741851,8.00390035 C249.8018,10.9250091 253.665286,13.2361944 259.974522,14.5372431 L260.45231,14.6329215 C272.613738,16.997478 278.996687,24.4311926 280.594891,35.03485 C281.207356,39.0983886 281.105287,43.0376724 280.530065,47.8633276 L280.346457,49.3201955 L280.185324,50.528766 L272.25553,49.471234 L272.478066,47.7898561 L272.507612,47.5575131 C273.07263,43.0788798 273.192924,39.6021445 272.68424,36.2271586 C271.584992,28.9339389 267.709091,24.3214106 259.347444,22.571029 L258.925616,22.4858958 C250.413725,20.8312824 244.583348,17.4064588 241.203989,12.6143633 C238.432069,8.68364519 237.692814,4.5574432 238.085071,0.99259094 C238.113947,0.730159954 238.146009,0.51048428 238.176979,0.336681382 L238.199935,0.214979064 Z M216.191229,0.402492354 L224.101472,1.59750765 L224.068811,1.9023515 L224.059169,2.01269032 C223.817444,4.89355657 224.190808,8.33373486 225.636158,11.5102754 C227.641243,15.9169801 231.404628,19.0471626 237.712229,20.4912766 L238.146244,20.5871214 C257.355851,24.6764559 267.273459,35.9305909 265.888155,48.1522126 L265.842714,48.5228545 L257.911353,47.4771455 C258.934489,39.7169901 252.243194,31.905988 236.981357,28.5206304 L236.48065,28.4118127 C227.40809,26.4807349 221.44707,21.6202411 218.354495,14.8234885 C216.330191,10.3745453 215.779656,5.8091473 216.053406,1.78827583 L216.087182,1.34378676 C216.104704,1.13495887 216.122932,0.951159709 216.140671,0.793805297 L216.191229,0.402492354 Z" id="Combined-Shape" fill="#000" fill-rule="nonzero" blush:i="0.1.0.1.2.0.1.3.0.0.1.4"/></g><path d="M362.583097,184.2158 C361.831002,184.2158 361.109875,184.118988 360.431884,183.939506 C359.995005,183.822027 359.571399,183.676265 359.165489,183.502222 C355.32538,181.854248 349.911403,176.796109 356.733346,161.420456 C357.558439,159.561454 359.760528,158.711905 361.648508,159.523382 C363.5387,160.333772 364.403609,162.499526 363.57741,164.35744 C360.225058,171.915278 360.442944,176.036845 362.14843,176.767827 C362.224745,176.80046 362.305485,176.828742 362.384013,176.850498 C364.289688,177.354136 368.016983,172.949748 370.18368,166.305639 C370.813006,164.372668 372.917766,163.308828 374.879849,163.929945 C376.844144,164.549975 377.924728,166.617829 377.295401,168.548624 C373.487367,180.223678 367.409777,184.2158 362.583097,184.2158" id="Fill-12" fill="#000" blush:i="0.1.0.1.2.0.1.3.0.0.2"/><path d="M442.565044,305.2158 C455.899203,289.856839 467.219938,272.75742 475.612653,258.649347 C485.665597,241.751579 487.67466,217.855309 472.097066,204.081526 C461.322473,194.555368 446.207083,190.888973 441.543616,202.33891 C433.577132,221.898049 416.155081,239.292937 401.474643,251.482623 L442.565044,305.2158 Z" id="Hand" fill="#ccb2ff" blush:color="Skin-500" blush:i="0.1.0.1.2.0.1.3.0.0.3"/><path d="M398.544269,248.52303 L401.792636,244.954866 L455.391743,316.081021 L453.784074,318.449145 C439.965606,338.803978 425.530511,357.41373 408.304324,375.675346 C385.124292,400.248681 359.793701,420.813772 332.028776,436.166004 C298.745597,454.569478 263.13856,464.783766 225.175398,465.367759 C182.441064,466.025147 137.546496,454.445561 90.5238826,429.285608 L89.0983036,428.519027 L85.5792766,426.617331 L89.3826694,419.579277 L92.9016964,421.480973 C139.271567,446.539439 183.298979,458.011003 225.052347,457.368705 C261.646927,456.805766 295.980883,446.956675 328.157653,429.164975 C355.14023,414.245332 379.838095,394.19393 402.484896,370.185879 C418.493442,353.215093 432.06716,335.908854 445.013066,317.103964 L445.552,316.317 L401.187,257.445 L400.234253,258.455957 C366.56953,293.942564 327.945597,317.229748 287.78398,328.114994 L286.515211,328.454616 C249.610211,338.209489 212.993123,336.88334 183.904715,325.833194 L183.02556,325.495366 L179.297269,324.046283 L182.195435,316.5897 L185.923727,318.038783 C213.528597,328.768027 248.785278,330.152788 284.470832,320.720244 C324.869031,310.042036 363.795956,286.309382 397.523808,249.638237 L398.544269,248.52303 Z" id="Stroke-20" fill="#000" fill-rule="nonzero" blush:i="0.1.0.1.2.0.1.3.0.0.4"/><path d="M468.805304,199.91046 L476.779983,200.546461 L476.461983,204.5338 C475.494527,216.664526 471.317053,227.962339 464.973248,238.197985 C462.429355,242.302523 459.703823,245.957026 456.971583,249.123902 L456.431292,249.744041 C455.201592,251.141405 454.192628,252.190481 453.485813,252.872425 L453.201629,253.142154 L450.275275,255.86914 L444.821304,250.016432 L447.853895,247.188417 C447.982162,247.06467 448.175803,246.872962 448.428375,246.615005 L448.559542,246.480513 C449.264464,245.754976 450.056636,244.892168 450.914361,243.897999 C453.384615,241.034786 455.861576,237.713575 458.173343,233.983569 C463.757205,224.974082 467.455183,215.114717 468.42284,204.646557 L468.487304,203.8978 L468.805304,199.91046 Z M449.82958,193.889889 L457.800555,194.570736 L457.460131,198.556224 C456.524405,209.511179 453.147132,219.707985 448.108161,228.951927 C446.011914,232.797472 443.764061,236.220305 441.508915,239.185509 L441.035955,239.800906 C440.03765,241.085985 439.214499,242.056413 438.63025,242.695892 L438.377792,242.967477 L435.626115,245.870626 L429.819818,240.367272 L432.66789,237.360039 C432.767299,237.25101 432.913826,237.086422 433.103117,236.867548 L433.221788,236.72972 C433.795518,236.060524 434.44127,235.263073 435.141264,234.342678 C437.161787,231.68597 439.189604,228.598187 441.083981,225.122972 C445.493752,217.033291 448.48041,208.165118 449.412281,198.711072 L449.489156,197.875376 L449.82958,193.889889 Z" id="Combined-Shape" fill="#000" fill-rule="nonzero" blush:i="0.1.0.1.2.0.1.3.0.0.5"/></g></g></g></g></g></g></g></g></g><g id="Object" transform="translate(927.000000, 438.000000) scale(1 1)" blush:width="500" blush:height="500" blush:component="Object" blush:i="0.2" blush:value="Prescription" blush:viewBox="160 115 179.9999999999999 269.99999999999994"><g id="Object/Prescription" stroke="none" stroke-width="1" fill="none" fill-rule="evenodd" blush:viewBox="160 115 179.9999999999999 269.99999999999994" blush:i="0.2.0"><g id="Group-10" transform="translate(162.000000, 117.000000)" blush:i="0.2.0.0"><polygon id="Fill-1" fill="#FFA45A" points="19 36.0017692 19.0034999 266 159 265.998231 158.9965 36" blush:i="0.2.0.0.0"/><polygon id="Fill-2" fill="#DAE6EB" points="177 0 0 0.00359964004 0.00177 36 177 35.9964004" blush:i="0.2.0.0.1"/><polygon id="Fill-3" fill="#EDEDDD" points="159 227.99825 69.0018 228 69 88.00175 158.9982 88" blush:i="0.2.0.0.2"/><g id="Group-8" transform="translate(54.000000, 123.000000)" fill="#000" fill-rule="nonzero" blush:i="0.2.0.0.3"><path d="M60.2871749,59.7221631 L60.2871749,67.7221631 L0.27984635,67.7239362 L0.27984635,59.7239362 L60.2871749,59.7221631 Z M104.611593,30.0755319 L104.611593,38.0755319 L0.279896562,38.077305 L0.279896562,30.077305 L104.611593,30.0755319 Z M104.611593,0.430673759 L104.611593,8.43067376 L0.279896562,8.43244681 L0.279896562,0.432446809 L104.611593,0.430673759 Z" id="Combined-Shape" blush:i="0.2.0.0.3.0"/></g><path d="M23,17 L23,40 L15,40 L15,17 L23,17 Z M43,17 L43,40 L35,40 L35,17 L43,17 Z M63,17 L63,40 L55,40 L55,17 L63,17 Z M83,17 L83,40 L75,40 L75,17 L83,17 Z" id="Combined-Shape" fill="#000" fill-rule="nonzero" blush:i="0.2.0.0.4"/></g></g></g><path d="M1177,434 L1181.20035,434.034029 C1319.54335,436.27705 1431,549.122477 1431,688 C1431,828.280326 1317.28033,942 1177,942 L1180.776,941.969 L1180.75664,942.318378 C1173.58979,1076.12937 1226.74654,1160.36641 1340.64983,1196.09208 L1344.15528,1197.17047 L1341.84472,1204.82953 C1221.87071,1168.63626 1165.36516,1080.65127 1172.76395,941.969666 C1034.43728,939.703335 923,826.865453 923,688 L923,688 L931,688 L931.032957,692.06806 C933.205331,826.053794 1042.49657,934 1177,934 C1312.86205,934 1423,823.862048 1423,688 C1423,552.137952 1312.86205,442 1177,442 L1177,442 L1177,434 Z" id="Combined-Shape" fill="#000" fill-rule="nonzero" blush:i="0.3"/><path d="M927,184 C1067.28033,184 1181,297.719674 1181,438 C1181,578.280326 1067.28033,692 927,692 C909.624184,692 892.655875,690.255253 876.260711,686.931396 C858.490283,794.303325 793.44368,866.046271 681.632379,901.736067 L678.184191,902.820692 L675.815809,895.179308 C787.053452,860.702143 851.08796,790.856756 868.441982,685.210171 C756.388644,658.772997 673,558.124729 673,438 C673,297.719674 786.719674,184 927,184 Z M927,192 C791.137952,192 681,302.137952 681,438 C681,573.862048 791.137952,684 927,684 C1062.86205,684 1173,573.862048 1173,438 C1173,302.137952 1062.86205,192 927,192 Z" id="Combined-Shape" fill="#000" fill-rule="nonzero" blush:i="0.4"/><g id="Object" transform="translate(673.000000, 188.000000) scale(1 1)" blush:width="500" blush:height="500" blush:component="Object" blush:i="0.5" blush:value="Gel Soap" blush:viewBox="150 90 199.9999999999999 320"><g id="Object/Gel Soap" stroke="none" stroke-width="1" fill="none" fill-rule="evenodd" blush:viewBox="150 90 199.9999999999999 320" blush:i="0.5.0"><g id="Group" transform="translate(150.000000, 90.000000)" blush:i="0.5.0.0"><path d="M70,90 L130,90 C168.659932,90 200,121.340068 200,160 L200,310 C200,315.522847 195.522847,320 190,320 L10,320 C4.4771525,320 6.76353751e-16,315.522847 0,310 L0,160 C-4.73447626e-15,121.340068 31.3400675,90 70,90 Z" id="Rectangle" fill="#56B2CE" blush:i="0.5.0.0.0"/><path d="M80,70 L120,70 C125.522847,70 130,74.4771525 130,80 L130,90 L130,90 L70,90 L70,80 C70,74.4771525 74.4771525,70 80,70 Z" id="Rectangle" fill="#DAE6EB" blush:i="0.5.0.0.1"/><rect id="Rectangle-Copy-2" fill="#6F858E" x="90" y="30" width="20" height="40" blush:i="0.5.0.0.2"/><path d="M65,0 L180,0 C185.522847,-1.01453063e-15 190,4.4771525 190,10 C190,15.7705527 185.828099,20.6953168 180.136061,21.6439899 L134.081823,29.3196962 C131.365252,29.7724581 128.615916,30 125.861873,30 L65,30 C56.7157288,30 50,23.2842712 50,15 C50,6.71572875 56.7157288,-2.03091774e-15 65,0 Z" id="Rectangle-Copy" fill="#DAE6EB" blush:i="0.5.0.0.3"/><polygon id="Path-52" fill="#000" fill-rule="nonzero" points="114 26 114 34 86 34 86 26" blush:i="0.5.0.0.4"/><path d="M70,160 L200,160 L200,160 L200,280 L70,280 C64.4771525,280 60,275.522847 60,270 L60,170 C60,164.477153 64.4771525,160 70,160 Z" id="Rectangle" fill="#EDEDDD" blush:i="0.5.0.0.5"/><circle id="Oval" fill="#56B2CE" cx="105" cy="205" r="25" blush:i="0.5.0.0.6"/><circle id="Oval-Copy" fill="#56B2CE" cx="165" cy="205" r="25" blush:i="0.5.0.0.7"/><path d="M106.788854,193.577709 L113.291796,206.583592 C115.581512,211.163025 113.725331,216.73157 109.145898,219.021286 C107.858637,219.664917 106.439201,220 105,220 C99.8800388,220 95.7294902,215.849451 95.7294902,210.72949 C95.7294902,209.290289 96.0645736,207.870853 96.7082039,206.583592 L103.211146,193.577709 C103.705124,192.589752 104.90647,192.189303 105.894427,192.683282 C106.281482,192.876809 106.595327,193.190654 106.788854,193.577709 Z" id="Rectangle" fill="#FFF" blush:i="0.5.0.0.8"/><path d="M0,160 L10,160 C15.5228475,160 20,164.477153 20,170 L20,270 C20,275.522847 15.5228475,280 10,280 L0,280 L0,280 L0,160 Z" id="Rectangle-Copy-3" fill="#EDEDDD" blush:i="0.5.0.0.9"/><path d="M169,193 L169,201 L177,201 L177,209 L169,209 L169,217 L161,217 L161,209 L153,209 L153,201 L161,201 L161,193 L169,193 Z" id="Combined-Shape" fill="#FFF" blush:i="0.5.0.0.10"/><path d="M80.0465085,256.00027 L123.046508,256.50027 L122.953492,264.49973 L79.9534915,263.99973 L80.0465085,256.00027 Z M130,242 L130,250 L80,250 L80,242 L130,242 Z" id="Combined-Shape" fill="#000" fill-rule="nonzero" blush:i="0.5.0.0.11"/><path d="M140.046508,256.00027 L183.046508,256.50027 L182.953492,264.49973 L139.953492,263.99973 L140.046508,256.00027 Z M190,242 L190,250 L140,250 L140,242 L190,242 Z" id="Combined-Shape" fill="#000" fill-rule="nonzero" blush:i="0.5.0.0.12"/></g></g></g></g></svg>