<svg viewBox="12.477272727272748 218.75 1341.306818181818 1968.7499999999998" xmlns="http://www.w3.org/2000/svg" xmlns:blush="http://design.blush" overflow="visible" xmlns:xlink="http://www.w3.org/1999/xlink" width="1341.306818181818px" height="1968.7499999999998px"><g id="Master/Character/Sitting" stroke="none" stroke-width="1" fill="none" fill-rule="evenodd" blush:has-customizable-colors="true" blush:viewBox="191.48252279635244 75 1426.7325227963524 2424.9999999999995" blush:i="0"><g id="Sitting" transform="translate(-81.000000, 637.000000) scale(1 1)" blush:width="1534" blush:height="1856" blush:component="Sitting" blush:i="0.0" blush:value="One Leg Up 1" blush:viewBox="93.78571428571422 -83.52000000000021 1318.5714285714287 1614.7200000000005"><g id="Sitting/One Leg Up 1" stroke="none" stroke-width="1" fill="none" fill-rule="evenodd" blush:viewBox="93.78571428571422 -83.52000000000021 1318.5714285714287 1614.7200000000005" blush:i="0.0.0"><path d="M822.1619,829.317267 C824.4009,852.677317 819.8229,874.985174 808.9179,893.844835 L805.3699,899.980653 L812.1229,902.342175 C824.4129,906.640597 838.0799,908.730204 853.9059,908.730204 C870.1929,908.730204 887.1299,906.462276 900.7389,904.638673 L909.4519,903.472198 L905.1719,895.9039 C901.7299,889.821283 901.0929,882.450025 900.4179,874.646265 C900.2359,872.549762 900.0489,870.382325 899.8029,868.237547 C886.9079,752.977166 870.6079,636.212386 854.8449,523.292837 C850.6959,493.579241 846.4069,462.85286 842.2459,432.62893 L830.3099,433.089018 C827.0989,489.032548 823.9829,545.921869 820.9699,600.938327 C819.6449,625.13087 818.3189,649.324397 816.9829,673.513984 C812.2199,734.671186 813.8649,784.19122 822.1619,829.317267 M827.0329,1520.4904 C809.5039,1520.4904 791.9409,1518.66483 774.8339,1515.06491 C721.3009,1503.82773 672.6659,1477.31505 631.2819,1453.34713 C629.1689,1452.14913 627.0249,1450.95113 624.8239,1449.71963 C608.6219,1440.65481 588.4589,1429.37626 575.8229,1415.61697 C561.9609,1400.52274 559.5749,1385.48269 568.3159,1368.28408 L569.6989,1365.56296 L568.2539,1362.87238 C559.2029,1346.02647 559.8759,1325.1836 569.8899,1312.18883 L578.3059,1301.26888 L564.4689,1302.73683 C550.5169,1304.21758 536.4549,1306.22345 522.8549,1308.1633 C507.7659,1310.31596 492.1609,1312.54153 476.7929,1314.03115 L472.5219,1314.44592 L471.5399,1318.56109 C470.9929,1320.85168 470.3179,1322.24278 465.5769,1322.24278 C461.4659,1322.24278 455.9409,1321.03887 450.0939,1319.76501 C442.8369,1318.18475 434.6109,1316.39267 426.6789,1316.39267 C423.1899,1316.39267 420.0519,1316.72468 417.0839,1317.41038 L415.3569,1317.80742 L414.1279,1319.0665 C413.3419,1319.87141 412.0039,1320.3709 410.6369,1320.3709 C409.6029,1320.3709 408.6439,1320.08323 408.0029,1319.58176 L406.0649,1318.06554 L403.6059,1318.33548 C360.7629,1323.03981 323.8199,1331.29577 290.6699,1343.57234 L290.5199,1343.62849 L289.8009,1343.93883 C277.8139,1349.11211 265.4209,1354.46174 254.1339,1354.46174 C245.8829,1354.46174 239.1829,1351.65491 233.0469,1345.62845 L231.3129,1343.92701 L228.8669,1343.90336 C204.0489,1343.6748 192.7089,1314.73458 191.1409,1295.33799 L190.9439,1292.89568 L189.0519,1291.30754 C145.7999,1255.01084 120.2659,1205.16077 110.9879,1138.90713 C102.5379,1078.55878 109.0259,1014.9307 116.4869,960.647226 C133.7459,819.970686 151.7469,693.86031 197.5049,574.253232 L199.6429,568.662229 L193.9459,566.614985 C174.1829,559.513672 159.0789,551.040962 147.7699,540.712138 L146.9869,539.994913 L146.0009,539.589996 C129.7929,532.931038 121.8549,508.350327 119.8079,500.976114 L119.6439,500.381054 L119.3579,499.833283 C116.0509,493.489588 115.2879,484.665162 117.2659,475.622022 L117.4779,474.64766 L117.3549,473.657535 C116.2869,465.071528 119.8319,456.095381 123.5849,446.591168 C125.2999,442.249397 127.0719,437.761816 128.3669,433.291969 C132.8189,420.517881 137.2659,407.518183 141.5679,394.94409 C151.2199,366.733907 161.1989,337.563155 171.8299,309.186473 L173.2839,305.305775 L170.0809,302.63096 C164.6129,298.063578 166.4389,292.687348 174.3239,279.832474 C176.1869,276.796091 177.9489,273.923251 179.2889,271.092775 C189.3959,253.628156 200.2279,236.863027 211.4899,221.257478 L211.7219,220.937288 L211.9069,220.590498 C269.6959,112.661967 372.2029,53.2239364 500.5439,53.2239364 L503.1599,53.2288624 L504.6059,52.3589319 C528.6599,37.8942427 545.8309,13.0751139 557.0999,-23.5151705 L557.4599,-24.6816459 L557.3209,-25.8934405 C556.9349,-29.2657761 556.5119,-33.6873484 556.6569,-37.9778893 C557.0239,-48.8436472 561.2829,-58.539974 568.3409,-64.5812132 C581.7319,-76.0430163 602.0609,-77.0026 621.7359,-77.0026 L624.5609,-77.0026 C649.7159,-76.9257545 667.4749,-72.5583681 680.4509,-63.2511948 C695.5269,-52.4376525 703.8589,-34.9818997 705.9239,-9.88691518 C706.5409,-2.37772972 706.5199,5.40140021 706.5009,12.9243784 L706.4959,15.0238371 L706.7489,15.8573153 C708.5569,21.821709 710.6749,27.5526106 713.0429,32.8923882 L715.4789,38.3858569 L721.0189,35.9090671 C724.6019,34.308119 729.1439,33.4844927 734.9079,33.3918841 C736.5699,33.3534613 738.1909,33.3357277 739.8259,33.3357277 C753.2089,33.3357277 767.5249,34.5573743 781.3709,35.7386277 C791.8029,36.6292474 802.5909,37.5504083 813.0329,37.9592658 L813.1759,37.965177 C813.1759,37.965177 814.6179,37.9563102 815.2649,37.9563102 C840.6439,37.9563102 859.0419,41.9473507 873.1629,50.5175952 C888.3679,59.7439823 899.3009,74.5525058 907.5679,97.1204553 C951.9099,226.480017 970.1399,365.817672 986.2199,488.747826 C995.3409,553.03402 998.1149,618.93791 1000.7979,682.671407 C1003.6309,749.942753 1006.5589,819.504687 1016.9279,887.50311 L1017.7469,892.878355 L1023.2529,892.522698 C1047.4839,890.959187 1073.6689,887.590793 1101.3909,884.024373 C1143.5109,878.606764 1187.0649,873.003939 1229.1689,873.003939 C1288.0389,873.003939 1332.6749,884.587907 1365.6059,908.411985 C1388.5639,930.045966 1400.4409,959.336912 1399.9529,993.141054 C1399.2629,1040.90349 1373.9999,1093.70818 1335.5929,1127.667 L1335.4479,1127.8 C1286.9009,1173.66298 1198.2849,1213.44136 1072.0619,1246.03076 C955.9919,1275.99853 835.9319,1292.28486 774.6949,1299.3241 L759.5389,1301.0679 L771.8409,1309.96129 C776.8199,1313.56219 781.3629,1316.73158 785.7299,1319.65269 L788.5469,1321.53541 L791.6329,1320.12066 C800.4329,1316.08529 806.0219,1315.23802 809.1629,1315.23802 C811.9499,1315.23802 815.3119,1315.84293 815.4969,1318.72759 C815.6179,1320.61622 814.2739,1323.42009 811.4369,1323.77477 L796.3729,1325.65452 L808.6729,1334.42673 C816.8889,1340.2867 829.1469,1347.3486 843.3419,1355.52772 C889.7809,1382.28474 959.9609,1422.72124 947.8909,1458.23076 L947.0989,1460.56371 L948.2209,1462.76366 C951.4639,1469.12016 951.7409,1475.0215 949.0649,1480.80364 C943.3349,1493.19547 925.4099,1502.60214 910.1869,1506.42866 L909.9259,1506.49467 L909.6709,1506.58333 C883.1829,1515.81169 855.3789,1520.4904 827.0329,1520.4904" id="Skin" fill="#ffdbb4" blush:color="Skin-500" blush:i="0.0.0.0"/><path d="M707.455609,1253.82117 C707.925609,1253.09224 708.345609,1252.0678 708.574609,1251.16157 C711.786993,1255.73321 763.178061,1300.77235 814,1339 C861.203945,1374.50624 915.345151,1401.33195 936.364085,1430.933 C944.352102,1442.18256 948.411739,1475.15431 946.875609,1480.69184 C944.586478,1483.59556 930.846145,1491.56361 905.654609,1504.59597 C897.116147,1506.9055 828.585609,1525.49109 798.144609,1519.16617 C786.945609,1517.46304 706.2,1491.61982 696,1487 L609.230637,1436.64847 C607.33472,1435.81662 605.448952,1434.98953 603.574609,1434.16778 L601.037781,1433.15734 C581.686959,1425.41073 557,1409 562.054576,1385.34463 C568,1361 557.333669,1355.67954 559.776271,1339.64172 C561.890191,1325.76198 566.502941,1311.63077 573.875609,1298.1577 C602.355609,1330.19012 638.505609,1327.39262 656.715609,1287.5784 L657.133201,1286.76658 L657.54442,1285.95263 C663.498089,1274.07418 669.127481,1258.98355 683.225609,1254.31369 C691.005609,1249.05359 700.955609,1247.9602 707.455609,1253.82117 Z M447.201338,1164.47908 L448.963701,1168.52621 C457.531432,1188.12597 475.719509,1228.85417 482.945609,1244.92229 C481.335609,1241.94748 479.495609,1239.09087 477.425609,1236.39088 C471.376152,1228.50576 478.473332,1252.33269 478.528786,1277.20392 C478.580216,1300.27063 471.455909,1324.23561 469.814609,1324.63376 C467.795609,1325.12627 439.617377,1311.27442 413.201338,1315.47908 C391.873703,1318.87382 359.5369,1322.69975 327.411743,1331.47009 C301.299474,1338.59888 275.327037,1350.69094 255.520339,1354.7997 C239.428206,1358.1379 236.282732,1340.7012 225.768617,1341.77955 C216.296176,1342.75105 214.771193,1342.51727 212.425609,1340.55895 C199.275609,1329.68513 186.845609,1286.71232 188.085609,1270.56855 C199,1185 367.471338,1157.41636 447.201338,1164.47908 Z" id="Shoes" fill="#FFF" blush:i="0.0.0.1"/><path d="M281.583126,595.263693 L287.058999,596.7679 L529.635171,664.647202 C531.185138,665.66144 532.339936,666.397472 533.448657,667.071081 L534.237475,667.544525 L538.828201,670.266491 L537.760843,675.495699 C535.359689,687.259448 535.002753,699.359522 536.092919,716.254732 L536.154969,717.198317 L536.28791,719.115765 L536.48092,721.729077 L536.549572,722.620239 L537.869331,738.724914 L538.118115,741.956203 C538.312181,744.566851 538.454763,746.751155 538.581262,749.032779 L538.610185,749.561274 L538.799107,753.258383 L538.869414,754.844257 C539.525455,770.952358 538.389444,786.68516 535.446249,809.440807 L535.300045,810.565632 L534.881,813.723 L534.591346,816.485147 L533.374507,827.776254 L532.951256,831.811639 C530.198873,858.424513 528.837629,879.315165 529.188308,898.785534 L529.20727,899.757889 C529.743646,925.304349 533.665832,942.615188 540.186433,948.570194 L540.384822,948.74717 L540.557,948.893 L540.596579,948.897346 C541.238811,948.931758 542.2888,948.528074 544.326888,947.296032 L545.180356,946.767169 C545.707518,946.434529 546.707316,945.802864 547.172392,945.515986 L547.683792,945.20642 C548.631021,944.642211 549.454179,944.205295 550.315754,943.833966 C551.653994,943.2572 553.016307,942.883799 554.36765,942.771735 L554.772689,942.746014 L554.832,942.744 L555.20335,942.417432 C556.42797,941.318473 557.594309,940.103818 558.660436,938.813744 L559.11109,938.256355 L559.500778,937.753715 L562.125,934.298 L563.906913,931.213125 C565.273806,928.845223 566.512377,926.327346 567.624767,923.668454 L568.036003,922.664777 L568.396021,921.750251 L583.957106,881.458855 L582.890071,924.637616 C582.527822,939.296441 588.011473,946.898754 594.763873,946.975522 C601.86919,947.056303 609.143538,939.245997 611.245966,925.37888 L611.316406,924.898306 L626.195701,926.784883 C625.221468,935.477978 628.326142,949.21691 633.302179,956.961529 C635.462216,960.323374 637.494789,961.905809 638.948302,962.028522 C640.707022,962.177001 643.480437,960.534569 647.199011,955.746664 L647.194805,955.750693 L647.119,955.847 L647.278333,955.624457 C650.514557,950.994188 652.312605,944.776016 653.257244,935.924296 L653.323275,935.287537 L653.385046,934.656514 L658.595561,879.865473 L668.235426,934.052932 C669.180914,939.3677 670.243912,944.702991 671.424678,950.06868 L671.646805,951.067693 L671.810323,951.006668 C672.164945,950.866706 672.617526,950.654746 673.14575,950.356779 L673.376698,950.223772 L673.592148,950.09486 C676.808615,948.136074 680.609725,944.180315 682.124866,941.610484 L682.268654,941.358246 L683.992963,938.220904 L687.516643,937.588578 C688.130637,937.478396 688.785528,937.194054 689.25668,936.860683 L689.42431,936.733615 L691.957388,934.66926 L695.194052,935.118766 C742.40798,941.675797 777.182384,936.150173 799.311981,912.971843 L799.978704,912.26406 L803.428046,908.552733 L808.158643,910.367494 C829.193332,918.436866 1111.65975,882.832531 1135.23096,880.623441 L1140.45897,880.141583 L1144.82828,879.752622 C1181.82073,876.514049 1215.10312,877.000864 1247.08224,877.351422 L1249.13686,877.376516 L1251.99814,877.548251 L1254.63414,877.717292 C1281.48282,879.497489 1302.70243,882.789862 1321.90622,889.082353 C1345.98408,896.971927 1365.00467,909.250133 1378.45929,927.088904 L1379.0598,927.893422 L1379.71197,928.889534 C1397.3754,956.158632 1402.69837,989.057083 1396.56231,1023.49355 C1391.0047,1054.68368 1376.16545,1085.74 1355.39825,1110.72472 L1354.73346,1111.52003 L1353.53436,1113.02165 C1309.6016,1167.21025 1219.14099,1210.77282 1093.48411,1245.4189 L1089.66557,1246.46605 L1085.74695,1247.52896 C992.635557,1272.64624 888.017932,1291.08637 785.595251,1303.447 L782.395272,1303.8313 L776.065198,1304.58038 L754.926825,1307.05726 L768.381,1293.362 L768.31992,1293.34055 C767.387528,1293.03406 759.710372,1294.37985 745.288453,1297.37791 L740.667942,1293.53127 C738.014107,1291.30948 736.021395,1289.59808 734.13178,1287.89962 L733.242214,1287.0941 L729.686594,1283.82172 L730.330233,1279.81863 C730.332631,1279.75143 730.302843,1279.64418 730.170505,1279.4024 L730.107305,1279.29027 C719.679067,1267.09169 714.061069,1260.63847 713.253311,1259.93063 L713.051119,1259.75556 L712.757,1259.509 L712.634945,1259.41552 C710.751362,1258.00937 699.983462,1257.64503 680.331245,1258.3225 C666.778448,1235.30661 659.110096,1222.58322 657.32619,1220.15234 L656.683418,1219.27361 L650.025306,1219.22369 L652.547116,1214.98567 C656.219832,1208.8135 658.478769,1201.89106 659.427,1194.26277 L659.520422,1193.47112 L659.575,1192.957 L659.15639,1193.23584 C656.331936,1195.1517 654.683527,1197.05732 654.136566,1198.85723 L654.076213,1199.07271 L654.033547,1199.25345 L653.992822,1199.44214 L653.775555,1200.23026 C650.707629,1211.01933 644.190785,1219.49165 634.635737,1226.22044 C627.883734,1230.97529 530.815769,1264.81957 506.792123,1270.9406 L505.117216,1271.36528 L499.129646,1272.87603 L494.837724,1263.7533 C488.232845,1249.63174 479.676965,1230.77063 469.16656,1207.1628 L463.990809,1195.51015 L458.678,1183.499 L433.378,1168.649 L416.001194,1168.93882 C412.324328,1169.00382 408.945935,1169.06654 405.866156,1169.12697 L404.351152,1169.157 L394.774,1169.364 L393.048244,1169.54613 C352.974933,1173.83781 313.933824,1182.53371 276.938662,1195.52235 L275.05932,1196.18649 L273.100532,1196.88793 L272.055624,1197.22791 L270.196134,1197.84055 C244.05836,1206.52297 226.603778,1215.37091 214.077314,1227.13232 C199.530778,1240.79043 191.78266,1258.64383 190.748305,1283.43573 L190.717573,1284.22932 L190.107172,1301.30502 L177.95155,1289.29699 C141.755335,1253.54026 118.057253,1205.01052 107.952109,1149.72948 C98.6699483,1098.95065 101.359403,1044.48983 115.120293,995.411774 L115.326,994.682 L115.362182,994.187651 C116.392029,980.466948 118.878312,966.437583 122.796144,951.094163 L123.167634,949.651837 L123.547507,948.201627 C126.360115,937.552009 129.154608,928.410938 134.17688,913.198293 L134.73371,911.514281 L141.397563,891.524307 C175.926437,792.114384 221.476423,695.343234 276.965614,602.925552 L278.650146,600.126351 L281.583126,595.263693 Z" id="Pants" fill="#78E185" blush:i="0.0.0.2"/><path d="M776.0743,1292.37047 C777.9043,1290.50777 778.6743,1288.06586 776.9643,1285.1994 C770.3543,1276.75665 756.6433,1282.52995 748.1143,1284.47934 C744.8933,1281.80102 741.6943,1279.11187 738.6143,1276.27496 C739.6843,1269.63581 731.7043,1265.22186 728.4243,1260.09967 C725.2043,1256.32796 722.1743,1252.04305 718.3133,1248.88108 C708.9043,1241.54156 695.8643,1246.50615 684.9443,1246.17222 C676.5343,1235.47373 667.8743,1225.11213 659.8743,1214.06001 C669.0943,1198.56537 669.7443,1180.41113 666.6843,1163.14343 C808.1143,1109.4786 930.5343,1007.872 1083.4943,984.388713 C1088.7543,983.51203 1091.7043,977.119138 1090.3933,972.430361 C1079.7233,946.967147 926.3933,1012.66913 903.4733,1024.56838 C835.8743,1056.93671 772.5533,1097.28384 706.8543,1132.88309 C693.1543,1140.16153 678.0843,1144.07311 663.1043,1147.85565 C640.0843,1072.30329 601.1433,1003.04532 571.2843,930.201812 C573.2233,926.842835 574.8743,923.316401 576.2743,919.691464 C575.2843,959.752931 614.2443,959.191459 619.6243,921.188721 C617.4043,940.997821 632.3843,983.423377 654.0043,955.586223 C659.0743,948.592458 660.8743,939.638469 661.7333,930.605677 C662.8443,936.850814 664.1043,943.066399 665.5043,949.262283 C671.0533,961.535848 686.2043,946.612533 689.7233,940.209791 C691.7543,939.845327 693.6543,938.919392 695.0443,937.786599 C733.2743,943.09595 778.3033,942.790588 806.3543,912.609046 C853.9343,930.861787 906.5943,914.509183 954.7143,907.220892 C1052.6343,895.961915 1150.9443,878.801581 1249.7443,880.112665 C1293.8543,882.673762 1345.8933,889.795582 1373.7943,927.433857 C1409.5843,981.689711 1389.3543,1054.96664 1349.8743,1101.93321 C1254.9043,1222.17573 928.9143,1274.46151 776.0743,1292.37047 M778.7443,1335.68256 C780.4733,1335.2196 782.2143,1334.79504 783.9443,1334.39216 C811.6643,1357.47159 942.2143,1417.40126 932.2843,1453.19751 C928.7743,1457.64988 920.3743,1458.66348 915.0633,1460.10164 C905.8133,1462.60363 896.4733,1464.7717 887.0443,1466.48567 C856.5633,1472.03143 824.9943,1472.99676 794.5533,1466.67184 C783.3543,1464.96871 773.2443,1460.19128 763.0443,1455.57145 C730.0843,1441.0717 693.7843,1425.05401 660.9833,1410.67345 C619.3133,1394.15438 546.2233,1361.59791 576.2843,1306.66336 C604.7643,1338.69579 640.9143,1335.89829 659.1243,1296.08406 C665.4043,1283.99766 670.8843,1267.70514 685.6343,1262.81935 C693.4143,1257.55926 703.3643,1256.46586 709.8643,1262.32684 C710.3343,1261.59791 710.7543,1260.57347 710.9833,1259.66724 C718.3133,1270.09878 724.6343,1281.08195 733.2233,1290.61711 C730.2743,1290.77471 699.5743,1313.49854 708.6343,1313.50937 C719.5343,1307.89466 730.3643,1303.21573 742.1343,1300.19068 C750.6643,1308.77036 760.0443,1316.75015 769.7643,1324.12709 C760.3243,1330.36238 751.8443,1337.99642 745.0243,1346.28058 C744.4343,1347.01049 745.1543,1347.95613 746.0343,1347.56113 C756.6243,1342.8428 767.5143,1338.69579 778.7443,1335.68256 M919.2643,1490.47034 C813.2333,1538.09788 700.9833,1485.06347 610.5633,1428.52233 C589.6943,1416.86934 562.2443,1400.35026 566.4643,1372.91697 C581.8343,1395.40537 607.1743,1408.21086 631.4943,1419.31223 C672.3543,1437.78168 713.4833,1455.66011 754.4443,1473.903 C758.3133,1486.73705 776.8133,1487.22957 787.9943,1490.07731 C837.7643,1499.73067 891.2643,1494.93354 938.1043,1475.68591 C935.3933,1483.71397 926.5243,1487.39702 919.2643,1490.47034 M496.2233,1305.01835 C493.6043,1305.35327 490.9833,1305.65764 488.3643,1305.95414 C488.6343,1302.48681 486.5443,1299.01948 483.1843,1297.94578 C484.6943,1290.59642 485.2543,1283.00178 484.4443,1275.54604 C488.8243,1286.86412 502.9643,1283.42633 511.9443,1280.16488 C524.7743,1276.67784 537.5243,1272.92584 550.2043,1268.9256 C555.2043,1278.21549 560.5043,1287.36648 567.0143,1295.7787 C543.3133,1297.88668 519.8343,1302.07309 496.2233,1305.01835 M485.7943,1269.41812 C485.1643,1270.7489 484.2643,1272.15652 484.2443,1273.75327 C483.6043,1268.24691 482.3543,1262.80852 480.4543,1257.59767 C482.2333,1261.53782 484.0143,1265.47797 485.7943,1269.41812 M470.8343,1239.89655 C459.1743,1224.69841 437.6243,1212.27611 417.7043,1216.51177 C416.4243,1216.78856 416.3933,1218.8463 417.7043,1219.1034 C444.4643,1222.73819 467.9643,1243.96476 468.8933,1271.40888 C471.0043,1283.8302 462.3643,1296.02496 465.2743,1307.94391 C464.6943,1307.98331 464.1143,1308.01287 463.5443,1308.05227 C463.3343,1308.84916 463.1433,1309.55839 462.8933,1310.17995 C465.7843,1310.66163 466.6343,1315.31199 463.2233,1316.13942 C461.2043,1316.63194 459.0943,1316.88805 456.9443,1316.99641 C446.0343,1314.05114 434.5243,1313.37048 424.0943,1309.01662 C413.7743,1304.45688 416.3543,1291.64155 412.7143,1282.76636 C410.0443,1272.53084 406.9733,1262.33669 403.1043,1252.51586 C402.8243,1251.72685 401.7543,1251.90514 401.6643,1252.70204 C398.9343,1272.29541 399.0243,1292.22272 399.6843,1311.97173 C396.1043,1312.33718 392.5443,1312.74104 388.9733,1313.18431 C389.2043,1307.66712 372.6543,1240.45901 363.9343,1257.70701 C368.3243,1276.66898 368.8543,1296.47808 369.3243,1315.99068 C343.4343,1320.25688 317.9243,1326.61037 293.1043,1335.259 C275.6143,1340.5585 254.8133,1356.24029 237.8343,1342.06462 C224.6843,1331.19079 220.2543,1312.21799 221.4943,1296.07421 C238.5943,1200.55515 373.6543,1189.39467 453.3843,1196.45739 C460.9143,1213.83345 468.5843,1231.15041 476.3543,1248.42796 C474.7443,1245.45315 472.9043,1242.59654 470.8343,1239.89655 M198.9043,1294.21249 C197.4443,1272.52197 201.0943,1245.52111 217.1643,1229.35665 C253.9443,1198.26001 305.4443,1188.47761 351.4043,1177.21961 C372.8133,1172.9938 394.5143,1170.18645 416.3043,1168.78769 C424.0343,1168.17697 433.8543,1169.92935 439.3133,1163.6064 C442.1243,1170.26525 444.9733,1176.91425 447.8243,1183.56325 C356.3243,1171.57535 165.4243,1213.22174 218.8843,1338.56774 C207.5633,1326.30402 200.0633,1311.37184 198.9043,1294.21249 M653.4943,1222.51163 C657.7043,1233.03183 662.8543,1243.04966 669.5843,1252.20952 C661.9343,1257.21449 655.6943,1264.61114 651.2943,1272.56137 C623.0943,1346.34067 592.9343,1306.82097 555.4643,1267.23134 C587.1743,1255.26412 629.1743,1246.29929 653.4943,1222.51163 M184.1043,1279.20052 C110.7743,1206.76088 96.5443,1086.08396 123.6343,991.224872 C126.0443,956.04919 138.3443,922.528371 149.3643,889.22426 C184.4543,788.198836 230.6043,691.005206 285.9543,599.239132 C354.6243,618.102596 423.1743,637.467444 492.0043,655.71132 C501.4833,657.770048 510.9733,661.838252 520.7043,662.429274 C524.1843,664.645608 527.6743,667.0885 531.2943,669.234897 C526.0243,695.053709 530.8843,721.413307 532.1143,747.388741 C533.2333,767.838115 531.0243,787.863923 528.3133,808.096589 C525.2843,837.529503 512.8133,933.264293 537.8043,950.789091 C546.2743,954.876996 553.8443,942.770888 557.4943,946.100314 C560.7843,943.805177 563.8543,940.820514 566.3543,937.530489 C576.0043,968.736471 591.7743,997.686717 601.5143,1028.92225 C614.4733,1074.824 657.0343,1149.12635 647.5843,1192.91027 C640.2743,1219.94955 608.2943,1225.78097 585.2143,1234.61774 C558.5443,1243.89679 531.5743,1252.41638 504.1643,1259.33232 C490.7843,1230.9337 477.9943,1202.26813 465.4443,1173.49519 C408.0843,1040.7427 357.2843,905.221266 311.8843,768.084374 C311.0343,765.040609 300.5943,732.06156 298.6843,741.261809 C298.5243,740.316173 297.3343,737.87328 296.8843,739.961559 C304.5843,772.162428 312.3933,804.353447 320.8443,836.37701 C300.0843,833.47115 277.7643,832.338357 258.7643,842.513792 C257.7843,843.035862 258.5043,844.325276 259.4733,844.168655 C281.9733,840.267907 303.6743,847.635986 325.2843,852.925636 C355.6343,956.236347 394.7943,1056.92587 436.2443,1156.35652 C423.4243,1152.26862 408.5443,1156.78994 395.1643,1157.11402 C353.0243,1161.46887 311.3643,1170.68882 271.5543,1185.02997 C221.5143,1201.25452 186.1343,1222.41214 184.1043,1279.20052 M143.7333,525.302232 C131.4143,512.03378 121.7333,495.091139 123.6043,477.114208 C131.0043,467.244134 133.4543,454.369697 137.7643,442.96198 C154.6143,395.227073 170.2543,347.127702 188.5943,299.905999 C227.6043,311.903753 265.9833,326.295148 302.1843,345.197029 C308.8443,348.596392 315.4343,352.122826 321.9443,355.777314 C328.7643,359.599259 336.2043,366.23841 344.3843,364.337288 C335.4443,376.995017 317.0343,390.164966 313.9243,404.791785 C313.2543,409.422445 316.5343,413.717208 321.5743,412.682919 C400.4643,468.72169 481.9343,523.578417 556.5043,585.999245 C612.3443,630.208704 655.2143,666.064062 674.3643,737.794477 C687.2743,784.258686 687.3133,832.821025 685.4143,880.595334 C685.0443,889.88325 685.0343,899.389845 684.2843,908.737849 C685.4043,915.731614 683.2743,929.965403 675.4143,930.221513 C675.5943,931.915777 676.1543,933.481986 677.0443,934.861038 C676.7943,935.194966 676.5343,935.511163 676.2643,935.836225 C675.8743,933.925253 675.4943,932.024131 675.1343,930.113158 C669.0143,903.004932 668.1943,871.552691 669.2143,842.691099 C669.6433,834.416785 656.9543,834.613793 656.2443,842.691099 C654.3343,864.509675 652.4243,886.328251 650.5143,908.136976 C648.2233,922.272262 651.8343,940.761412 640.5343,951.508168 C629.0443,940.889466 632.8443,919.947574 633.4043,906.245705 C634.3033,883.895209 635.2743,861.554563 636.1043,839.204067 C636.3643,832.121649 624.6343,830.29933 623.3033,837.499952 C619.5343,858.028129 615.4543,878.497204 611.0633,898.907177 C608.4143,906.797326 606.5943,942.199566 593.3543,936.052933 C585.4643,930.664779 591.1543,899.074633 590.1143,888.613537 C590.6043,867.908053 590.8933,847.232121 592.4143,826.575889 C593.0343,818.242473 579.4643,816.469406 577.6043,824.605814 C574.5843,837.775763 571.6943,850.945711 569.0743,864.204313 C563.3243,886.554809 565.4143,916.854556 544.6543,931.708919 C536.5243,873.650821 548.2233,815.996588 549.8643,758.145348 C548.8843,739.400088 545.6643,720.841985 542.8243,702.323284 C539.6843,681.844359 537.8543,659.552965 545.2043,639.802967 C543.1943,630.957332 535.2943,654.883888 534.5543,656.873664 C528.6043,645.15172 514.1143,644.245486 502.6543,640.590997 C477.1843,632.346235 451.0943,626.13065 425.3243,618.801972 C356.9833,599.820304 288.5633,581.134146 220.1243,562.48739 C192.7843,554.922304 164.0043,545.968315 143.7333,525.302232 M828.0843,834.121274 C818.6543,783.006704 818.9143,731.214428 822.9443,679.539372 C827.3743,599.396738 831.6743,519.234403 836.2743,439.101619 C856.2443,584.13851 877.5343,729.007945 893.8133,874.507803 C894.9733,884.633987 894.7943,895.351192 899.9043,904.383984 C871.6643,908.166528 841.5633,911.978622 814.1043,902.374508 C826.1543,881.54097 830.4043,857.821271 828.0843,834.121274 M970.7743,474.099994 C992.1243,611.561948 979.9443,751.437244 1000.6543,888.741592 C971.9243,891.962664 943.4143,896.730245 914.9833,901.970643 C918.0943,885.008301 912.1943,867.494338 911.1743,850.413791 C895.7333,728.583394 878.6843,606.833769 856.0943,486.068197 C850.5533,457.167203 844.9543,428.384413 838.5343,399.641025 C839.5043,382.235416 840.3543,364.829807 840.9143,347.413362 C872.2643,327.703751 907.6143,314.946533 944.1743,308.515225 C954.0533,363.559109 963.9243,418.563591 970.7743,474.099994 M723.6243,42.1414398 C722.3743,40.0039089 721.1843,37.8171261 720.0443,35.6007922 C723.9043,35.7485478 727.6643,35.886453 731.4643,36.5168769 C731.2943,42.6339585 731.6343,48.800292 731.7043,54.9666254 C729.8033,50.4551546 726.0843,46.3376987 723.6243,42.1414398 M1368.4443,903.566403 C1277.2543,837.253693 1127.4733,879.501942 1021.8343,886.3184 C1001.6943,754.253465 1009.9143,620.033269 991.1433,487.752611 C973.8543,355.600007 955.6243,221.605384 912.2043,94.9886906 C894.2843,46.0313521 863.2843,31.4931867 812.2443,31.8872016 C786.3443,30.8726132 758.9543,26.7256062 733.7843,27.3156435 C728.2643,27.4052819 722.4943,28.1342095 717.5143,30.3603938 C710.5143,14.5800964 706.7143,-2.36254507 704.7943,-19.4332414 C704.6743,-20.5167824 703.2943,-20.7137899 702.8843,-19.6795007 C696.9643,-4.81528793 696.3343,11.4082763 699.5533,26.9718655 C701.8843,38.1224877 715.7543,82.0058991 731.8643,64.8366991 C733.1433,100.839812 725.2333,143.83669 689.9643,162.522847 C628.3343,189.394665 543.1433,164.926338 507.4443,107.892679 C500.5443,96.4957977 494.5943,84.3690036 486.9543,73.4262243 C540.1843,58.3551537 570.0633,-5.42601106 557.5243,-53.9982 C549.7743,-16.2220198 535.6433,25.9868282 500.4543,47.1454293 C372.3133,46.8597685 265.7743,105.223228 205.5743,217.634699 C193.7943,233.957752 182.9043,250.919109 172.9243,268.177948 C167.5533,279.722585 151.8243,295.778693 165.1743,306.929315 C149.7543,348.084173 136.0743,389.809368 121.6143,431.290273 C117.6433,445.110346 108.5633,459.610095 110.3743,474.139395 C108.4143,483.093384 108.5043,493.682535 112.9943,502.291761 C117.2543,517.638642 126.8133,538.285024 142.6643,544.79612 C156.1143,557.079535 173.1243,565.541006 190.8643,571.914197 C143.5533,695.556078 125.5443,828.900577 109.5143,959.536222 C93.8033,1073.82025 85.6943,1212.83856 184.1343,1295.43295 C186.0443,1319.06498 200.0633,1349.17757 227.7843,1349.43368 C246.9833,1368.28631 270.3843,1357.94342 291.7543,1348.72446 C327.8243,1335.36637 365.6543,1327.95987 403.2443,1323.83158 C407.2743,1326.98468 413.8343,1326.46163 417.4243,1322.78843 C440.1943,1317.53818 471.7543,1338.79528 476.3543,1319.5378 C505.7143,1316.69006 534.7543,1311.35214 564.0843,1308.23844 C551.7233,1324.27583 552.6143,1347.92559 561.9243,1365.2524 C538.2143,1411.8949 593.4443,1438.90462 627.2143,1458.04291 C672.8033,1484.44191 720.4143,1509.49239 772.5533,1520.43517 C818.3933,1530.07869 866.4143,1527.15411 910.6433,1511.74813 C933.8843,1505.90587 966.3443,1486.72818 952.5533,1459.70861 C970.0343,1408.28966 847.2743,1355.009 811.1643,1329.25914 C825.9243,1327.4181 826.4643,1296.78246 788.0743,1314.38606 C783.4343,1311.2822 778.8743,1308.08083 774.3643,1304.82134 C929.6433,1286.97247 1226.1943,1237.86836 1338.5743,1131.72074 C1400.3133,1077.13982 1435.9343,966.736845 1368.4443,903.566403" id="Ink" fill="#000" blush:i="0.0.0.3"/></g></g><g id="Head" transform="translate(345.000000, 180.000000) scale(0.9978902953586498 1)" blush:width="473" blush:height="567" blush:component="Head" blush:i="0.1" blush:value="Short 5" blush:viewBox="49.89473684210526 53.86500000000001 374.2105263157896 462.1050000000001"><g id="Head/Short 5" stroke="none" stroke-width="1" fill="none" fill-rule="evenodd" blush:viewBox="49.89473684210526 53.86500000000001 374.2105263157896 462.1050000000001" blush:i="0.1.0"><path d="M242.041161,75.2596156 C298.821805,75.2596156 357.551668,119.271611 378.365264,147.356837 C395.864342,170.969555 405.286153,277.745152 405.286153,349.905008 C405.286153,364.996849 413.614596,393.445968 411.184129,407.881894 C402.277902,460.781042 363.475367,505.14576 286.676873,505.14576 C209.87838,505.14576 154.814935,474.704319 97.7325351,392.972519 C70.0358893,392.972519 56.6129701,371.732631 56.4152532,338.213866 C56.2871511,315.868022 65.1995229,300.630067 83.1523686,292.5 C76.7512999,204.313833 81.6113554,148.741029 97.7325351,125.781589 C121.914305,91.3424282 185.260516,75.2596156 242.041161,75.2596156 Z" id="Skin" fill="#ffdbb4" blush:color="Skin-500" blush:i="0.1.0.0"/><path d="M218.1465,56.5559 C253.9965,52.9259 289.1265,55.9759 324.4565,62.2869 C327.1565,62.7759 328.6865,64.5469 329.2555,66.6759 C345.8965,67.4359 362.5565,68.6569 379.1755,69.5669 C385.2065,69.8969 388.6255,75.8559 385.8755,81.2369 C385.3265,82.3059 384.7555,83.3459 384.1755,84.3859 L384.90416,84.145677 C389.903636,82.5418162 395.304128,81.751086 400.1755,84.2969 C406.3755,87.5369 408.8065,94.6859 407.4365,101.2659 C407.0855,102.9459 406.4965,104.5559 405.8265,106.1269 C407.1865,106.0369 408.5565,106.0669 409.9165,106.2469 C417.1565,107.2069 422.5365,112.7569 422.9165,120.1469 C423.4765,131.3059 416.2865,142.6269 407.8165,150.6159 C409.0455,153.1469 409.5165,156.1269 409.0055,159.1469 C407.9855,165.1169 403.5875,168.6919 398.4895,171.0239 C400.6155,177.7749 401.6205,184.8329 401.0275,192.0459 C400.8295,194.4539 398.7235,196.4429 396.5005,196.9309 C404.7865,219.7449 408.9805,244.2389 411.9965,268.1059 C414.1465,285.0869 415.2065,302.1669 415.3355,319.2759 C415.398611,327.000344 415.271302,334.73348 414.947253,342.459154 L414.8165,345.3559 C414.4165,353.7069 414.3965,362.4759 412.8965,370.7369 C418.0165,379.4459 420.0765,390.2569 420.9465,400.0159 C422.0265,412.0959 420.3165,424.5559 416.5055,436.0469 C402.1255,479.4659 358.7265,506.8659 315.1355,513.9869 C274.7865,520.5769 228.0965,511.7069 204.5165,475.0559 C204.1465,474.4759 204.9365,473.9969 205.3965,474.3769 C222.2665,488.0959 241.8355,494.2159 263.0965,497.1959 C299.8565,502.3369 341.1755,493.6159 370.6755,470.4969 C384.8355,459.3969 395.0455,443.2369 399.5365,425.8459 C401.8265,416.9569 402.6165,407.6859 401.7155,398.5369 C400.7955,389.2569 396.6865,381.3369 394.0965,372.5669 C393.2265,369.6059 394.1465,366.8559 395.9565,364.8969 C396.4655,357.7759 397.6665,350.5959 398.1255,343.4969 C398.6355,335.4259 398.9465,327.3559 399.0565,319.2759 C399.2665,302.5159 398.5665,285.7259 397.1565,269.0369 C394.5765,238.4759 387.7265,208.6569 383.7065,178.3559 C382.217833,179.690867 380.0844,180.239031 377.848178,179.072708 L377.6165,178.9459 L376.3965,178.2469 C376.3265,178.2469 376.2465,178.2569 376.1755,178.2659 C367.8265,179.0769 359.1665,177.9169 351.1665,175.4259 C342.7955,172.8269 335.0265,168.8269 328.0855,163.4969 C326.7665,170.1859 326.2155,176.9459 326.2065,183.7659 C326.1965,188.0259 321.6865,190.2369 318.1065,188.4169 C302.2365,180.3559 287.0765,171.0669 272.6865,160.6269 C271.0055,169.2369 269.3265,177.8459 267.6355,186.4659 C266.9865,189.7869 262.7555,191.1269 260.0455,189.5469 C249.2665,183.2759 239.9565,175.0669 232.3765,165.3059 C230.863167,168.1999 229.345389,171.093456 227.817241,173.980641 L225.5165,178.3059 C223.2465,182.5559 220.2065,187.2569 215.2365,188.6159 C209.9765,190.0559 205.5855,186.6469 203.8165,181.8859 C203.2765,180.4069 202.7765,178.8859 202.3165,177.3559 C197.8355,187.5869 192.7765,197.5869 187.0565,207.1269 C178.4765,221.4359 168.1755,234.1859 157.9065,247.2659 C154.7865,251.2369 149.4465,247.4459 149.0165,243.5869 C148.7665,241.3169 148.5565,239.0369 148.3755,236.7659 C142.3915,248.8419 136.1475,260.8049 129.3445,272.4209 L130.3185,276.2379 L130.3185,276.2379 C133.1255,287.5159 135.4565,298.8739 137.9905,310.2119 C138.8085,313.8699 136.8645,319.0999 132.5905,319.7229 C127.4845,320.4669 122.6535,323.0759 117.4235,321.2809 C111.7205,319.3229 110.5935,314.3939 107.9015,309.7219 C107.3645,308.7909 106.7395,307.9359 106.0675,307.1239 L105.8965,307.3459 L105.8965,307.3459 C105.4765,307.8969 104.4765,307.2969 104.7265,306.6669 L105.0195,305.9389 L105.0195,305.9389 C102.7065,303.4839 99.9385,301.4359 97.3935,299.2329 C91.3455,298.2139 84.5425,299.3299 80.3755,301.7869 C70.8855,307.3859 66.5265,318.9259 66.4365,329.5369 C66.3265,341.9569 70.1755,355.9169 76.6755,366.5369 C79.5365,371.2069 83.4565,375.4259 88.6355,377.4969 C93.7765,379.5559 99.3465,378.9169 104.5765,380.8559 C108.0365,382.1469 110.1665,385.9869 108.0765,389.4659 C107.9365,389.7069 107.7765,389.9259 107.6255,390.1569 L109.181019,392.221381 C110.250944,393.651456 111.3665,395.182567 112.4065,396.7759 C115.0665,399.8369 117.8665,402.7869 120.5765,405.7969 C125.5855,411.3459 130.4465,417.0469 135.3755,422.6759 C140.0265,427.9869 144.9465,432.9759 150.0165,437.8859 C154.8065,442.5369 160.7865,446.4459 165.1865,451.4069 C169.4655,456.2469 170.6265,464.6959 163.5855,467.4969 C155.796208,470.60315 148.900566,463.323034 143.657071,458.469499 L143.4365,458.2659 C133.8245,449.4209 125.1445,439.3129 118.2515,428.1839 C111.4235,432.8319 101.5475,433.2759 94.7485,428.6289 C91.1705,426.1839 88.4255,422.0749 87.0915,417.6049 C85.8335,417.8869 84.5765,418.0519 83.3505,418.0329 C82.7195,418.3989 82.0865,418.7549 81.4465,419.0869 C76.3755,421.7259 70.1465,420.5469 67.8265,414.9359 C65.7138913,409.84227 67.8908578,404.057449 69.7937681,399.149752 L70.1865,398.1359 C71.2665,395.3369 72.4565,392.2869 73.9365,389.4169 C69.8165,386.3169 66.2955,382.4659 63.3165,378.0869 C53.3065,363.3369 48.3065,341.7659 50.5165,324.1669 C51.8465,313.5469 56.8355,302.5469 65.0055,295.3859 L64.7065,294.6059 L64.7065,294.6059 C62.4165,288.7969 60.3355,282.9659 58.9865,276.8269 C57.4065,269.6469 56.6355,262.2069 55.9365,254.8969 C54.4565,239.4569 54.8565,223.6669 56.8265,208.2869 C60.5265,179.3369 69.9065,150.9169 86.5565,126.8269 C81.8355,121.1759 78.0965,114.5259 80.0455,106.8769 C80.9365,103.3659 82.9655,100.0369 86.0265,98.0259 C87.7155,96.9169 89.7265,96.7469 91.4165,95.8269 L91.9246563,95.5471104 C92.6669844,95.1139329 92.0991765,95.1598412 91.6565,93.1469 C89.9065,85.1059 91.3565,77.3369 100.2065,74.6669 C108.5365,72.1569 116.4165,77.4869 121.3465,83.8369 C134.2465,74.6859 151.2465,69.8969 166.1965,65.8269 C183.1965,61.2159 200.6355,58.3369 218.1465,56.5559 Z M78.8069,326.2562 C78.7459,319.7062 84.9559,315.6662 91.0669,316.7372 C95.1702571,317.451271 98.5933031,319.90018 101.807624,322.431371 L103.374768,323.671291 C107.288878,326.74416 111.782567,330.056933 114.1159,334.4072 C117.5359,340.8272 110.3069,349.4662 103.5569,344.9662 C98.9265667,341.8632 95.95861,336.891311 92.921411,332.272642 L92.6069,331.7962 C91.2269,329.7262 90.0169,327.5262 88.1259,325.8662 L87.7174162,325.508484 C87.0959496,324.978762 86.4285364,324.495291 85.6259,324.2662 C84.0775129,323.821039 81.2095629,324.444452 80.526766,326.287794 L80.4659,326.4762 C80.2159,327.4072 78.8169,327.2062 78.8069,326.2562 Z" id="Ink" fill="#000" blush:i="0.1.0.1"/></g></g><g id="Face" transform="translate(504.000000, 366.000000) scale(1 1)" fill="#000" blush:width="289" blush:height="293" blush:component="Face" blush:i="0.2" blush:value="Eating Happy" blush:viewBox="51.43965517241378 61.53000000000003 187.58620689655172 193.38"><g id="Face/Eating Happy" stroke="none" stroke-width="1" fill="none" fill-rule="evenodd" blush:viewBox="51.43965517241378 61.53000000000003 187.58620689655172 193.38" blush:i="0.2.0"><path d="M126.149889,196.292214 C131.744002,187.090211 143.667824,209.632062 144.934713,213.508101 C146.056772,216.941676 146.797464,220.458991 147.173947,224.017014 C151.510872,224.989057 156.01445,224.990851 160.458249,224.139019 C167.062878,222.871873 171.100325,219.321223 176.840498,216.27243 C180.80528,214.165719 185.802087,216.636182 187.863888,220.130132 C190.289134,224.242684 188.744036,228.511189 185.554301,231.577101 C179.505319,237.390824 167.603613,238.726425 159.707644,237.182493 C155.183676,236.298273 151.03744,234.601718 147.375949,232.136142 C147.351679,232.596242 147.335471,233.056465 147.299179,233.515885 L147.229265,234.312833 C146.622587,240.760805 144.850336,248.868644 139.841994,253.064289 C131.627701,259.946669 121.490148,246.710667 129.471775,239.836072 L129.719209,239.629726 C134.680373,235.621175 135.762718,224.866141 135.495556,218.942309 C135.320385,215.075928 134.616096,211.160035 133.395334,207.477648 L133.144299,206.744368 C132.776832,205.704151 128.770187,195.83676 127.322375,197.093402 L127.253261,197.164261 C126.656242,197.877109 125.691416,197.04675 126.149889,196.292214 Z M170.814304,144.367155 C178.365682,148.9572 189.871664,159.660291 181.748119,171.039573 C172.185929,181.073062 158.418535,169.568982 151.634201,164.366134 C145.343449,160.333898 138.275437,170.704507 144.112,175.412823 C193.135736,211.708059 213.030606,145.567387 174.633685,138.970386 C170.406047,138.243425 168.835891,142.947174 170.814304,144.367155 Z M90.1787,101.9403 C97.5587,100.6313 105.1187,102.4663 111.2257,106.7843 L111.688541,107.117181 C117.57206,111.42005 124.154854,118.975479 120.7787,126.3923 C119.4237,129.3703 115.3657,129.8373 112.7907,128.4873 C108.5037,126.2393 107.7267,120.7083 103.9017,117.6473 C100.7647,115.1383 96.5407,113.6163 92.5007,113.9833 C83.0097,114.8453 77.1717,124.2063 74.2237,132.2733 C73.8467,133.3053 72.3317,133.7063 71.7397,132.5983 C64.7887,119.6063 77.0927,104.2623 90.1787,101.9403 Z M208.3893,97.0373 C222.5263,95.8723 239.0733,110.5283 235.3513,125.4503 C233.5663,132.6103 222.9453,132.4053 221.0573,125.4503 C220.0183,121.6233 220.1223,118.2373 217.3673,115.0593 C215.0933,112.4353 211.8623,110.9113 208.3893,111.1453 C204.5613,111.4033 201.0303,113.3163 198.3473,116.0053 C195.9243,118.4333 194.4753,121.9863 191.9653,124.1353 C191.3473,124.6633 190.5203,124.6973 189.9103,124.1353 C185.5903,120.1523 188.1833,111.8603 190.9223,107.7023 C194.8423,101.7523 201.2253,97.6283 208.3893,97.0373 Z M63.2578,75.4751 C72.3268,67.4471 88.8058,59.6941 101.0348,63.6451 C108.0658,65.9161 111.1308,77.2451 103.2818,80.8361 C94.1928,84.9941 83.7138,83.3021 74.4628,87.6121 C70.5778,89.4231 66.9238,91.6861 64.2188,95.0051 C62.0878,97.6211 59.9198,101.0631 56.8378,102.5711 C56.0278,102.9681 54.9308,102.9781 54.2818,102.2421 C47.5258,94.6001 57.3588,80.6961 63.2578,75.4751 Z M192.8016,63.2466 C198.4066,61.6736 204.6246,61.7056 210.3186,62.6936 C216.0106,63.6816 221.7896,66.0406 226.4366,69.4816 L226.976058,69.8845105 C232.049154,73.7073503 238.103014,79.2694621 237.7786,86.0416 C237.5076,91.6966 231.5586,95.5216 226.4226,92.5576 C222.2356,90.1406 220.2656,85.2986 216.7206,82.0746 C213.7956,79.4136 210.3596,77.3156 206.6936,75.8456 C202.6216,74.2126 198.5426,73.4476 194.1726,73.3746 C190.8076,73.3186 187.4226,74.4226 184.1206,74.7756 C184.3926,75.3336 181.7826,75.0736 180.2866,74.5786 C179.1786,74.1066 179.1726,72.7056 179.5566,71.7966 C181.4616,67.2936 188.3926,64.4826 192.8016,63.2466 Z" id="Ink" fill="#000" blush:i="0.2.0.0"/></g></g><g id="Beard" transform="translate(468.000000, 518.000000) scale(1 1)" fill="#000" blush:width="280" blush:height="230" blush:component="Beard" blush:i="0.3" blush:value="None" blush:viewBox="490 402.5 0 0"><g id="Beard/None" stroke="none" stroke-width="1" fill="none" fill-rule="evenodd" fill-opacity="0" blush:viewBox="490 402.5 0 0" blush:i="0.3.0"/></g><g id="Mask" transform="translate(370.000000, 480.000000) scale(1 1)" fill="#000" blush:width="397" blush:height="228" blush:component="Mask" blush:i="0.4" blush:value="Medical Mask" blush:viewBox="31.75999999999999 13.703832752613238 365.2399999999999 214.49477351916377"><g id="Mask/Medical Mask" stroke="none" stroke-width="1" fill="none" fill-rule="evenodd" blush:viewBox="31.75999999999999 13.703832752613238 365.2399999999999 214.49477351916377" blush:i="0.4.0"><path d="M393.2574,70.3562 C391.3724,46.4732 361.2574,36.3562 346.2574,33.3562 C296.3094,21.6142 253.8154,51.7402 194.2574,52.3562 C188.2464,52.4502 171.0564,51.4362 163.0624,49.3252 C122.5034,40.1092 81.9864,30.3062 42.1904,18.2192 C36.3394,19.5892 34.6084,27.2262 38.6254,31.5772 C76.7414,45.0942 135.0544,57.1982 165.8484,58.5762 C165.2574,98.3562 144.2574,138.3562 115.2574,160.3562 C161.3804,211.3612 268.9494,228.1352 332.2554,201.3622 C363.3964,192.0162 396.2574,108.3562 393.2574,70.3562" id="Color" fill="#FFF" blush:i="0.4.0.0"/><path d="M38.9721,19.4231 C37.2571,19.3561 38.2571,14.3561 42.1201,15.0691 C91.9641,26.7261 154.0641,48.9301 205.2971,48.7671 C242.9861,47.5331 276.7571,26.5431 314.6541,26.4161 C340.1291,26.9041 372.6131,30.5271 390.4411,50.9691 C413.9561,125.5471 361.0031,226.9831 277.6861,227.5701 L261.916329,226.429119 C208.162751,222.468898 149.27444,216.13275 114.6271,170.5281 L114.3571,170.7601 L114.3571,170.7601 C109.1761,167.2841 109.4651,159.7771 113.8681,155.9161 L113.9991,156.1221 L113.9991,156.1221 C114.0831,155.9861 114.1761,155.8561 114.2661,155.7231 L114.2101,155.5481 L114.2101,155.5481 C115.9041,153.7701 117.8301,152.1071 119.5811,150.6181 L119.5901,150.6471 L119.5901,150.6471 C145.6061,128.9721 162.5931,96.1971 163.5711,62.2581 C154.9581,64.6241 10.2521,34.6241 36.0831,27.3031 C54.5591,33.5491 73.1441,39.1901 92.1041,43.6801 C92.4221,43.5011 92.8781,43.5481 93.0531,43.9011 C116.2471,49.6091 139.9091,52.8711 163.6021,55.5121 C163.5771,54.3801 163.5341,53.2481 163.4761,52.1141 C121.3481,43.9131 80.0481,31.7371 38.9721,19.4231 Z M380.0951,49.6901 C293.6861,6.0391 250.7941,70.5281 167.2251,52.7721 C175.9681,91.7781 154.3791,133.8291 125.0561,159.3151 C167.6621,196.1911 186.1021,201.7751 241.9921,207.7601 L249.293502,208.629503 C260.271331,209.929588 271.352191,211.142282 282.3641,211.3321 C339.4841,207.1751 382.6451,147.7471 389.1041,93.9021 L389.139106,92.4146641 C389.428627,78.7495503 388.80096,64.2848719 382.7471,51.7661 C381.6321,51.3781 380.6631,50.6791 380.0951,49.6901 Z M259.7989,83.9558 C262.7849,83.2838 265.8319,86.5418 263.9809,89.3948 C257.9999,98.6198 243.3729,102.1938 233.1429,103.6438 C221.2959,105.3228 209.8119,103.9988 198.5579,99.9578 C197.9549,99.7408 197.9979,98.6748 198.7199,98.7608 C209.4059,100.0328 220.4219,99.1018 230.8049,96.2738 C241.3329,94.2228 249.8339,87.2208 259.7989,83.9558 Z M340.987868,77.3109 C340.9383,75.5579 349.5563,80.6299 350.9193,81.3129 C361.4453,87.6329 373.6293,88.0959 385.2383,90.5769 C387.9443,91.6149 387.9403,95.0549 385.2373,96.0929 C370.7483,99.9459 348.7593,89.8339 340.987868,77.3109 Z" id="Ink" fill="#000" blush:i="0.4.0.1"/></g></g><g id="Accessories" transform="translate(392.000000, 421.000000) scale(1 1)" fill="#000" blush:width="392" blush:height="138" blush:component="Accessories" blush:i="0.5" blush:value="None" blush:viewBox="686 241.5 0 0"><g id="Accessories/None" stroke="none" stroke-width="1" fill="none" fill-rule="evenodd" fill-opacity="0" blush:viewBox="686 241.5 0 0" blush:i="0.5.0"/></g></g></svg>