<svg width="188" height="54" viewBox="0 0 188 54" fill="none" xmlns="http://www.w3.org/2000/svg">
<rect x="1" y="1" width="186" height="52" rx="26" fill="#F9F9F9"/>
<rect x="1" y="1" width="186" height="52" rx="26" stroke="#141414" stroke-width="2" stroke-dasharray="6 4"/>
<path d="M29.3133 30.352V28.024H38.5773V30.352H29.3133ZM25.7133 34L32.5053 18.448H35.4333L42.2733 34H39.3213L33.3693 19.96H34.5693L28.6413 34H25.7133ZM44.5908 34V18.448H52.5108C54.4148 18.448 55.8708 18.808 56.8788 19.528C57.9028 20.232 58.4148 21.256 58.4148 22.6C58.4148 23.464 58.2148 24.152 57.8148 24.664C57.4308 25.16 56.8788 25.536 56.1588 25.792C55.4388 26.032 54.5908 26.184 53.6148 26.248L53.7108 26.104C54.4148 26.12 55.0788 26.184 55.7028 26.296C56.3428 26.392 56.9028 26.568 57.3828 26.824C57.8788 27.08 58.2628 27.44 58.5348 27.904C58.8228 28.352 58.9668 28.936 58.9668 29.656C58.9668 30.616 58.7268 31.408 58.2468 32.032C57.7668 32.656 57.1028 33.136 56.2548 33.472C55.4068 33.792 54.4308 33.968 53.3268 34H44.5908ZM47.3268 31.672H52.9188C53.9588 31.672 54.7668 31.496 55.3428 31.144C55.9188 30.776 56.2068 30.208 56.2068 29.44C56.2068 28.832 56.0308 28.392 55.6788 28.12C55.3268 27.832 54.8708 27.648 54.3108 27.568C53.7668 27.488 53.1828 27.448 52.5588 27.448H47.3268V31.672ZM47.3268 25.168H52.3428C53.3828 25.168 54.1828 24.992 54.7428 24.64C55.3188 24.272 55.6068 23.696 55.6068 22.912C55.6068 22.144 55.3188 21.6 54.7428 21.28C54.1828 20.944 53.4468 20.776 52.5348 20.776H47.3268V25.168ZM70.2408 34.288C68.4168 34.288 66.8248 33.96 65.4648 33.304C64.1208 32.648 63.0728 31.72 62.3208 30.52C61.5848 29.32 61.2168 27.888 61.2168 26.224C61.2168 24.56 61.5848 23.128 62.3208 21.928C63.0728 20.712 64.1208 19.784 65.4648 19.144C66.8248 18.488 68.4168 18.16 70.2408 18.16C72.0808 18.16 73.6728 18.488 75.0168 19.144C76.3608 19.784 77.4008 20.712 78.1368 21.928C78.8888 23.128 79.2648 24.56 79.2648 26.224C79.2648 27.888 78.8888 29.32 78.1368 30.52C77.4008 31.72 76.3608 32.648 75.0168 33.304C73.6728 33.96 72.0808 34.288 70.2408 34.288ZM70.2408 31.888C71.4568 31.888 72.5288 31.68 73.4568 31.264C74.3848 30.848 75.1128 30.224 75.6408 29.392C76.1848 28.544 76.4568 27.488 76.4568 26.224C76.4568 24.976 76.1848 23.936 75.6408 23.104C75.1128 22.256 74.3848 21.624 73.4568 21.208C72.5288 20.776 71.4568 20.56 70.2408 20.56C69.0408 20.56 67.9688 20.776 67.0247 21.208C66.0808 21.624 65.3368 22.256 64.7928 23.104C64.2488 23.936 63.9768 24.976 63.9768 26.224C63.9768 27.488 64.2488 28.544 64.7928 29.392C65.3368 30.224 66.0808 30.848 67.0247 31.264C67.9688 31.68 69.0408 31.888 70.2408 31.888ZM95.4274 27.448V18.448H98.1394V27.664C98.1394 28.64 98.0034 29.496 97.7314 30.232C97.4754 30.968 97.1074 31.592 96.6274 32.104C96.1474 32.616 95.5794 33.04 94.9234 33.376C94.2674 33.696 93.5474 33.928 92.7634 34.072C91.9954 34.216 91.1794 34.288 90.3154 34.288C89.4194 34.288 88.5714 34.216 87.7714 34.072C86.9714 33.928 86.2434 33.696 85.5874 33.376C84.9314 33.04 84.3634 32.616 83.8834 32.104C83.4194 31.592 83.0514 30.968 82.7794 30.232C82.5234 29.496 82.3954 28.64 82.3954 27.664V18.448H85.1314V27.448C85.1314 28.664 85.3554 29.592 85.8034 30.232C86.2674 30.856 86.8914 31.288 87.6754 31.528C88.4594 31.768 89.3394 31.888 90.3154 31.888C91.2594 31.888 92.1154 31.768 92.8834 31.528C93.6514 31.288 94.2674 30.856 94.7314 30.232C95.1954 29.592 95.4274 28.664 95.4274 27.448ZM100.432 18.448H115.36V20.8H100.432V18.448ZM106.552 20.512H109.264V34H106.552V20.512ZM134.144 32.584H132.92L141.176 18.448H143.888V34H141.176V22.36L141.8 22.528L135.032 34H132.056L125.288 22.576L125.936 22.384V34H123.2V18.448H125.936L134.144 32.584ZM150.358 27.376V31.648H161.278V34H147.622V18.448H161.254V20.8H150.358V25.12H159.286V27.376H150.358Z" fill="#141414"/>
</svg>
