<svg width="100%" height="100%" viewBox="0 0 46 22" fill="none" xmlns="http://www.w3.org/2000/svg">
<path fill-rule="evenodd" clip-rule="evenodd" d="M3.75254 5.90244C0.524384 6.99477 -1.29857 11.1533 1.09406 15.0244C2.80308 17.6498 5.97427 19.2787 9.48726 17.5157C13.0003 15.7526 12.8673 11.3066 11.3102 8.93031C9.75311 6.55401 6.98069 4.8101 3.75254 5.90244ZM32.5021 8.3554C33.2336 6.634 37.914 1.24564 43.4778 4.40767C46.3642 6.04808 47.2567 11 43.5538 14.6411C41.3704 16.788 37.0766 18.2152 34.5529 16.5575C30.2448 13.7275 31.806 9.99371 32.5021 8.3554ZM34.0592 13.2613C32.58 10.4705 35.1591 7.45206 35.7303 6.97561C37.407 5.57704 40.4586 4.54181 42.7563 6.28571C44.4782 7.59268 44.7121 11.3066 42.4144 13.4913C41.2808 14.5692 36.6987 17.5563 34.0592 13.2613ZM2.57521 0.0383275C2.30936 0.804878 1.85362 3.43031 1.81565 4.67596C3.27781 3.67944 7.91116 2.6446 11.5381 6.4007C12.3166 7.56969 15.5068 10.8659 13.2471 15.9826C11.5001 19.7578 6.67687 20.3711 3.90445 19.1638C4.01839 19.6716 4.39817 22 4.39817 22H5.95528C5.95528 22 5.86033 21.1185 5.84135 20.7352C6.64838 20.7064 8.8986 20.8214 10.1329 20.0836C10.2373 20.3807 10.5886 22 10.5886 22H40.7814L41.5789 17.8606C41.5789 17.8606 41.5911 17.7801 41.427 17.784C39.0898 19.1965 35.5784 19.0296 33.6415 17.9756C32.9199 17.8798 26.9193 13.8554 31.9704 6.01742C32.3502 5.40418 36.8316 -0.440766 43.7437 1.99303C43.6677 1.14983 43.5158 0 43.5158 0H8.12004C8.12004 0 8.13903 1.70557 8.23398 2.79791C7.83521 2.58711 4.62604 2.20383 3.56265 2.72125C3.52467 2.26132 3.86647 0 3.86647 0C3.86647 0 2.91702 0.0191638 2.57521 0.0383275Z" fill="currentColor"></path>
</svg>