<svg width="277" height="54" viewBox="0 0 277 54" fill="none" xmlns="http://www.w3.org/2000/svg">
<rect x="1" y="1" width="275" height="52" rx="26" fill="#F9F9F9"/>
<rect x="1" y="1" width="275" height="52" rx="26" stroke="#141414" stroke-width="2" stroke-dasharray="6 4"/>
<path d="M29.5069 25.048H40.9309V27.376H29.5069V25.048ZM40.5469 18.448H43.2589V34H40.5469V18.448ZM27.0829 18.448H29.8189V34H27.0829V18.448ZM57.9488 32.584H56.7248L64.9808 18.448H67.6928V34H64.9808V22.36L65.6048 22.528L58.8368 34H55.8608L49.0928 22.576L49.7408 22.384V34H47.0048V18.448H49.7408L57.9488 32.584ZM70.3947 28.84H73.0587C73.1227 29.432 73.3547 29.968 73.7547 30.448C74.1707 30.912 74.7147 31.28 75.3867 31.552C76.0747 31.808 76.8587 31.936 77.7387 31.936C78.5227 31.936 79.1707 31.84 79.6827 31.648C80.1947 31.456 80.5707 31.192 80.8107 30.856C81.0667 30.504 81.1947 30.096 81.1947 29.632C81.1947 29.168 81.0427 28.808 80.7387 28.552C80.4507 28.28 80.0027 28.056 79.3947 27.88C78.7867 27.688 78.0107 27.504 77.0667 27.328C76.2827 27.184 75.5227 26.992 74.7867 26.752C74.0507 26.512 73.3867 26.208 72.7947 25.84C72.2187 25.472 71.7627 25.024 71.4267 24.496C71.0907 23.952 70.9227 23.312 70.9227 22.576C70.9227 21.744 71.1547 20.992 71.6187 20.32C72.0987 19.648 72.8027 19.12 73.7307 18.736C74.6587 18.352 75.7867 18.16 77.1147 18.16C79.1467 18.16 80.6987 18.632 81.7707 19.576C82.8427 20.504 83.3627 21.768 83.3307 23.368H80.7147C80.6667 22.36 80.2987 21.632 79.6107 21.184C78.9227 20.736 78.0507 20.512 76.9947 20.512C76.0507 20.512 75.2587 20.68 74.6187 21.016C73.9787 21.352 73.6587 21.896 73.6587 22.648C73.6587 22.968 73.7307 23.248 73.8747 23.488C74.0347 23.712 74.2907 23.92 74.6427 24.112C74.9947 24.288 75.4747 24.464 76.0827 24.64C76.7067 24.8 77.4667 24.976 78.3627 25.168C79.1307 25.296 79.8507 25.472 80.5227 25.696C81.1947 25.92 81.7787 26.2 82.2747 26.536C82.7867 26.872 83.1867 27.304 83.4747 27.832C83.7627 28.36 83.9067 29.008 83.9067 29.776C83.9067 30.656 83.6827 31.44 83.2347 32.128C82.7867 32.8 82.0987 33.336 81.1707 33.736C80.2587 34.12 79.0747 34.312 77.6187 34.312C76.5147 34.312 75.5467 34.184 74.7147 33.928C73.8987 33.656 73.2027 33.312 72.6267 32.896C72.0507 32.464 71.5867 32 71.2347 31.504C70.8987 31.008 70.6587 30.528 70.5147 30.064C70.3867 29.584 70.3467 29.176 70.3947 28.84ZM99.7266 18.448C101.407 18.448 102.815 18.656 103.951 19.072C105.087 19.488 105.991 20.056 106.663 20.776C107.335 21.48 107.815 22.296 108.103 23.224C108.407 24.152 108.559 25.128 108.559 26.152C108.559 27.192 108.399 28.184 108.079 29.128C107.759 30.072 107.247 30.912 106.543 31.648C105.855 32.368 104.951 32.944 103.831 33.376C102.711 33.792 101.343 34 99.7266 34H92.2626V18.448H99.7266ZM94.9986 31.6H99.7026C100.887 31.6 101.871 31.448 102.655 31.144C103.439 30.84 104.063 30.432 104.527 29.92C104.991 29.392 105.319 28.808 105.511 28.168C105.703 27.512 105.799 26.84 105.799 26.152C105.799 25.464 105.703 24.808 105.511 24.184C105.319 23.544 104.991 22.976 104.527 22.48C104.063 21.968 103.439 21.568 102.655 21.28C101.871 20.976 100.887 20.824 99.7026 20.824H94.9986V31.6ZM120.045 34.288C118.221 34.288 116.629 33.96 115.269 33.304C113.925 32.648 112.877 31.72 112.125 30.52C111.389 29.32 111.021 27.888 111.021 26.224C111.021 24.56 111.389 23.128 112.125 21.928C112.877 20.712 113.925 19.784 115.269 19.144C116.629 18.488 118.221 18.16 120.045 18.16C121.885 18.16 123.477 18.488 124.821 19.144C126.165 19.784 127.205 20.712 127.941 21.928C128.693 23.128 129.069 24.56 129.069 26.224C129.069 27.888 128.693 29.32 127.941 30.52C127.205 31.72 126.165 32.648 124.821 33.304C123.477 33.96 121.885 34.288 120.045 34.288ZM120.045 31.888C121.261 31.888 122.333 31.68 123.261 31.264C124.189 30.848 124.917 30.224 125.445 29.392C125.989 28.544 126.261 27.488 126.261 26.224C126.261 24.976 125.989 23.936 125.445 23.104C124.917 22.256 124.189 21.624 123.261 21.208C122.333 20.776 121.261 20.56 120.045 20.56C118.845 20.56 117.773 20.776 116.829 21.208C115.885 21.624 115.141 22.256 114.597 23.104C114.053 23.936 113.781 24.976 113.781 26.224C113.781 27.488 114.053 28.544 114.597 29.392C115.141 30.224 115.885 30.848 116.829 31.264C117.773 31.68 118.845 31.888 120.045 31.888ZM136.157 34L129.941 18.448H132.917L138.197 32.128H137.333L142.373 18.448H145.469L150.509 32.128H149.645L154.925 18.448H157.853L151.709 34H148.493L143.525 20.344H144.341L139.349 34H136.157ZM174.584 31.168L173.768 31.48V18.448H176.48V34H173.768L162.104 21.352L162.944 21.04V34H160.208V18.448H162.944L174.584 31.168ZM182.96 18.448V31.648H192.656V34H180.224V18.448H182.96ZM203.342 34.288C201.518 34.288 199.926 33.96 198.566 33.304C197.222 32.648 196.174 31.72 195.422 30.52C194.686 29.32 194.318 27.888 194.318 26.224C194.318 24.56 194.686 23.128 195.422 21.928C196.174 20.712 197.222 19.784 198.566 19.144C199.926 18.488 201.518 18.16 203.342 18.16C205.182 18.16 206.774 18.488 208.118 19.144C209.462 19.784 210.502 20.712 211.238 21.928C211.99 23.128 212.366 24.56 212.366 26.224C212.366 27.888 211.99 29.32 211.238 30.52C210.502 31.72 209.462 32.648 208.118 33.304C206.774 33.96 205.182 34.288 203.342 34.288ZM203.342 31.888C204.558 31.888 205.63 31.68 206.558 31.264C207.486 30.848 208.214 30.224 208.742 29.392C209.286 28.544 209.558 27.488 209.558 26.224C209.558 24.976 209.286 23.936 208.742 23.104C208.214 22.256 207.486 21.624 206.558 21.208C205.63 20.776 204.558 20.56 203.342 20.56C202.142 20.56 201.07 20.776 200.126 21.208C199.182 21.624 198.438 22.256 197.894 23.104C197.35 23.936 197.078 24.976 197.078 26.224C197.078 27.488 197.35 28.544 197.894 29.392C198.438 30.224 199.182 30.848 200.126 31.264C201.07 31.68 202.142 31.888 203.342 31.888ZM217.001 30.352V28.024H226.265V30.352H217.001ZM213.401 34L220.193 18.448H223.121L229.961 34H227.009L221.057 19.96H222.257L216.329 34H213.401ZM239.742 18.448C241.422 18.448 242.83 18.656 243.966 19.072C245.102 19.488 246.006 20.056 246.678 20.776C247.35 21.48 247.83 22.296 248.118 23.224C248.422 24.152 248.574 25.128 248.574 26.152C248.574 27.192 248.414 28.184 248.094 29.128C247.774 30.072 247.262 30.912 246.558 31.648C245.87 32.368 244.966 32.944 243.846 33.376C242.726 33.792 241.358 34 239.742 34H232.278V18.448H239.742ZM235.014 31.6H239.718C240.902 31.6 241.886 31.448 242.67 31.144C243.454 30.84 244.078 30.432 244.542 29.92C245.006 29.392 245.334 28.808 245.526 28.168C245.718 27.512 245.814 26.84 245.814 26.152C245.814 25.464 245.718 24.808 245.526 24.184C245.334 23.544 245.006 22.976 244.542 22.48C244.078 21.968 243.454 21.568 242.67 21.28C241.886 20.976 240.902 20.824 239.718 20.824H235.014V31.6Z" fill="#141414"/>
</svg>
