<svg width="204" height="54" viewBox="0 0 204 54" fill="none" xmlns="http://www.w3.org/2000/svg">
<rect x="1" y="1" width="202" height="52" rx="26" fill="#F9F9F9"/>
<rect x="1" y="1" width="202" height="52" rx="26" stroke="#141414" stroke-width="2" stroke-dasharray="6 4"/>
<path d="M29.6788 25.048H41.1028V27.376H29.6788V25.048ZM40.7188 18.448H43.4308V34H40.7188V18.448ZM27.2548 18.448H29.9908V34H27.2548V18.448ZM55.5767 34.288C53.7527 34.288 52.1607 33.96 50.8007 33.304C49.4567 32.648 48.4087 31.72 47.6567 30.52C46.9207 29.32 46.5527 27.888 46.5527 26.224C46.5527 24.56 46.9207 23.128 47.6567 21.928C48.4087 20.712 49.4567 19.784 50.8007 19.144C52.1607 18.488 53.7527 18.16 55.5767 18.16C57.4167 18.16 59.0087 18.488 60.3527 19.144C61.6967 19.784 62.7367 20.712 63.4727 21.928C64.2247 23.128 64.6007 24.56 64.6007 26.224C64.6007 27.888 64.2247 29.32 63.4727 30.52C62.7367 31.72 61.6967 32.648 60.3527 33.304C59.0087 33.96 57.4167 34.288 55.5767 34.288ZM55.5767 31.888C56.7927 31.888 57.8647 31.68 58.7927 31.264C59.7207 30.848 60.4487 30.224 60.9767 29.392C61.5207 28.544 61.7927 27.488 61.7927 26.224C61.7927 24.976 61.5207 23.936 60.9767 23.104C60.4487 22.256 59.7207 21.624 58.7927 21.208C57.8647 20.776 56.7927 20.56 55.5767 20.56C54.3767 20.56 53.3047 20.776 52.3607 21.208C51.4167 21.624 50.6727 22.256 50.1287 23.104C49.5847 23.936 49.3127 24.976 49.3127 26.224C49.3127 27.488 49.5847 28.544 50.1287 29.392C50.6727 30.224 51.4167 30.848 52.3607 31.264C53.3047 31.68 54.3767 31.888 55.5767 31.888ZM78.6754 32.584H77.4514L85.7074 18.448H88.4194V34H85.7074V22.36L86.3314 22.528L79.5634 34H76.5874L69.8194 22.576L70.4674 22.384V34H67.7314V18.448H70.4674L78.6754 32.584ZM94.8893 27.376V31.648H105.809V34H92.1533V18.448H105.785V20.8H94.8893V25.12H103.817V27.376H94.8893ZM125.42 28.552C125.26 29.752 124.836 30.784 124.148 31.648C123.46 32.496 122.54 33.152 121.388 33.616C120.252 34.064 118.924 34.288 117.404 34.288C116.092 34.288 114.884 34.112 113.78 33.76C112.692 33.408 111.74 32.896 110.924 32.224C110.124 31.536 109.5 30.696 109.052 29.704C108.62 28.696 108.404 27.544 108.404 26.248C108.404 24.936 108.62 23.784 109.052 22.792C109.5 21.8 110.124 20.96 110.924 20.272C111.74 19.568 112.692 19.04 113.78 18.688C114.884 18.336 116.092 18.16 117.404 18.16C118.94 18.16 120.276 18.392 121.412 18.856C122.564 19.32 123.484 19.984 124.172 20.848C124.86 21.712 125.276 22.752 125.42 23.968H122.78C122.556 23.248 122.204 22.64 121.724 22.144C121.244 21.632 120.636 21.24 119.9 20.968C119.18 20.696 118.348 20.56 117.404 20.56C116.22 20.56 115.156 20.784 114.212 21.232C113.268 21.664 112.524 22.304 111.98 23.152C111.452 23.984 111.188 25.016 111.188 26.248C111.188 27.464 111.452 28.496 111.98 29.344C112.524 30.176 113.268 30.808 114.212 31.24C115.156 31.672 116.22 31.888 117.404 31.888C118.348 31.888 119.18 31.76 119.9 31.504C120.62 31.232 121.22 30.848 121.7 30.352C122.18 29.84 122.532 29.24 122.756 28.552H125.42ZM130.055 30.352V28.024H139.319V30.352H130.055ZM126.455 34L133.247 18.448H136.175L143.015 34H140.063L134.111 19.96H135.311L129.383 34H126.455ZM145.333 34V18.448H154.525C155.677 18.448 156.677 18.616 157.525 18.952C158.373 19.272 159.029 19.776 159.493 20.464C159.957 21.136 160.189 22 160.189 23.056C160.189 23.76 160.069 24.368 159.829 24.88C159.589 25.376 159.253 25.784 158.821 26.104C158.389 26.424 157.885 26.672 157.309 26.848C156.749 27.024 156.149 27.136 155.509 27.184L155.269 27.016C156.293 27.032 157.141 27.128 157.813 27.304C158.485 27.464 158.997 27.776 159.349 28.24C159.701 28.688 159.877 29.352 159.877 30.232V34H157.165V30.376C157.165 29.768 157.053 29.296 156.829 28.96C156.621 28.608 156.253 28.368 155.725 28.24C155.213 28.096 154.477 28.024 153.517 28.024H148.069V34H145.333ZM148.069 25.792H154.525C155.485 25.792 156.213 25.552 156.709 25.072C157.205 24.592 157.453 23.96 157.453 23.176C157.453 22.424 157.205 21.848 156.709 21.448C156.213 21.032 155.485 20.824 154.525 20.824H148.069V25.792ZM166.256 27.376V31.648H177.176V34H163.52V18.448H177.152V20.8H166.256V25.12H175.184V27.376H166.256Z" fill="#141414"/>
</svg>
