<svg width="128" height="128" viewBox="0 0 128 128" fill="none" xmlns="http://www.w3.org/2000/svg">
<g clip-path="url(#clip0_86_814)">
<rect width="128" height="128" fill="#3D3B40"/>
<path d="M92.1 88.1C91.3 87.6 79.8 78.7 66 67C69.8 75.8 72.4 82.8 72.8 83.7C72.4 82.9 69.3 77.1 65.7 69.2C65.5 97.1 64 119 64 119C64 119 62.5 96.8 62.3 68.6C58 76.8 54.5 82.9 54.3 83.4C54.5 82.9 57.4 76.1 61.7 67.2C48 78.9 36.7 87.6 35.9 88.1C36.6 87.5 46.8 77.6 60.5 65.7C50.2 69 42.1 71.2 41.1 71.5C42 71.1 48.8 68.5 58 65.4C25.5 65.3 0 64 0 64C0 64 25.8 62.7 58.6 62.6C49 58.9 42 55.9 41.5 55.7C42 55.8 50 58.3 60.3 62C46.7 50.2 36.6 40.5 35.9 39.9C36.6 40.5 48.1 49.3 62 61.1C58.2 52.3 55.5 45.3 55.2 44.4C55.6 45.2 58.7 51 62.3 58.9C62.5 30.9 64 9 64 9C64 9 65.5 31.2 65.7 59.4C70 51.2 73.5 45.1 73.7 44.7C73.5 45.2 70.6 52 66.3 60.9C80 49.2 91.3 40.5 92.1 40C91.4 40.6 81.2 50.5 67.5 62.4C77.8 59.1 85.9 56.9 86.9 56.6C86 57 79.2 59.6 70.1 62.7C102.6 62.9 128.1 64.1 128.1 64.1C128.1 64.1 102.3 65.4 69.5 65.5C79.1 69.2 86.1 72.2 86.6 72.4C86 72.2 78 69.7 67.8 66C81.3 77.8 91.4 87.5 92.1 88.1Z" fill="#F9F9F9"/>
</g>
<defs>
<clipPath id="clip0_86_814">
<rect width="128" height="128" fill="white"/>
</clipPath>
</defs>
</svg>
