<svg width="243" height="54" viewBox="0 0 243 54" fill="none" xmlns="http://www.w3.org/2000/svg">
<rect x="1" y="1" width="241" height="52" rx="26" fill="#F9F9F9"/>
<rect x="1" y="1" width="241" height="52" rx="26" stroke="#141414" stroke-width="2" stroke-dasharray="6 4"/>
<path d="M35.7212 34.288C33.8972 34.288 32.3052 33.96 30.9452 33.304C29.6012 32.648 28.5532 31.72 27.8012 30.52C27.0652 29.32 26.6972 27.888 26.6972 26.224C26.6972 24.56 27.0652 23.128 27.8012 21.928C28.5532 20.712 29.6012 19.784 30.9452 19.144C32.3052 18.488 33.8972 18.16 35.7212 18.16C37.5612 18.16 39.1532 18.488 40.4972 19.144C41.8412 19.784 42.8812 20.712 43.6172 21.928C44.3692 23.128 44.7452 24.56 44.7452 26.224C44.7452 27.888 44.3692 29.32 43.6172 30.52C42.8812 31.72 41.8412 32.648 40.4972 33.304C39.1532 33.96 37.5612 34.288 35.7212 34.288ZM35.7212 31.888C36.9372 31.888 38.0092 31.68 38.9372 31.264C39.8652 30.848 40.5932 30.224 41.1212 29.392C41.6652 28.544 41.9372 27.488 41.9372 26.224C41.9372 24.976 41.6652 23.936 41.1212 23.104C40.5932 22.256 39.8652 21.624 38.9372 21.208C38.0092 20.776 36.9372 20.56 35.7212 20.56C34.5212 20.56 33.4492 20.776 32.5052 21.208C31.5612 21.624 30.8172 22.256 30.2732 23.104C29.7292 23.936 29.4572 24.976 29.4572 26.224C29.4572 27.488 29.7292 28.544 30.2732 29.392C30.8172 30.224 31.5612 30.848 32.5052 31.264C33.4492 31.68 34.5212 31.888 35.7212 31.888ZM60.9079 27.448V18.448H63.6199V27.664C63.6199 28.64 63.4839 29.496 63.2119 30.232C62.9559 30.968 62.5879 31.592 62.1079 32.104C61.6279 32.616 61.0599 33.04 60.4039 33.376C59.7479 33.696 59.0279 33.928 58.2439 34.072C57.4759 34.216 56.6599 34.288 55.7959 34.288C54.8999 34.288 54.0519 34.216 53.2519 34.072C52.4519 33.928 51.7239 33.696 51.0679 33.376C50.4119 33.04 49.8439 32.616 49.3639 32.104C48.8999 31.592 48.5319 30.968 48.2599 30.232C48.0039 29.496 47.8759 28.64 47.8759 27.664V18.448H50.6119V27.448C50.6119 28.664 50.8359 29.592 51.2839 30.232C51.7479 30.856 52.3719 31.288 53.1559 31.528C53.9399 31.768 54.8199 31.888 55.7959 31.888C56.7399 31.888 57.5959 31.768 58.3639 31.528C59.1319 31.288 59.7479 30.856 60.2119 30.232C60.6759 29.592 60.9079 28.664 60.9079 27.448ZM67.3525 34V18.448H76.5445C77.6965 18.448 78.6965 18.616 79.5445 18.952C80.3925 19.272 81.0485 19.776 81.5125 20.464C81.9765 21.136 82.2085 22 82.2085 23.056C82.2085 23.76 82.0885 24.368 81.8485 24.88C81.6085 25.376 81.2725 25.784 80.8405 26.104C80.4085 26.424 79.9045 26.672 79.3285 26.848C78.7685 27.024 78.1685 27.136 77.5285 27.184L77.2885 27.016C78.3125 27.032 79.1605 27.128 79.8325 27.304C80.5045 27.464 81.0165 27.776 81.3685 28.24C81.7205 28.688 81.8965 29.352 81.8965 30.232V34H79.1845V30.376C79.1845 29.768 79.0725 29.296 78.8485 28.96C78.6405 28.608 78.2725 28.368 77.7445 28.24C77.2325 28.096 76.4965 28.024 75.5365 28.024H70.0885V34H67.3525ZM70.0885 25.792H76.5445C77.5045 25.792 78.2325 25.552 78.7285 25.072C79.2245 24.592 79.4725 23.96 79.4725 23.176C79.4725 22.424 79.2245 21.848 78.7285 21.448C78.2325 21.032 77.5045 20.824 76.5445 20.824H70.0885V25.792ZM90.0392 28.84H92.7032C92.7672 29.432 92.9992 29.968 93.3992 30.448C93.8152 30.912 94.3592 31.28 95.0312 31.552C95.7192 31.808 96.5032 31.936 97.3832 31.936C98.1672 31.936 98.8152 31.84 99.3272 31.648C99.8392 31.456 100.215 31.192 100.455 30.856C100.711 30.504 100.839 30.096 100.839 29.632C100.839 29.168 100.687 28.808 100.383 28.552C100.095 28.28 99.6472 28.056 99.0392 27.88C98.4312 27.688 97.6552 27.504 96.7112 27.328C95.9272 27.184 95.1672 26.992 94.4312 26.752C93.6952 26.512 93.0312 26.208 92.4392 25.84C91.8632 25.472 91.4072 25.024 91.0712 24.496C90.7352 23.952 90.5672 23.312 90.5672 22.576C90.5672 21.744 90.7992 20.992 91.2632 20.32C91.7432 19.648 92.4472 19.12 93.3752 18.736C94.3032 18.352 95.4312 18.16 96.7592 18.16C98.7912 18.16 100.343 18.632 101.415 19.576C102.487 20.504 103.007 21.768 102.975 23.368H100.359C100.311 22.36 99.9432 21.632 99.2552 21.184C98.5672 20.736 97.6952 20.512 96.6392 20.512C95.6952 20.512 94.9032 20.68 94.2632 21.016C93.6232 21.352 93.3032 21.896 93.3032 22.648C93.3032 22.968 93.3752 23.248 93.5192 23.488C93.6792 23.712 93.9352 23.92 94.2872 24.112C94.6392 24.288 95.1192 24.464 95.7272 24.64C96.3512 24.8 97.1112 24.976 98.0072 25.168C98.7752 25.296 99.4952 25.472 100.167 25.696C100.839 25.92 101.423 26.2 101.919 26.536C102.431 26.872 102.831 27.304 103.119 27.832C103.407 28.36 103.551 29.008 103.551 29.776C103.551 30.656 103.327 31.44 102.879 32.128C102.431 32.8 101.743 33.336 100.815 33.736C99.9032 34.12 98.7192 34.312 97.2632 34.312C96.1592 34.312 95.1912 34.184 94.3592 33.928C93.5432 33.656 92.8472 33.312 92.2712 32.896C91.6952 32.464 91.2312 32 90.8792 31.504C90.5432 31.008 90.3032 30.528 90.1592 30.064C90.0312 29.584 89.9912 29.176 90.0392 28.84ZM109.112 27.376V31.648H120.032V34H106.376V18.448H120.008V20.8H109.112V25.12H118.04V27.376H109.112ZM123.345 34V18.448H132.537C133.689 18.448 134.689 18.616 135.537 18.952C136.385 19.272 137.041 19.776 137.505 20.464C137.969 21.136 138.201 22 138.201 23.056C138.201 23.76 138.081 24.368 137.841 24.88C137.601 25.376 137.265 25.784 136.833 26.104C136.401 26.424 135.897 26.672 135.321 26.848C134.761 27.024 134.161 27.136 133.521 27.184L133.281 27.016C134.305 27.032 135.153 27.128 135.825 27.304C136.497 27.464 137.009 27.776 137.361 28.24C137.713 28.688 137.889 29.352 137.889 30.232V34H135.177V30.376C135.177 29.768 135.065 29.296 134.841 28.96C134.633 28.608 134.265 28.368 133.737 28.24C133.225 28.096 132.489 28.024 131.529 28.024H126.081V34H123.345ZM126.081 25.792H132.537C133.497 25.792 134.225 25.552 134.721 25.072C135.217 24.592 135.465 23.96 135.465 23.176C135.465 22.424 135.217 21.848 134.721 21.448C134.225 21.032 133.497 20.824 132.537 20.824H126.081V25.792ZM146.268 34L139.812 18.448H142.788L148.332 32.344H147.444L152.964 18.448H155.892L149.508 34H146.268ZM158.699 18.448H161.435V34H158.699V18.448ZM182.018 28.552C181.858 29.752 181.434 30.784 180.746 31.648C180.058 32.496 179.138 33.152 177.986 33.616C176.85 34.064 175.522 34.288 174.002 34.288C172.69 34.288 171.482 34.112 170.378 33.76C169.29 33.408 168.338 32.896 167.522 32.224C166.722 31.536 166.098 30.696 165.65 29.704C165.218 28.696 165.002 27.544 165.002 26.248C165.002 24.936 165.218 23.784 165.65 22.792C166.098 21.8 166.722 20.96 167.522 20.272C168.338 19.568 169.29 19.04 170.378 18.688C171.482 18.336 172.69 18.16 174.002 18.16C175.538 18.16 176.874 18.392 178.01 18.856C179.162 19.32 180.082 19.984 180.77 20.848C181.458 21.712 181.874 22.752 182.018 23.968H179.378C179.154 23.248 178.802 22.64 178.322 22.144C177.842 21.632 177.234 21.24 176.498 20.968C175.778 20.696 174.946 20.56 174.002 20.56C172.818 20.56 171.754 20.784 170.81 21.232C169.866 21.664 169.122 22.304 168.578 23.152C168.05 23.984 167.786 25.016 167.786 26.248C167.786 27.464 168.05 28.496 168.578 29.344C169.122 30.176 169.866 30.808 170.81 31.24C171.754 31.672 172.818 31.888 174.002 31.888C174.946 31.888 175.778 31.76 176.498 31.504C177.218 31.232 177.818 30.848 178.298 30.352C178.778 29.84 179.13 29.24 179.354 28.552H182.018ZM187.885 27.376V31.648H198.805V34H185.149V18.448H198.781V20.8H187.885V25.12H196.813V27.376H187.885ZM201.086 28.84H203.75C203.814 29.432 204.046 29.968 204.446 30.448C204.862 30.912 205.406 31.28 206.078 31.552C206.766 31.808 207.55 31.936 208.43 31.936C209.214 31.936 209.862 31.84 210.374 31.648C210.886 31.456 211.262 31.192 211.502 30.856C211.758 30.504 211.886 30.096 211.886 29.632C211.886 29.168 211.734 28.808 211.43 28.552C211.142 28.28 210.694 28.056 210.086 27.88C209.478 27.688 208.702 27.504 207.758 27.328C206.974 27.184 206.214 26.992 205.478 26.752C204.742 26.512 204.078 26.208 203.486 25.84C202.91 25.472 202.454 25.024 202.118 24.496C201.782 23.952 201.614 23.312 201.614 22.576C201.614 21.744 201.846 20.992 202.31 20.32C202.79 19.648 203.494 19.12 204.422 18.736C205.35 18.352 206.478 18.16 207.806 18.16C209.838 18.16 211.39 18.632 212.462 19.576C213.534 20.504 214.054 21.768 214.022 23.368H211.406C211.358 22.36 210.99 21.632 210.302 21.184C209.614 20.736 208.742 20.512 207.686 20.512C206.742 20.512 205.95 20.68 205.31 21.016C204.67 21.352 204.35 21.896 204.35 22.648C204.35 22.968 204.422 23.248 204.566 23.488C204.726 23.712 204.982 23.92 205.334 24.112C205.686 24.288 206.166 24.464 206.774 24.64C207.398 24.8 208.158 24.976 209.054 25.168C209.822 25.296 210.542 25.472 211.214 25.696C211.886 25.92 212.47 26.2 212.966 26.536C213.478 26.872 213.878 27.304 214.166 27.832C214.454 28.36 214.598 29.008 214.598 29.776C214.598 30.656 214.374 31.44 213.926 32.128C213.478 32.8 212.79 33.336 211.862 33.736C210.95 34.12 209.766 34.312 208.31 34.312C207.206 34.312 206.238 34.184 205.406 33.928C204.59 33.656 203.894 33.312 203.318 32.896C202.742 32.464 202.278 32 201.926 31.504C201.59 31.008 201.35 30.528 201.206 30.064C201.078 29.584 201.038 29.176 201.086 28.84Z" fill="#141414"/>
</svg>
