<svg width="273" height="54" viewBox="0 0 273 54" fill="none" xmlns="http://www.w3.org/2000/svg">
<rect x="1" y="1" width="271" height="52" rx="26" fill="#F9F9F9"/>
<rect x="1" y="1" width="271" height="52" rx="26" stroke="#141414" stroke-width="2" stroke-dasharray="6 4"/>
<path d="M38.2652 32.584H37.0412L45.2972 18.448H48.0092V34H45.2972V22.36L45.9212 22.528L39.1532 34H36.1772L29.4092 22.576L30.0572 22.384V34H27.3212V18.448H30.0572L38.2652 32.584ZM54.4791 27.376V31.648H65.3991V34H51.7431V18.448H65.3751V20.8H54.4791V25.12H63.4071V27.376H54.4791ZM71.4478 27.376V31.648H82.3678V34H68.7118V18.448H82.3438V20.8H71.4478V25.12H80.3758V27.376H71.4478ZM84.2406 18.448H99.1686V20.8H84.2406V18.448ZM90.3606 20.512H93.0726V34H90.3606V20.512ZM115.409 34.288C113.585 34.288 111.993 33.96 110.633 33.304C109.289 32.648 108.241 31.72 107.489 30.52C106.753 29.32 106.385 27.888 106.385 26.224C106.385 24.56 106.753 23.128 107.489 21.928C108.241 20.712 109.289 19.784 110.633 19.144C111.993 18.488 113.585 18.16 115.409 18.16C117.249 18.16 118.841 18.488 120.185 19.144C121.529 19.784 122.569 20.712 123.305 21.928C124.057 23.128 124.433 24.56 124.433 26.224C124.433 27.888 124.057 29.32 123.305 30.52C122.569 31.72 121.529 32.648 120.185 33.304C118.841 33.96 117.249 34.288 115.409 34.288ZM115.409 31.888C116.625 31.888 117.697 31.68 118.625 31.264C119.553 30.848 120.281 30.224 120.809 29.392C121.353 28.544 121.625 27.488 121.625 26.224C121.625 24.976 121.353 23.936 120.809 23.104C120.281 22.256 119.553 21.624 118.625 21.208C117.697 20.776 116.625 20.56 115.409 20.56C114.209 20.56 113.137 20.776 112.193 21.208C111.249 21.624 110.505 22.256 109.961 23.104C109.417 23.936 109.145 24.976 109.145 26.224C109.145 27.488 109.417 28.544 109.961 29.392C110.505 30.224 111.249 30.848 112.193 31.264C113.137 31.68 114.209 31.888 115.409 31.888ZM140.595 27.448V18.448H143.307V27.664C143.307 28.64 143.171 29.496 142.899 30.232C142.643 30.968 142.275 31.592 141.795 32.104C141.315 32.616 140.747 33.04 140.091 33.376C139.435 33.696 138.715 33.928 137.931 34.072C137.163 34.216 136.347 34.288 135.483 34.288C134.587 34.288 133.739 34.216 132.939 34.072C132.139 33.928 131.411 33.696 130.755 33.376C130.099 33.04 129.531 32.616 129.051 32.104C128.587 31.592 128.219 30.968 127.947 30.232C127.691 29.496 127.563 28.64 127.563 27.664V18.448H130.299V27.448C130.299 28.664 130.523 29.592 130.971 30.232C131.435 30.856 132.059 31.288 132.843 31.528C133.627 31.768 134.507 31.888 135.483 31.888C136.427 31.888 137.283 31.768 138.051 31.528C138.819 31.288 139.435 30.856 139.899 30.232C140.363 29.592 140.595 28.664 140.595 27.448ZM147.04 34V18.448H156.232C157.384 18.448 158.384 18.616 159.232 18.952C160.08 19.272 160.736 19.776 161.2 20.464C161.664 21.136 161.896 22 161.896 23.056C161.896 23.76 161.776 24.368 161.536 24.88C161.296 25.376 160.96 25.784 160.528 26.104C160.096 26.424 159.592 26.672 159.016 26.848C158.456 27.024 157.856 27.136 157.216 27.184L156.976 27.016C158 27.032 158.848 27.128 159.52 27.304C160.192 27.464 160.704 27.776 161.056 28.24C161.408 28.688 161.584 29.352 161.584 30.232V34H158.872V30.376C158.872 29.768 158.76 29.296 158.536 28.96C158.328 28.608 157.96 28.368 157.432 28.24C156.92 28.096 156.184 28.024 155.224 28.024H149.776V34H147.04ZM149.776 25.792H156.232C157.192 25.792 157.92 25.552 158.416 25.072C158.912 24.592 159.16 23.96 159.16 23.176C159.16 22.424 158.912 21.848 158.416 21.448C157.92 21.032 157.192 20.824 156.232 20.824H149.776V25.792ZM168.358 18.448H183.286V20.8H168.358V18.448ZM174.478 20.512H177.19V34H174.478V20.512ZM188.331 27.376V31.648H199.251V34H185.595V18.448H199.227V20.8H188.331V25.12H197.259V27.376H188.331ZM204.723 30.352V28.024H213.987V30.352H204.723ZM201.123 34L207.915 18.448H210.843L217.683 34H214.731L208.779 19.96H209.979L204.051 34H201.123ZM230.945 32.584H229.721L237.977 18.448H240.689V34H237.977V22.36L238.601 22.528L231.833 34H228.857L222.089 22.576L222.737 22.384V34H220.001V18.448H222.737L230.945 32.584Z" fill="#141414"/>
</svg>
