<svg width="247" height="54" viewBox="0 0 247 54" fill="none" xmlns="http://www.w3.org/2000/svg">
<rect x="1" y="1" width="245" height="52" rx="26" fill="#F9F9F9"/>
<rect x="1" y="1" width="245" height="52" rx="26" stroke="#141414" stroke-width="2" stroke-dasharray="6 4"/>
<path d="M34.0374 32.968H36.7254V38.8H34.0374V32.968ZM35.3814 34.288C33.5574 34.288 31.9654 33.96 30.6054 33.304C29.2614 32.648 28.2134 31.72 27.4614 30.52C26.7254 29.32 26.3574 27.888 26.3574 26.224C26.3574 24.56 26.7254 23.128 27.4614 21.928C28.2134 20.712 29.2614 19.784 30.6054 19.144C31.9654 18.488 33.5574 18.16 35.3814 18.16C37.2214 18.16 38.8134 18.488 40.1574 19.144C41.5014 19.784 42.5414 20.712 43.2774 21.928C44.0294 23.128 44.4054 24.56 44.4054 26.224C44.4054 27.888 44.0294 29.32 43.2774 30.52C42.5414 31.72 41.5014 32.648 40.1574 33.304C38.8134 33.96 37.2214 34.288 35.3814 34.288ZM35.3814 31.888C36.5974 31.888 37.6694 31.68 38.5974 31.264C39.5254 30.848 40.2534 30.224 40.7814 29.392C41.3254 28.544 41.5974 27.488 41.5974 26.224C41.5974 24.976 41.3254 23.936 40.7814 23.104C40.2534 22.256 39.5254 21.624 38.5974 21.208C37.6694 20.776 36.5974 20.56 35.3814 20.56C34.1814 20.56 33.1094 20.776 32.1654 21.208C31.2214 21.624 30.4774 22.256 29.9334 23.104C29.3894 23.936 29.1174 24.976 29.1174 26.224C29.1174 27.488 29.3894 28.544 29.9334 29.392C30.4774 30.224 31.2214 30.848 32.1654 31.264C33.1094 31.68 34.1814 31.888 35.3814 31.888ZM60.5681 27.448V18.448H63.2801V27.664C63.2801 28.64 63.1441 29.496 62.8721 30.232C62.6161 30.968 62.2481 31.592 61.7681 32.104C61.2881 32.616 60.7201 33.04 60.0641 33.376C59.4081 33.696 58.6881 33.928 57.9041 34.072C57.1361 34.216 56.3201 34.288 55.4561 34.288C54.5601 34.288 53.7121 34.216 52.9121 34.072C52.1121 33.928 51.3841 33.696 50.7281 33.376C50.0721 33.04 49.5041 32.616 49.0241 32.104C48.5601 31.592 48.1921 30.968 47.9201 30.232C47.6641 29.496 47.5361 28.64 47.5361 27.664V18.448H50.2721V27.448C50.2721 28.664 50.4961 29.592 50.9441 30.232C51.4081 30.856 52.0321 31.288 52.8161 31.528C53.6001 31.768 54.4801 31.888 55.4561 31.888C56.4001 31.888 57.2561 31.768 58.0241 31.528C58.7921 31.288 59.4081 30.856 59.8721 30.232C60.3361 29.592 60.5681 28.664 60.5681 27.448ZM67.4686 18.448H70.2046V34H67.4686V18.448ZM90.7874 28.552C90.6274 29.752 90.2034 30.784 89.5154 31.648C88.8274 32.496 87.9074 33.152 86.7554 33.616C85.6194 34.064 84.2914 34.288 82.7714 34.288C81.4594 34.288 80.2514 34.112 79.1474 33.76C78.0594 33.408 77.1074 32.896 76.2914 32.224C75.4914 31.536 74.8674 30.696 74.4194 29.704C73.9874 28.696 73.7714 27.544 73.7714 26.248C73.7714 24.936 73.9874 23.784 74.4194 22.792C74.8674 21.8 75.4914 20.96 76.2914 20.272C77.1074 19.568 78.0594 19.04 79.1474 18.688C80.2514 18.336 81.4594 18.16 82.7714 18.16C84.3074 18.16 85.6434 18.392 86.7794 18.856C87.9314 19.32 88.8514 19.984 89.5394 20.848C90.2274 21.712 90.6434 22.752 90.7874 23.968H88.1474C87.9234 23.248 87.5714 22.64 87.0914 22.144C86.6114 21.632 86.0034 21.24 85.2674 20.968C84.5474 20.696 83.7154 20.56 82.7714 20.56C81.5874 20.56 80.5234 20.784 79.5794 21.232C78.6354 21.664 77.8914 22.304 77.3474 23.152C76.8194 23.984 76.5554 25.016 76.5554 26.248C76.5554 27.464 76.8194 28.496 77.3474 29.344C77.8914 30.176 78.6354 30.808 79.5794 31.24C80.5234 31.672 81.5874 31.888 82.7714 31.888C83.7154 31.888 84.5474 31.76 85.2674 31.504C85.9874 31.232 86.5874 30.848 87.0674 30.352C87.5474 29.84 87.8994 29.24 88.1234 28.552H90.7874ZM99.4869 26.44L99.4629 25.12L109.399 34H105.535L96.6309 25.84L104.527 18.448H108.343L99.4869 26.44ZM93.9189 18.448H96.6549V34H93.9189V18.448ZM119.516 30.352V28.024H128.78V30.352H119.516ZM115.916 34L122.708 18.448H125.636L132.476 34H129.524L123.572 19.96H124.772L118.844 34H115.916ZM150.53 28.552C150.37 29.752 149.946 30.784 149.258 31.648C148.57 32.496 147.65 33.152 146.498 33.616C145.362 34.064 144.034 34.288 142.514 34.288C141.202 34.288 139.994 34.112 138.89 33.76C137.802 33.408 136.85 32.896 136.034 32.224C135.234 31.536 134.61 30.696 134.162 29.704C133.73 28.696 133.514 27.544 133.514 26.248C133.514 24.936 133.73 23.784 134.162 22.792C134.61 21.8 135.234 20.96 136.034 20.272C136.85 19.568 137.802 19.04 138.89 18.688C139.994 18.336 141.202 18.16 142.514 18.16C144.05 18.16 145.386 18.392 146.522 18.856C147.674 19.32 148.594 19.984 149.282 20.848C149.97 21.712 150.386 22.752 150.53 23.968H147.89C147.666 23.248 147.314 22.64 146.834 22.144C146.354 21.632 145.746 21.24 145.01 20.968C144.29 20.696 143.458 20.56 142.514 20.56C141.33 20.56 140.266 20.784 139.322 21.232C138.378 21.664 137.634 22.304 137.09 23.152C136.562 23.984 136.298 25.016 136.298 26.248C136.298 27.464 136.562 28.496 137.09 29.344C137.634 30.176 138.378 30.808 139.322 31.24C140.266 31.672 141.33 31.888 142.514 31.888C143.458 31.888 144.29 31.76 145.01 31.504C145.73 31.232 146.33 30.848 146.81 30.352C147.29 29.84 147.642 29.24 147.866 28.552H150.53ZM170.053 28.552C169.893 29.752 169.469 30.784 168.781 31.648C168.093 32.496 167.173 33.152 166.021 33.616C164.885 34.064 163.557 34.288 162.037 34.288C160.725 34.288 159.517 34.112 158.413 33.76C157.325 33.408 156.373 32.896 155.557 32.224C154.757 31.536 154.133 30.696 153.685 29.704C153.253 28.696 153.037 27.544 153.037 26.248C153.037 24.936 153.253 23.784 153.685 22.792C154.133 21.8 154.757 20.96 155.557 20.272C156.373 19.568 157.325 19.04 158.413 18.688C159.517 18.336 160.725 18.16 162.037 18.16C163.573 18.16 164.909 18.392 166.045 18.856C167.197 19.32 168.117 19.984 168.805 20.848C169.493 21.712 169.909 22.752 170.053 23.968H167.413C167.189 23.248 166.837 22.64 166.357 22.144C165.877 21.632 165.269 21.24 164.533 20.968C163.813 20.696 162.981 20.56 162.037 20.56C160.853 20.56 159.789 20.784 158.845 21.232C157.901 21.664 157.157 22.304 156.613 23.152C156.085 23.984 155.821 25.016 155.821 26.248C155.821 27.464 156.085 28.496 156.613 29.344C157.157 30.176 157.901 30.808 158.845 31.24C159.789 31.672 160.853 31.888 162.037 31.888C162.981 31.888 163.813 31.76 164.533 31.504C165.253 31.232 165.853 30.848 166.333 30.352C166.813 29.84 167.165 29.24 167.389 28.552H170.053ZM175.921 27.376V31.648H186.841V34H173.185V18.448H186.817V20.8H175.921V25.12H184.849V27.376H175.921ZM189.121 28.84H191.785C191.849 29.432 192.081 29.968 192.481 30.448C192.897 30.912 193.441 31.28 194.113 31.552C194.801 31.808 195.585 31.936 196.465 31.936C197.249 31.936 197.897 31.84 198.409 31.648C198.921 31.456 199.297 31.192 199.537 30.856C199.793 30.504 199.921 30.096 199.921 29.632C199.921 29.168 199.769 28.808 199.465 28.552C199.177 28.28 198.729 28.056 198.121 27.88C197.513 27.688 196.737 27.504 195.793 27.328C195.009 27.184 194.249 26.992 193.513 26.752C192.777 26.512 192.113 26.208 191.521 25.84C190.945 25.472 190.489 25.024 190.153 24.496C189.817 23.952 189.649 23.312 189.649 22.576C189.649 21.744 189.881 20.992 190.345 20.32C190.825 19.648 191.529 19.12 192.457 18.736C193.385 18.352 194.513 18.16 195.841 18.16C197.873 18.16 199.425 18.632 200.497 19.576C201.569 20.504 202.089 21.768 202.057 23.368H199.441C199.393 22.36 199.025 21.632 198.337 21.184C197.649 20.736 196.777 20.512 195.721 20.512C194.777 20.512 193.985 20.68 193.345 21.016C192.705 21.352 192.385 21.896 192.385 22.648C192.385 22.968 192.457 23.248 192.601 23.488C192.761 23.712 193.017 23.92 193.369 24.112C193.721 24.288 194.201 24.464 194.809 24.64C195.433 24.8 196.193 24.976 197.089 25.168C197.857 25.296 198.577 25.472 199.249 25.696C199.921 25.92 200.505 26.2 201.001 26.536C201.513 26.872 201.913 27.304 202.201 27.832C202.489 28.36 202.633 29.008 202.633 29.776C202.633 30.656 202.409 31.44 201.961 32.128C201.513 32.8 200.825 33.336 199.897 33.736C198.985 34.12 197.801 34.312 196.345 34.312C195.241 34.312 194.273 34.184 193.441 33.928C192.625 33.656 191.929 33.312 191.353 32.896C190.777 32.464 190.313 32 189.961 31.504C189.625 31.008 189.385 30.528 189.241 30.064C189.113 29.584 189.073 29.176 189.121 28.84ZM204.426 28.84H207.09C207.154 29.432 207.386 29.968 207.786 30.448C208.202 30.912 208.746 31.28 209.418 31.552C210.106 31.808 210.89 31.936 211.77 31.936C212.554 31.936 213.202 31.84 213.714 31.648C214.226 31.456 214.602 31.192 214.842 30.856C215.098 30.504 215.226 30.096 215.226 29.632C215.226 29.168 215.074 28.808 214.77 28.552C214.482 28.28 214.034 28.056 213.426 27.88C212.818 27.688 212.042 27.504 211.098 27.328C210.314 27.184 209.554 26.992 208.818 26.752C208.082 26.512 207.418 26.208 206.826 25.84C206.25 25.472 205.794 25.024 205.458 24.496C205.122 23.952 204.954 23.312 204.954 22.576C204.954 21.744 205.186 20.992 205.65 20.32C206.13 19.648 206.834 19.12 207.762 18.736C208.69 18.352 209.818 18.16 211.146 18.16C213.178 18.16 214.73 18.632 215.802 19.576C216.874 20.504 217.394 21.768 217.362 23.368H214.746C214.698 22.36 214.33 21.632 213.642 21.184C212.954 20.736 212.082 20.512 211.026 20.512C210.082 20.512 209.29 20.68 208.65 21.016C208.01 21.352 207.69 21.896 207.69 22.648C207.69 22.968 207.762 23.248 207.906 23.488C208.066 23.712 208.322 23.92 208.674 24.112C209.026 24.288 209.506 24.464 210.114 24.64C210.738 24.8 211.498 24.976 212.394 25.168C213.162 25.296 213.882 25.472 214.554 25.696C215.226 25.92 215.81 26.2 216.306 26.536C216.818 26.872 217.218 27.304 217.506 27.832C217.794 28.36 217.938 29.008 217.938 29.776C217.938 30.656 217.714 31.44 217.266 32.128C216.818 32.8 216.13 33.336 215.202 33.736C214.29 34.12 213.106 34.312 211.65 34.312C210.546 34.312 209.578 34.184 208.746 33.928C207.93 33.656 207.234 33.312 206.658 32.896C206.082 32.464 205.618 32 205.266 31.504C204.93 31.008 204.69 30.528 204.546 30.064C204.418 29.584 204.378 29.176 204.426 28.84Z" fill="#141414"/>
</svg>
