<svg width="176" height="54" viewBox="0 0 176 54" fill="none" xmlns="http://www.w3.org/2000/svg">
<rect x="1" y="1" width="174" height="52" rx="26" fill="#F9F9F9"/>
<rect x="1" y="1" width="174" height="52" rx="26" stroke="#141414" stroke-width="2" stroke-dasharray="6 4"/>
<path d="M27.0087 34V18.448H36.2007C37.3527 18.448 38.3527 18.616 39.2007 18.952C40.0487 19.272 40.7047 19.776 41.1687 20.464C41.6327 21.136 41.8647 22 41.8647 23.056C41.8647 23.76 41.7447 24.368 41.5047 24.88C41.2647 25.376 40.9287 25.784 40.4967 26.104C40.0647 26.424 39.5607 26.672 38.9847 26.848C38.4247 27.024 37.8247 27.136 37.1847 27.184L36.9447 27.016C37.9687 27.032 38.8167 27.128 39.4887 27.304C40.1607 27.464 40.6727 27.776 41.0247 28.24C41.3767 28.688 41.5527 29.352 41.5527 30.232V34H38.8407V30.376C38.8407 29.768 38.7287 29.296 38.5047 28.96C38.2967 28.608 37.9287 28.368 37.4007 28.24C36.8887 28.096 36.1527 28.024 35.1927 28.024H29.7447V34H27.0087ZM29.7447 25.792H36.2007C37.1607 25.792 37.8887 25.552 38.3847 25.072C38.8807 24.592 39.1287 23.96 39.1287 23.176C39.1287 22.424 38.8807 21.848 38.3847 21.448C37.8887 21.032 37.1607 20.824 36.2007 20.824H29.7447V25.792ZM47.9322 27.376V31.648H58.8522V34H45.1962V18.448H58.8282V20.8H47.9322V25.12H56.8602V27.376H47.9322ZM67.229 34L60.773 18.448H63.749L69.293 32.344H68.405L73.925 18.448H76.853L70.469 34H67.229ZM79.66 18.448H82.396V34H79.66V18.448ZM89.3228 27.376V31.648H100.243V34H86.5868V18.448H100.219V20.8H89.3228V25.12H98.2508V27.376H89.3228ZM108.38 34L102.164 18.448H105.14L110.42 32.128H109.556L114.596 18.448H117.692L122.732 32.128H121.868L127.148 18.448H130.076L123.932 34H120.716L115.748 20.344H116.564L111.572 34H108.38ZM131.399 28.84H134.063C134.127 29.432 134.359 29.968 134.759 30.448C135.175 30.912 135.719 31.28 136.391 31.552C137.079 31.808 137.863 31.936 138.743 31.936C139.527 31.936 140.175 31.84 140.687 31.648C141.199 31.456 141.575 31.192 141.815 30.856C142.071 30.504 142.199 30.096 142.199 29.632C142.199 29.168 142.047 28.808 141.743 28.552C141.455 28.28 141.007 28.056 140.399 27.88C139.791 27.688 139.015 27.504 138.071 27.328C137.287 27.184 136.527 26.992 135.791 26.752C135.055 26.512 134.391 26.208 133.799 25.84C133.223 25.472 132.767 25.024 132.431 24.496C132.095 23.952 131.927 23.312 131.927 22.576C131.927 21.744 132.159 20.992 132.623 20.32C133.103 19.648 133.807 19.12 134.735 18.736C135.663 18.352 136.791 18.16 138.119 18.16C140.151 18.16 141.703 18.632 142.775 19.576C143.847 20.504 144.367 21.768 144.335 23.368H141.719C141.671 22.36 141.303 21.632 140.615 21.184C139.927 20.736 139.055 20.512 137.999 20.512C137.055 20.512 136.263 20.68 135.623 21.016C134.983 21.352 134.663 21.896 134.663 22.648C134.663 22.968 134.735 23.248 134.879 23.488C135.039 23.712 135.295 23.92 135.647 24.112C135.999 24.288 136.479 24.464 137.087 24.64C137.711 24.8 138.471 24.976 139.367 25.168C140.135 25.296 140.855 25.472 141.527 25.696C142.199 25.92 142.783 26.2 143.279 26.536C143.791 26.872 144.191 27.304 144.479 27.832C144.767 28.36 144.911 29.008 144.911 29.776C144.911 30.656 144.687 31.44 144.239 32.128C143.791 32.8 143.103 33.336 142.175 33.736C141.263 34.12 140.079 34.312 138.623 34.312C137.519 34.312 136.551 34.184 135.719 33.928C134.903 33.656 134.207 33.312 133.631 32.896C133.055 32.464 132.591 32 132.239 31.504C131.903 31.008 131.663 30.528 131.519 30.064C131.391 29.584 131.351 29.176 131.399 28.84Z" fill="#141414"/>
</svg>
