<svg width="383" height="54" viewBox="0 0 383 54" fill="none" xmlns="http://www.w3.org/2000/svg">
<rect x="1" y="1" width="381" height="52" rx="26" fill="#F9F9F9"/>
<rect x="1" y="1" width="381" height="52" rx="26" stroke="#141414" stroke-width="2" stroke-dasharray="6 4"/>
<path d="M41.0001 18.448V20.8H30.1041V25.312H39.0321V27.568H30.1041V34H27.3681V18.448H41.0001ZM43.5868 34V18.448H52.7788C53.9308 18.448 54.9308 18.616 55.7788 18.952C56.6268 19.272 57.2828 19.776 57.7468 20.464C58.2108 21.136 58.4428 22 58.4428 23.056C58.4428 23.76 58.3228 24.368 58.0828 24.88C57.8428 25.376 57.5068 25.784 57.0748 26.104C56.6428 26.424 56.1388 26.672 55.5628 26.848C55.0028 27.024 54.4028 27.136 53.7628 27.184L53.5228 27.016C54.5468 27.032 55.3948 27.128 56.0668 27.304C56.7388 27.464 57.2508 27.776 57.6028 28.24C57.9548 28.688 58.1308 29.352 58.1308 30.232V34H55.4188V30.376C55.4188 29.768 55.3068 29.296 55.0828 28.96C54.8748 28.608 54.5068 28.368 53.9788 28.24C53.4668 28.096 52.7308 28.024 51.7708 28.024H46.3228V34H43.5868ZM46.3228 25.792H52.7788C53.7388 25.792 54.4668 25.552 54.9628 25.072C55.4588 24.592 55.7068 23.96 55.7068 23.176C55.7068 22.424 55.4588 21.848 54.9628 21.448C54.4668 21.032 53.7388 20.824 52.7788 20.824H46.3228V25.792ZM64.5103 27.376V31.648H75.4303V34H61.7743V18.448H75.4063V20.8H64.5103V25.12H73.4383V27.376H64.5103ZM81.4791 27.376V31.648H92.3991V34H78.7431V18.448H92.3751V20.8H81.4791V25.12H90.4071V27.376H81.4791ZM106.307 34L99.8511 18.448H102.827L108.371 32.344H107.483L113.003 18.448H115.931L109.547 34H106.307ZM118.738 18.448H121.474V34H118.738V18.448ZM133.129 18.448C134.809 18.448 136.217 18.656 137.353 19.072C138.489 19.488 139.393 20.056 140.065 20.776C140.737 21.48 141.217 22.296 141.505 23.224C141.809 24.152 141.961 25.128 141.961 26.152C141.961 27.192 141.801 28.184 141.481 29.128C141.161 30.072 140.649 30.912 139.945 31.648C139.257 32.368 138.353 32.944 137.233 33.376C136.113 33.792 134.745 34 133.129 34H125.665V18.448H133.129ZM128.401 31.6H133.105C134.289 31.6 135.273 31.448 136.057 31.144C136.841 30.84 137.465 30.432 137.929 29.92C138.393 29.392 138.721 28.808 138.913 28.168C139.105 27.512 139.201 26.84 139.201 26.152C139.201 25.464 139.105 24.808 138.913 24.184C138.721 23.544 138.393 22.976 137.929 22.48C137.465 21.968 136.841 21.568 136.057 21.28C135.273 20.976 134.289 20.824 133.105 20.824H128.401V31.6ZM147.784 27.376V31.648H158.704V34H145.048V18.448H158.68V20.8H147.784V25.12H156.712V27.376H147.784ZM170.323 34.288C168.499 34.288 166.907 33.96 165.547 33.304C164.203 32.648 163.155 31.72 162.403 30.52C161.667 29.32 161.299 27.888 161.299 26.224C161.299 24.56 161.667 23.128 162.403 21.928C163.155 20.712 164.203 19.784 165.547 19.144C166.907 18.488 168.499 18.16 170.323 18.16C172.163 18.16 173.755 18.488 175.099 19.144C176.443 19.784 177.483 20.712 178.219 21.928C178.971 23.128 179.347 24.56 179.347 26.224C179.347 27.888 178.971 29.32 178.219 30.52C177.483 31.72 176.443 32.648 175.099 33.304C173.755 33.96 172.163 34.288 170.323 34.288ZM170.323 31.888C171.539 31.888 172.611 31.68 173.539 31.264C174.467 30.848 175.195 30.224 175.723 29.392C176.267 28.544 176.539 27.488 176.539 26.224C176.539 24.976 176.267 23.936 175.723 23.104C175.195 22.256 174.467 21.624 173.539 21.208C172.611 20.776 171.539 20.56 170.323 20.56C169.123 20.56 168.051 20.776 167.107 21.208C166.163 21.624 165.419 22.256 164.875 23.104C164.331 23.936 164.059 24.976 164.059 26.224C164.059 27.488 164.331 28.544 164.875 29.392C165.419 30.224 166.163 30.848 167.107 31.264C168.051 31.68 169.123 31.888 170.323 31.888ZM204.401 28.552C204.241 29.752 203.817 30.784 203.129 31.648C202.441 32.496 201.521 33.152 200.369 33.616C199.233 34.064 197.905 34.288 196.385 34.288C195.073 34.288 193.865 34.112 192.761 33.76C191.673 33.408 190.721 32.896 189.905 32.224C189.105 31.536 188.481 30.696 188.033 29.704C187.601 28.696 187.385 27.544 187.385 26.248C187.385 24.936 187.601 23.784 188.033 22.792C188.481 21.8 189.105 20.96 189.905 20.272C190.721 19.568 191.673 19.04 192.761 18.688C193.865 18.336 195.073 18.16 196.385 18.16C197.921 18.16 199.257 18.392 200.393 18.856C201.545 19.32 202.465 19.984 203.153 20.848C203.841 21.712 204.257 22.752 204.401 23.968H201.761C201.537 23.248 201.185 22.64 200.705 22.144C200.225 21.632 199.617 21.24 198.881 20.968C198.161 20.696 197.329 20.56 196.385 20.56C195.201 20.56 194.137 20.784 193.193 21.232C192.249 21.664 191.505 22.304 190.961 23.152C190.433 23.984 190.169 25.016 190.169 26.248C190.169 27.464 190.433 28.496 190.961 29.344C191.505 30.176 192.249 30.808 193.193 31.24C194.137 31.672 195.201 31.888 196.385 31.888C197.329 31.888 198.161 31.76 198.881 31.504C199.601 31.232 200.201 30.848 200.681 30.352C201.161 29.84 201.513 29.24 201.737 28.552H204.401ZM215.932 34.288C214.108 34.288 212.516 33.96 211.156 33.304C209.812 32.648 208.764 31.72 208.012 30.52C207.276 29.32 206.908 27.888 206.908 26.224C206.908 24.56 207.276 23.128 208.012 21.928C208.764 20.712 209.812 19.784 211.156 19.144C212.516 18.488 214.108 18.16 215.932 18.16C217.772 18.16 219.364 18.488 220.708 19.144C222.052 19.784 223.092 20.712 223.828 21.928C224.58 23.128 224.956 24.56 224.956 26.224C224.956 27.888 224.58 29.32 223.828 30.52C223.092 31.72 222.052 32.648 220.708 33.304C219.364 33.96 217.772 34.288 215.932 34.288ZM215.932 31.888C217.148 31.888 218.22 31.68 219.148 31.264C220.076 30.848 220.804 30.224 221.332 29.392C221.876 28.544 222.148 27.488 222.148 26.224C222.148 24.976 221.876 23.936 221.332 23.104C220.804 22.256 220.076 21.624 219.148 21.208C218.22 20.776 217.148 20.56 215.932 20.56C214.732 20.56 213.66 20.776 212.716 21.208C211.772 21.624 211.028 22.256 210.484 23.104C209.94 23.936 209.668 24.976 209.668 26.224C209.668 27.488 209.94 28.544 210.484 29.392C211.028 30.224 211.772 30.848 212.716 31.264C213.66 31.68 214.732 31.888 215.932 31.888ZM242.463 31.168L241.647 31.48V18.448H244.359V34H241.647L229.983 21.352L230.823 21.04V34H228.087V18.448H230.823L242.463 31.168ZM247.07 28.84H249.734C249.798 29.432 250.03 29.968 250.43 30.448C250.846 30.912 251.39 31.28 252.062 31.552C252.75 31.808 253.534 31.936 254.414 31.936C255.198 31.936 255.846 31.84 256.358 31.648C256.87 31.456 257.246 31.192 257.486 30.856C257.742 30.504 257.87 30.096 257.87 29.632C257.87 29.168 257.718 28.808 257.414 28.552C257.126 28.28 256.678 28.056 256.07 27.88C255.462 27.688 254.686 27.504 253.742 27.328C252.958 27.184 252.198 26.992 251.462 26.752C250.726 26.512 250.062 26.208 249.47 25.84C248.894 25.472 248.438 25.024 248.102 24.496C247.766 23.952 247.598 23.312 247.598 22.576C247.598 21.744 247.83 20.992 248.294 20.32C248.774 19.648 249.478 19.12 250.406 18.736C251.334 18.352 252.462 18.16 253.79 18.16C255.822 18.16 257.374 18.632 258.446 19.576C259.518 20.504 260.038 21.768 260.006 23.368H257.39C257.342 22.36 256.974 21.632 256.286 21.184C255.598 20.736 254.726 20.512 253.67 20.512C252.726 20.512 251.934 20.68 251.294 21.016C250.654 21.352 250.334 21.896 250.334 22.648C250.334 22.968 250.406 23.248 250.55 23.488C250.71 23.712 250.966 23.92 251.318 24.112C251.67 24.288 252.15 24.464 252.758 24.64C253.382 24.8 254.142 24.976 255.038 25.168C255.806 25.296 256.526 25.472 257.198 25.696C257.87 25.92 258.454 26.2 258.95 26.536C259.462 26.872 259.862 27.304 260.15 27.832C260.438 28.36 260.582 29.008 260.582 29.776C260.582 30.656 260.358 31.44 259.91 32.128C259.462 32.8 258.774 33.336 257.846 33.736C256.934 34.12 255.75 34.312 254.294 34.312C253.19 34.312 252.222 34.184 251.39 33.928C250.574 33.656 249.878 33.312 249.302 32.896C248.726 32.464 248.262 32 247.91 31.504C247.574 31.008 247.334 30.528 247.19 30.064C247.062 29.584 247.022 29.176 247.07 28.84ZM276.439 27.448V18.448H279.151V27.664C279.151 28.64 279.015 29.496 278.743 30.232C278.487 30.968 278.119 31.592 277.639 32.104C277.159 32.616 276.591 33.04 275.935 33.376C275.279 33.696 274.559 33.928 273.775 34.072C273.007 34.216 272.191 34.288 271.327 34.288C270.431 34.288 269.583 34.216 268.783 34.072C267.983 33.928 267.255 33.696 266.599 33.376C265.943 33.04 265.375 32.616 264.895 32.104C264.431 31.592 264.063 30.968 263.791 30.232C263.535 29.496 263.407 28.64 263.407 27.664V18.448H266.143V27.448C266.143 28.664 266.367 29.592 266.815 30.232C267.279 30.856 267.903 31.288 268.687 31.528C269.471 31.768 270.351 31.888 271.327 31.888C272.271 31.888 273.127 31.768 273.895 31.528C274.663 31.288 275.279 30.856 275.743 30.232C276.207 29.592 276.439 28.664 276.439 27.448ZM285.62 18.448V31.648H295.316V34H282.884V18.448H285.62ZM295.037 18.448H309.965V20.8H295.037V18.448ZM301.157 20.512H303.869V34H301.157V20.512ZM313.286 30.352V28.024H322.55V30.352H313.286ZM309.686 34L316.478 18.448H319.406L326.246 34H323.294L317.342 19.96H318.542L312.614 34H309.686ZM342.939 31.168L342.123 31.48V18.448H344.835V34H342.123L330.459 21.352L331.299 21.04V34H328.563V18.448H331.299L342.939 31.168ZM347.139 18.448H362.067V20.8H347.139V18.448ZM353.259 20.512H355.971V34H353.259V20.512Z" fill="#141414"/>
</svg>
