<svg width="273" height="54" viewBox="0 0 273 54" fill="none" xmlns="http://www.w3.org/2000/svg">
<rect x="1" y="1" width="271" height="52" rx="26" fill="#F9F9F9"/>
<rect x="1" y="1" width="271" height="52" rx="26" stroke="#141414" stroke-width="2" stroke-dasharray="6 4"/>
<path d="M31.7468 34L25.5308 18.448H28.5068L33.7868 32.128H32.9228L37.9628 18.448H41.0588L46.0988 32.128H45.2348L50.5148 18.448H53.4428L47.2988 34H44.0828L39.1148 20.344H39.9308L34.9388 34H31.7468ZM58.2218 25.048H69.6458V27.376H58.2218V25.048ZM69.2618 18.448H71.9738V34H69.2618V18.448ZM55.7978 18.448H58.5338V34H55.7978V18.448ZM89.7597 18.448L83.4237 28.936V34H80.6877V28.936L74.3517 18.448H77.4957L82.8477 27.616H81.3597L86.6397 18.448H89.7597ZM114.073 28.552C113.913 29.752 113.489 30.784 112.801 31.648C112.113 32.496 111.193 33.152 110.041 33.616C108.905 34.064 107.577 34.288 106.057 34.288C104.745 34.288 103.537 34.112 102.433 33.76C101.345 33.408 100.393 32.896 99.5766 32.224C98.7766 31.536 98.1526 30.696 97.7046 29.704C97.2726 28.696 97.0566 27.544 97.0566 26.248C97.0566 24.936 97.2726 23.784 97.7046 22.792C98.1526 21.8 98.7766 20.96 99.5766 20.272C100.393 19.568 101.345 19.04 102.433 18.688C103.537 18.336 104.745 18.16 106.057 18.16C107.593 18.16 108.929 18.392 110.065 18.856C111.217 19.32 112.137 19.984 112.825 20.848C113.513 21.712 113.929 22.752 114.073 23.968H111.433C111.209 23.248 110.857 22.64 110.377 22.144C109.897 21.632 109.289 21.24 108.553 20.968C107.833 20.696 107.001 20.56 106.057 20.56C104.873 20.56 103.809 20.784 102.865 21.232C101.921 21.664 101.177 22.304 100.633 23.152C100.105 23.984 99.8406 25.016 99.8406 26.248C99.8406 27.464 100.105 28.496 100.633 29.344C101.177 30.176 101.921 30.808 102.865 31.24C103.809 31.672 104.873 31.888 106.057 31.888C107.001 31.888 107.833 31.76 108.553 31.504C109.273 31.232 109.873 30.848 110.353 30.352C110.833 29.84 111.185 29.24 111.409 28.552H114.073ZM119.628 25.048H131.052V27.376H119.628V25.048ZM130.668 18.448H133.38V34H130.668V18.448ZM117.204 18.448H119.94V34H117.204V18.448ZM145.526 34.288C143.702 34.288 142.11 33.96 140.75 33.304C139.406 32.648 138.358 31.72 137.606 30.52C136.87 29.32 136.502 27.888 136.502 26.224C136.502 24.56 136.87 23.128 137.606 21.928C138.358 20.712 139.406 19.784 140.75 19.144C142.11 18.488 143.702 18.16 145.526 18.16C147.366 18.16 148.958 18.488 150.302 19.144C151.646 19.784 152.686 20.712 153.422 21.928C154.174 23.128 154.55 24.56 154.55 26.224C154.55 27.888 154.174 29.32 153.422 30.52C152.686 31.72 151.646 32.648 150.302 33.304C148.958 33.96 147.366 34.288 145.526 34.288ZM145.526 31.888C146.742 31.888 147.814 31.68 148.742 31.264C149.67 30.848 150.398 30.224 150.926 29.392C151.47 28.544 151.742 27.488 151.742 26.224C151.742 24.976 151.47 23.936 150.926 23.104C150.398 22.256 149.67 21.624 148.742 21.208C147.814 20.776 146.742 20.56 145.526 20.56C144.326 20.56 143.254 20.776 142.31 21.208C141.366 21.624 140.622 22.256 140.078 23.104C139.534 23.936 139.262 24.976 139.262 26.224C139.262 27.488 139.534 28.544 140.078 29.392C140.622 30.224 141.366 30.848 142.31 31.264C143.254 31.68 144.326 31.888 145.526 31.888ZM166.081 34.288C164.257 34.288 162.665 33.96 161.305 33.304C159.961 32.648 158.913 31.72 158.161 30.52C157.425 29.32 157.057 27.888 157.057 26.224C157.057 24.56 157.425 23.128 158.161 21.928C158.913 20.712 159.961 19.784 161.305 19.144C162.665 18.488 164.257 18.16 166.081 18.16C167.921 18.16 169.513 18.488 170.857 19.144C172.201 19.784 173.241 20.712 173.977 21.928C174.729 23.128 175.105 24.56 175.105 26.224C175.105 27.888 174.729 29.32 173.977 30.52C173.241 31.72 172.201 32.648 170.857 33.304C169.513 33.96 167.921 34.288 166.081 34.288ZM166.081 31.888C167.297 31.888 168.369 31.68 169.297 31.264C170.225 30.848 170.953 30.224 171.481 29.392C172.025 28.544 172.297 27.488 172.297 26.224C172.297 24.976 172.025 23.936 171.481 23.104C170.953 22.256 170.225 21.624 169.297 21.208C168.369 20.776 167.297 20.56 166.081 20.56C164.881 20.56 163.809 20.776 162.865 21.208C161.921 21.624 161.177 22.256 160.633 23.104C160.089 23.936 159.817 24.976 159.817 26.224C159.817 27.488 160.089 28.544 160.633 29.392C161.177 30.224 161.921 30.848 162.865 31.264C163.809 31.68 164.881 31.888 166.081 31.888ZM177.203 28.84H179.867C179.931 29.432 180.163 29.968 180.563 30.448C180.979 30.912 181.523 31.28 182.195 31.552C182.883 31.808 183.667 31.936 184.547 31.936C185.331 31.936 185.979 31.84 186.491 31.648C187.003 31.456 187.379 31.192 187.619 30.856C187.875 30.504 188.003 30.096 188.003 29.632C188.003 29.168 187.851 28.808 187.547 28.552C187.259 28.28 186.811 28.056 186.203 27.88C185.595 27.688 184.819 27.504 183.875 27.328C183.091 27.184 182.331 26.992 181.595 26.752C180.859 26.512 180.195 26.208 179.603 25.84C179.027 25.472 178.571 25.024 178.235 24.496C177.899 23.952 177.731 23.312 177.731 22.576C177.731 21.744 177.963 20.992 178.427 20.32C178.907 19.648 179.611 19.12 180.539 18.736C181.467 18.352 182.595 18.16 183.923 18.16C185.955 18.16 187.507 18.632 188.579 19.576C189.651 20.504 190.171 21.768 190.139 23.368H187.523C187.475 22.36 187.107 21.632 186.419 21.184C185.731 20.736 184.859 20.512 183.803 20.512C182.859 20.512 182.067 20.68 181.427 21.016C180.787 21.352 180.467 21.896 180.467 22.648C180.467 22.968 180.539 23.248 180.683 23.488C180.843 23.712 181.099 23.92 181.451 24.112C181.803 24.288 182.283 24.464 182.891 24.64C183.515 24.8 184.275 24.976 185.171 25.168C185.939 25.296 186.659 25.472 187.331 25.696C188.003 25.92 188.587 26.2 189.083 26.536C189.595 26.872 189.995 27.304 190.283 27.832C190.571 28.36 190.715 29.008 190.715 29.776C190.715 30.656 190.491 31.44 190.043 32.128C189.595 32.8 188.907 33.336 187.979 33.736C187.067 34.12 185.883 34.312 184.427 34.312C183.323 34.312 182.355 34.184 181.523 33.928C180.707 33.656 180.011 33.312 179.435 32.896C178.859 32.464 178.395 32 178.043 31.504C177.707 31.008 177.467 30.528 177.323 30.064C177.195 29.584 177.155 29.176 177.203 28.84ZM196.276 27.376V31.648H207.196V34H193.54V18.448H207.172V20.8H196.276V25.12H205.204V27.376H196.276ZM229.072 27.448V18.448H231.784V27.664C231.784 28.64 231.648 29.496 231.376 30.232C231.12 30.968 230.752 31.592 230.272 32.104C229.792 32.616 229.224 33.04 228.568 33.376C227.912 33.696 227.192 33.928 226.408 34.072C225.64 34.216 224.824 34.288 223.96 34.288C223.064 34.288 222.216 34.216 221.416 34.072C220.616 33.928 219.888 33.696 219.232 33.376C218.576 33.04 218.008 32.616 217.528 32.104C217.064 31.592 216.696 30.968 216.424 30.232C216.168 29.496 216.04 28.64 216.04 27.664V18.448H218.776V27.448C218.776 28.664 219 29.592 219.448 30.232C219.912 30.856 220.536 31.288 221.32 31.528C222.104 31.768 222.984 31.888 223.96 31.888C224.904 31.888 225.76 31.768 226.528 31.528C227.296 31.288 227.912 30.856 228.376 30.232C228.84 29.592 229.072 28.664 229.072 27.448ZM234.485 28.84H237.149C237.213 29.432 237.445 29.968 237.845 30.448C238.261 30.912 238.805 31.28 239.477 31.552C240.165 31.808 240.949 31.936 241.829 31.936C242.613 31.936 243.261 31.84 243.773 31.648C244.285 31.456 244.661 31.192 244.901 30.856C245.157 30.504 245.285 30.096 245.285 29.632C245.285 29.168 245.133 28.808 244.829 28.552C244.541 28.28 244.093 28.056 243.485 27.88C242.877 27.688 242.101 27.504 241.157 27.328C240.373 27.184 239.613 26.992 238.877 26.752C238.141 26.512 237.477 26.208 236.885 25.84C236.309 25.472 235.853 25.024 235.517 24.496C235.181 23.952 235.013 23.312 235.013 22.576C235.013 21.744 235.245 20.992 235.709 20.32C236.189 19.648 236.893 19.12 237.821 18.736C238.749 18.352 239.877 18.16 241.205 18.16C243.237 18.16 244.789 18.632 245.861 19.576C246.933 20.504 247.453 21.768 247.421 23.368H244.805C244.757 22.36 244.389 21.632 243.701 21.184C243.013 20.736 242.141 20.512 241.085 20.512C240.141 20.512 239.349 20.68 238.709 21.016C238.069 21.352 237.749 21.896 237.749 22.648C237.749 22.968 237.821 23.248 237.965 23.488C238.125 23.712 238.381 23.92 238.733 24.112C239.085 24.288 239.565 24.464 240.173 24.64C240.797 24.8 241.557 24.976 242.453 25.168C243.221 25.296 243.941 25.472 244.613 25.696C245.285 25.92 245.869 26.2 246.365 26.536C246.877 26.872 247.277 27.304 247.565 27.832C247.853 28.36 247.997 29.008 247.997 29.776C247.997 30.656 247.773 31.44 247.325 32.128C246.877 32.8 246.189 33.336 245.261 33.736C244.349 34.12 243.165 34.312 241.709 34.312C240.605 34.312 239.637 34.184 238.805 33.928C237.989 33.656 237.293 33.312 236.717 32.896C236.141 32.464 235.677 32 235.325 31.504C234.989 31.008 234.749 30.528 234.605 30.064C234.477 29.584 234.437 29.176 234.485 28.84Z" fill="#141414"/>
</svg>
